<svg id="Layer_1" data-name="Layer 1" xmlns="http://www.w3.org/2000/svg" viewBox="0 0 100.01 100"><defs><style>.cls-1{fill:#fff;}</style></defs><title>simply-business</title><g id="nFmVP7"><path class="cls-1" d="M2076,2330.06a50,50,0,1,1-50,49.88A50,50,0,0,1,2076,2330.06Zm-1.62,98.37-0.07-.3a4,4,0,0,1,1-.67c1.39-.41,1.9-1.22,1.45-2.62-0.29-.89-0.68-1.76-1-2.62-0.83-1.95-1.67-3.89-2.51-5.84,1.49-.35,1.52-0.34,2.06.93l2.51,5.86,1.86-6.1c0.38-1.24.52-1.32,1.91-1-0.63,2-1.19,4-1.92,6-0.78,2.13-1,4.51-2.59,6.31a48.15,48.15,0,0,0,46.8-41.06c3.78-24-11.17-45.87-31.36-52.66-0.25.57-.68,1.14-1.29,0.79a4.28,4.28,0,0,1-1-1.44c-4.86-1.92-14.26-2.94-18.06-2.1l2,11.75H2072a3.78,3.78,0,0,1-6.2-2,7.16,7.16,0,0,1-.34-2.42,4.28,4.28,0,0,1,3.75-4.27,10.77,10.77,0,0,1,1.82.13l-0.54-3.15a48.41,48.41,0,0,0-28,13.24,47.84,47.84,0,0,0-13.14,22.2l12,3-0.37,1.64-12-3c-5.42,21.9,6.09,46.55,28.4,55.57l3.73-11.41c1.37,0.34,1.37.34,1.59,1a3.84,3.84,0,0,1,4.93,3.25,6.54,6.54,0,0,1-1.24,4.3,3.71,3.71,0,0,1-4.51,1.45,14.89,14.89,0,0,1-2-1l-1,3.08A47.79,47.79,0,0,0,2074.38,2428.43Zm-11.15-13.08c-1,0-1.2.13-1.53,1.15-0.38,1.18-.75,2.37-1.18,3.54a1.05,1.05,0,0,0,.48,1.39,2.71,2.71,0,0,0,4.13-.93,7.88,7.88,0,0,0,.68-2.06A2.51,2.51,0,0,0,2063.23,2415.35Zm6.82-72.24,0.47-.07c1.3-.24,1.66-0.75,1.46-2-0.17-1.11-.37-2.21-0.55-3.32a1.48,1.48,0,0,0-1.76-1.38,2.56,2.56,0,0,0-2.08,1.29,4.23,4.23,0,0,0,0,4.1A2.5,2.5,0,0,0,2070,2343.11Z" transform="translate(-2025.99 -2330.06)"/><path class="cls-1" d="M2052.06,2402.54c-0.24.76-.6,1.3-1.33,1.08a1.21,1.21,0,0,1-.73-0.86,5.64,5.64,0,0,1,.89-1.48l-1.62-2a2.19,2.19,0,0,1-.29,1,2.77,2.77,0,0,1-1.12.3,19.18,19.18,0,0,0-.81-2.21,1.63,1.63,0,0,0-2-.93,1.85,1.85,0,0,0-1.46,1.86c0,1.12.21,2.25,0.22,3.37a3.5,3.5,0,0,1-4.71,3.19,5.14,5.14,0,0,1-3-4.73l1.45-.3a19,19,0,0,0,.55,2.06,2.16,2.16,0,0,0,2.41,1.53,2.08,2.08,0,0,0,1.6-2.32,9.06,9.06,0,0,0-.19-1.9,3.54,3.54,0,0,1,5.37-3.88,33.12,33.12,0,0,1-3.53-24.85,32.36,32.36,0,0,1,14.61-20.21,33.34,33.34,0,0,1,46.11,45.72,7.4,7.4,0,0,1,.91,1.47,1,1,0,0,1-.57.79,6.37,6.37,0,0,1-1.66-.31,34.06,34.06,0,0,1-12.78,10.72,3.13,3.13,0,0,1,2.7,1.81c0.55,1.18.07,2.17-.69,3.21a3.23,3.23,0,0,1,3.49,1.66,3.44,3.44,0,0,1-1.33,4.88c-1.35.79-2.85,1.34-4.39,2l-4.88-11.76a33.92,33.92,0,0,1-13.41,1c-0.22,1.53-.43,3-0.63,4.45s-0.42,3.2-.61,4.8c-0.15,1.28,0,1.58,1.2,2.2l-0.14,1.2a2.44,2.44,0,0,1-2.76-2.91c0.19-1.76.44-3.5,0.67-5.25,0.2-1.54.41-3.08,0.64-4.73A33.78,33.78,0,0,1,2052.06,2402.54Zm-7.68-22.54a31.72,31.72,0,1,0,31-32.24A31.73,31.73,0,0,0,2044.39,2380Zm46.83,41.2c1.43-.54,3-0.77,3.39-2.48a2.39,2.39,0,0,0-1.1-2.61c-1.49-.89-2.74.13-4.12,0.67Zm-2.29-5.56a20.61,20.61,0,0,0,2.21-1.16,1.68,1.68,0,0,0,.46-2.2,1.45,1.45,0,0,0-1.84-.93c-0.77.2-1.5,0.53-2.28,0.82Z" transform="translate(-2025.99 -2330.06)"/><path class="cls-1" d="M2050.84,2408c2.31-.31,3.63.54,4.24,2.48a13.86,13.86,0,0,1,2.82.87,2.53,2.53,0,0,1,1,3.76c-1.13,1.9-2.41,3.72-3.64,5.61l-1.37-.91,1.14-1.75c0.75-1.14,1.55-2.26,2.25-3.44a1.7,1.7,0,0,0-.62-2.52,1.78,1.78,0,0,0-2.5.63l-3.2,4.78a2.55,2.55,0,0,1-.2.21l-1.31-.87c1-1.56,2-3.12,3.06-4.58,1.19-1.63.85-2.28-.15-3s-2.08-.29-2.93,1l-3.05,4.58-1.36-.9,5-7.58C2051,2406.83,2051,2406.83,2050.84,2408Z" transform="translate(-2025.99 -2330.06)"/><path class="cls-1" d="M2064.45,2340.85l-6.05,2.54a2.88,2.88,0,0,0,2.15,2.06c1.56,0.28,2.67-.53,3.61-1.77l1.07,0.81a5.41,5.41,0,0,1-4.37,2.49,4.07,4.07,0,0,1-3.82-2.38,4.92,4.92,0,0,1-.25-4.8,4.57,4.57,0,0,1,4.5-2.33C2062.84,2337.69,2064,2338.89,2064.45,2340.85Zm-6.53,1.43,4.63-1.93a2.15,2.15,0,0,0-2.77-1.34A2.6,2.6,0,0,0,2057.92,2342.29Z" transform="translate(-2025.99 -2330.06)"/><path class="cls-1" d="M2116.26,2389.54a2.89,2.89,0,0,0,2.93-.64c0.89-.87,1-2.14.5-4l1.06-.41c1.48,2,.37,5.56-2,6.55-2.84,1.18-7.32-.73-6.89-4.68a3.84,3.84,0,0,1,5.6-3.25Zm-1.15-.27,0.91-4.86a2.2,2.2,0,0,0-2.77,1.78A2.48,2.48,0,0,0,2115.12,2389.28Z" transform="translate(-2025.99 -2330.06)"/><path class="cls-1" d="M2096.78,2343.25c1-1.9-.31-3.26-3.18-3.21v-1.33a4.85,4.85,0,0,1,5,2.24,3.29,3.29,0,0,1-.21,2.82c-0.47,1-1.06,2-1.47,3a10,10,0,0,0-.34,1.9c-0.05.28-.15,0.54-0.22,0.81l-0.29.12-1.42-1.76a18.09,18.09,0,0,1-2.83-.57,2.47,2.47,0,0,1-1.61-2.6,2.75,2.75,0,0,1,2-2.49A4.9,4.9,0,0,1,2096.78,2343.25Zm-0.51,1.15c-1.06-.86-2.14-1.37-3.34-0.81a2.19,2.19,0,0,0-1.09,1.39,1.81,1.81,0,0,0,.82,1.33,2,2,0,0,0,3.11-.89Z" transform="translate(-2025.99 -2330.06)"/><path class="cls-1" d="M2099.15,2408l1.31-1,5.38,7.44-1.28.94-0.67-.77c-0.11.36-.19,0.69-0.32,1-1,2.55-3.83,3-5.49.79-1.23-1.62-2.4-3.29-3.65-5l1.31-1,2.1,2.9c0.45,0.62.88,1.24,1.34,1.85,0.91,1.21,1.77,1.4,2.78.64a2.23,2.23,0,0,0,.54-3.18Z" transform="translate(-2025.99 -2330.06)"/><path class="cls-1" d="M2042.22,2367.56l-0.61,1.4-8.29-3.6a1,1,0,0,1,1.28-1.06,10.47,10.47,0,0,1,0-2.63,2.59,2.59,0,0,1,3.66-2c2.08,0.73,4.09,1.68,6.2,2.56l-0.64,1.53c-1.37-.59-2.69-1.17-4-1.73a14.78,14.78,0,0,0-2-.77,1.61,1.61,0,0,0-2.08,1.27,1.91,1.91,0,0,0,.91,2.45l5.43,2.38A1.15,1.15,0,0,1,2042.22,2367.56Z" transform="translate(-2025.99 -2330.06)"/><path class="cls-1" d="M2117.17,2399.75l-0.67,1.5-8.3-3.65c0-1.08.71-1.16,1.57-1a3.47,3.47,0,0,1,0-3.08,2.57,2.57,0,0,1,3.36-1.58c2.14,0.76,4.21,1.71,6.39,2.62l-0.68,1.54c-1.29-.57-2.53-1.12-3.77-1.65a19.59,19.59,0,0,0-2.39-.9,1.6,1.6,0,0,0-2,1.27,1.9,1.9,0,0,0,.83,2.42Z" transform="translate(-2025.99 -2330.06)"/><path class="cls-1" d="M2041.68,2350.48l1.32-1.36,2.43,2.37c0.63,0.62,1.23,1.26,1.87,1.87,1,0.95,1.84,1,2.71.1a2.15,2.15,0,0,0,.17-3.15c-1.39-1.32-2.83-2.59-4.39-4l1.43-1.1,6.55,6.24-1.4,1.06-0.6-.55c-0.09.44-.14,0.84-0.25,1.22a3,3,0,0,1-5.18,1.52c-0.23-.2-0.43-0.44-0.65-0.64Z" transform="translate(-2025.99 -2330.06)"/><path class="cls-1" d="M2107.33,2412.37l-0.71-1.36c0.57-.26,1.11-0.46,1.59-0.74a1.6,1.6,0,0,0,.91-1.87,1.49,1.49,0,0,0-2-.64c-0.69.23-1.36,0.54-2.06,0.74a2.43,2.43,0,0,1-2.76-.91,2.33,2.33,0,0,1,.06-2.74,4.85,4.85,0,0,1,2.75-2.06l0.69,1.16a10.81,10.81,0,0,0-1.6.86,1.23,1.23,0,0,0-.55,1.65,1.27,1.27,0,0,0,1.7.39c0.8-.29,1.58-0.63,2.4-0.86a2.37,2.37,0,0,1,2.51.94,2.26,2.26,0,0,1,.36,2.48A5.3,5.3,0,0,1,2107.33,2412.37Z" transform="translate(-2025.99 -2330.06)"/><path class="cls-1" d="M2112.86,2376.27l1.56,0.42a12.47,12.47,0,0,0-.54,1.77,1.22,1.22,0,0,0,.77,1.56,1.27,1.27,0,0,0,1.49-.92c0.27-.58.51-1.17,0.81-1.73a2.58,2.58,0,0,1,2.91-1.54,2.53,2.53,0,0,1,2.09,2.33,5.37,5.37,0,0,1-.59,3.58l-1.49-.53c0.25-.54.5-1,0.67-1.47a1.59,1.59,0,0,0-.64-2.13c-0.71-.28-1.38.08-1.88,1-0.31.59-.56,1.22-0.9,1.79a2.51,2.51,0,0,1-2.85,1.3,2.32,2.32,0,0,1-1.68-2.25A25.13,25.13,0,0,1,2112.86,2376.27Z" transform="translate(-2025.99 -2330.06)"/><path class="cls-1" d="M2111.84,2370l1.48,0.11a8.16,8.16,0,0,0-.15,2.1,1.56,1.56,0,0,0,1,1.09,1.63,1.63,0,0,0,1.19-.83,11,11,0,0,0,.58-2,2.64,2.64,0,0,1,5.2,0,4.93,4.93,0,0,1-.09,3.4l-1.46-.25a15.36,15.36,0,0,0,.36-2,1.31,1.31,0,0,0-1-1.54,1.33,1.33,0,0,0-1.59,1c-0.22.63-.36,1.29-0.56,1.92a2.69,2.69,0,0,1-2.56,2.11,2.61,2.61,0,0,1-2.34-2.43A20.57,20.57,0,0,1,2111.84,2370Z" transform="translate(-2025.99 -2330.06)"/><path class="cls-1" d="M2041.59,2353.58a13.23,13.23,0,0,0-1.49,1.14,1.19,1.19,0,0,0-.27,1.65,1.23,1.23,0,0,0,1.67.17c0.75-.39,1.47-0.86,2.26-1.19a2.4,2.4,0,0,1,2.7.57,2.14,2.14,0,0,1,.62,2.57,13.15,13.15,0,0,1-1.67,2.45,4.48,4.48,0,0,1-1.08.73l-0.94-1.33a5.81,5.81,0,0,0,.89-0.49,3.87,3.87,0,0,0,1.15-1.12,1.58,1.58,0,0,0-.05-1.39,1.54,1.54,0,0,0-1.35-.38,15.17,15.17,0,0,0-2.21,1.07,2.57,2.57,0,0,1-3.19-.41,2.46,2.46,0,0,1,0-3.13,19.84,19.84,0,0,1,2-2.13Z" transform="translate(-2025.99 -2330.06)"/><path class="cls-1" d="M2081.94,2344.39l-2.37-9.78c1.48-.19,1.7,0,2,1.26l1.13,5.55,2.84-4.89c0.69-1.19.69-1.19,2.23-.67l-5.44,8.57Z" transform="translate(-2025.99 -2330.06)"/><path class="cls-1" d="M2050.81,2342.47l0.78,1.06a3.18,3.18,0,0,1,2.45-3.18l0.32,1.52a2.28,2.28,0,0,0-1.43,3.71c0.92,1.5,1.92,2.95,2.94,4.49l-1.36.91-5-7.62Z" transform="translate(-2025.99 -2330.06)"/><path class="cls-1" d="M2114.58,2404.17l-0.89,1.38-6.46-4.28-0.77,1-1.09-.72,1.6-2.41Z" transform="translate(-2025.99 -2330.06)"/><path class="cls-1" d="M2088.59,2336.21l2.74,0.89-2.79,8.68-1.57-.44,2.37-7.37-1.13-.47Z" transform="translate(-2025.99 -2330.06)"/><path class="cls-1" d="M2042.73,2411.19c-0.16-.23-0.25-0.38-0.37-0.53s-0.38-.46-0.62-0.74l5.76-5.27-0.78-.92,1-.9,1.92,2.08Z" transform="translate(-2025.99 -2330.06)"/><path class="cls-1" d="M2036.76,2386.1a1.51,1.51,0,0,1-1.55,1.57,1.65,1.65,0,0,1-1.57-1.7,1.53,1.53,0,0,1,1.55-1.57A1.66,1.66,0,0,1,2036.76,2386.1Z" transform="translate(-2025.99 -2330.06)"/><path class="cls-1" d="M2109.2,2357.58a1.64,1.64,0,0,1-1.59-1.65,1.53,1.53,0,0,1,1.56-1.64,1.75,1.75,0,0,1,1.57,1.71A1.56,1.56,0,0,1,2109.2,2357.58Z" transform="translate(-2025.99 -2330.06)"/><path class="cls-1" d="M2075.14,2381.29c-4.48-.9-8.62,0-12.67,1.58a15.42,15.42,0,0,1-9.37,1c-2-.48-3.68-1.47-4.22-3.68a4.47,4.47,0,0,1,.52-3.44,14.32,14.32,0,0,1,2.53-3.31,18.36,18.36,0,0,1,13.9-4.88c2.81,0.2,5,1.37,6,4.27,0.88,2.55,2,5,3,7.53C2074.92,2380.65,2075,2380.93,2075.14,2381.29Z" transform="translate(-2025.99 -2330.06)"/><path class="cls-1" d="M2051.89,2387.82c4.54,0.91,8.67,0,12.73-1.58a15.35,15.35,0,0,1,9.38-1c2.13,0.52,3.84,1.6,4.25,4a5.4,5.4,0,0,1-.82,3.67,14.13,14.13,0,0,1-5.94,5.38,17.23,17.23,0,0,1-11.44,2.1,5.66,5.66,0,0,1-4.62-3.79C2054.35,2393.67,2053.11,2390.83,2051.89,2387.82Z" transform="translate(-2025.99 -2330.06)"/><path class="cls-1" d="M2078.45,2380.42c5.1-1.87,10.06-3.79,15.09-5.48a10.47,10.47,0,0,1,6.14.05c3.7,1,5,4.22,3.13,7.54s-4.87,5.14-8.25,6.47a15.55,15.55,0,0,1-9.57,1,5.52,5.52,0,0,1-4.19-3.67C2080.12,2384.39,2079.31,2382.56,2078.45,2380.42Z" transform="translate(-2025.99 -2330.06)"/><path class="cls-1" d="M2077,2376.91c-0.91-2.28-1.88-4.51-2.69-6.79a4.85,4.85,0,0,1,.61-4,14.36,14.36,0,0,1,6.43-5.75,17.39,17.39,0,0,1,10.49-2l0.27,0c4.67,0.83,6.25,4.52,3.6,8.44a14.85,14.85,0,0,1-6.74,5.27c-3.83,1.63-7.7,3.16-11.56,4.73C2077.3,2376.83,2077.19,2376.86,2077,2376.91Z" transform="translate(-2025.99 -2330.06)"/></g></svg>