<svg id="Layer_1" data-name="Layer 1" xmlns="http://www.w3.org/2000/svg" viewBox="0 0 214 100"><defs><style>.cls-1{fill:#fff;}.cls-2{fill:#47423e;}</style></defs><title>environment-agency</title><path class="cls-1" d="M837-1207.68a3.94,3.94,0,0,0,1.93-.53,2.64,2.64,0,0,0,.44-1.89v-12A2.81,2.81,0,0,0,839-1224a3.2,3.2,0,0,0-1.94-.55v-0.5h14.32l0.09,3.86h-0.68a3.83,3.83,0,0,0-1-2.31,5.72,5.72,0,0,0-3.05-.52H843a0.94,0.94,0,0,0-.73.19,1.31,1.31,0,0,0-.14.72v6h4.16a3.17,3.17,0,0,0,2.2-.51,4.39,4.39,0,0,0,.76-2.07h0.63v6.23h-0.63a4.47,4.47,0,0,0-.78-2.07,3.17,3.17,0,0,0-2.18-.51h-4.16v6.67a0.84,0.84,0,0,0,.51.95,17.15,17.15,0,0,0,3,.14,10.27,10.27,0,0,0,4-.6,5.48,5.48,0,0,0,2.34-2.9h0.75l-1.22,4.55H837v-0.5Z" transform="translate(-770.92 1231.58)"/><path class="cls-1" d="M854.18-1207.55a2.36,2.36,0,0,0,1.31-.47,2.22,2.22,0,0,0,.38-1.56v-6.69a3.05,3.05,0,0,0-.16-1.18,1,1,0,0,0-1-.5h-0.24l-0.31,0v-0.46q0.54-.16,2.55-0.82l1.24-.41a0.1,0.1,0,0,1,.11.06,0.62,0.62,0,0,1,0,.19v1.94a13.3,13.3,0,0,1,1.89-1.55,3.94,3.94,0,0,1,2.13-.65,2.77,2.77,0,0,1,1.63.51q1.42,1,1.42,3.57v6.14a2,2,0,0,0,.38,1.37,1.67,1.67,0,0,0,1.27.43v0.37h-5.62v-0.37a2.26,2.26,0,0,0,1.34-.53,2.71,2.71,0,0,0,.38-1.74v-5.62a3.8,3.8,0,0,0-.42-1.88,1.62,1.62,0,0,0-1.54-.74,2.86,2.86,0,0,0-1.57.53,9,9,0,0,0-1.15,1v7.37a1.54,1.54,0,0,0,.42,1.27,2.31,2.31,0,0,0,1.33.35v0.37h-5.75v-0.37Z" transform="translate(-770.92 1231.58)"/><path class="cls-1" d="M873.47-1219.4v0.41a3.53,3.53,0,0,0-1,.21,0.57,0.57,0,0,0-.28.58,1.37,1.37,0,0,0,.06.4c0,0.13.11,0.31,0.21,0.56l2.76,6.61,2.34-5.84q0.17-.43.32-0.91a2.66,2.66,0,0,0,.15-0.72,0.76,0.76,0,0,0-.49-0.74,2.73,2.73,0,0,0-.79-0.16v-0.41h3.74v0.41a1.23,1.23,0,0,0-.93.43,9,9,0,0,0-.82,1.73l-3.8,9.48a1.93,1.93,0,0,1-.17.34,0.21,0.21,0,0,1-.18.09,0.27,0.27,0,0,1-.23-0.15c-0.06-.1-0.13-0.23-0.2-0.37l-4-9.63a3.83,3.83,0,0,0-1-1.59,2.08,2.08,0,0,0-1-.32v-0.41h5.3Z" transform="translate(-770.92 1231.58)"/><path class="cls-1" d="M882.19-1207.55A3.34,3.34,0,0,0,884-1208a3,3,0,0,0,.37-1.89v-6.28a4,4,0,0,0-.12-1.18,0.8,0.8,0,0,0-.83-0.54l-0.28,0-0.8.21v-0.41l0.57-.18q2.3-.75,3.21-1.13a1.68,1.68,0,0,1,.47-0.16,0.68,0.68,0,0,1,0,.2v9.45A3.06,3.06,0,0,0,887-1208a2.69,2.69,0,0,0,1.64.49v0.37h-6.4v-0.37Zm2.09-17.6a1.3,1.3,0,0,1,1-.41,1.32,1.32,0,0,1,1,.4,1.33,1.33,0,0,1,.4,1,1.32,1.32,0,0,1-.4,1,1.32,1.32,0,0,1-1,.4,1.31,1.31,0,0,1-1-.4,1.32,1.32,0,0,1-.4-1A1.34,1.34,0,0,1,884.29-1225.14Z" transform="translate(-770.92 1231.58)"/><path class="cls-1" d="M889.78-1207.61a3.18,3.18,0,0,0,1.61-.43,1.76,1.76,0,0,0,.4-1.38v-5.93a5.06,5.06,0,0,0-.24-1.86,0.89,0.89,0,0,0-.89-0.56l-0.35,0-0.45.09v-0.43l1.53-.54,1.09-.39c0.44-.17.89-0.36,1.35-0.57a0.1,0.1,0,0,1,.11.06,1.08,1.08,0,0,1,0,.28v2.16a10,10,0,0,1,1.63-1.83,2.51,2.51,0,0,1,1.63-.66,1.52,1.52,0,0,1,1.09.4,1.33,1.33,0,0,1,.42,1,1.32,1.32,0,0,1-.32.91,1,1,0,0,1-.81.37,1.52,1.52,0,0,1-1-.46,1.42,1.42,0,0,0-.79-0.46,1.81,1.81,0,0,0-1.13.74,2.3,2.3,0,0,0-.67,1.53v5.93a2,2,0,0,0,.53,1.57,2.64,2.64,0,0,0,1.75.42v0.43h-6.49v-0.43Z" transform="translate(-770.92 1231.58)"/><path class="cls-1" d="M901.5-1217.71a5.56,5.56,0,0,1,4.28-1.81,5.86,5.86,0,0,1,4.32,1.71,6.16,6.16,0,0,1,1.71,4.55,6.77,6.77,0,0,1-1.66,4.55,5.39,5.39,0,0,1-4.29,1.94,5.66,5.66,0,0,1-4.28-1.86,6.52,6.52,0,0,1-1.75-4.66A6.31,6.31,0,0,1,901.5-1217.71Zm2.1-.34q-1.32,1.2-1.32,4.13a9.32,9.32,0,0,0,1.06,4.37,3.25,3.25,0,0,0,2.95,2,2.51,2.51,0,0,0,2.28-1.35,7,7,0,0,0,.8-3.55,9.39,9.39,0,0,0-1-4.29,3.18,3.18,0,0,0-2.94-2A2.62,2.62,0,0,0,903.6-1218Z" transform="translate(-770.92 1231.58)"/><path class="cls-1" d="M913.63-1207.55a2.35,2.35,0,0,0,1.31-.47,2.21,2.21,0,0,0,.38-1.56v-6.69a3.09,3.09,0,0,0-.16-1.18,1,1,0,0,0-1-.5h-0.24l-0.31,0v-0.46q0.54-.16,2.55-0.82l1.23-.41a0.1,0.1,0,0,1,.11.06,0.61,0.61,0,0,1,0,.19v1.94a13.2,13.2,0,0,1,1.89-1.55,3.94,3.94,0,0,1,2.13-.65,2.77,2.77,0,0,1,1.63.51q1.42,1,1.42,3.57v6.14a2,2,0,0,0,.38,1.37,1.67,1.67,0,0,0,1.27.43v0.37h-5.62v-0.37a2.26,2.26,0,0,0,1.34-.53,2.7,2.7,0,0,0,.38-1.74v-5.62a3.8,3.8,0,0,0-.42-1.88,1.61,1.61,0,0,0-1.54-.74,2.86,2.86,0,0,0-1.57.53,9,9,0,0,0-1.15,1v7.37a1.53,1.53,0,0,0,.42,1.27,2.3,2.3,0,0,0,1.33.35v0.37h-5.75v-0.37Z" transform="translate(-770.92 1231.58)"/><path class="cls-1" d="M927.56-1207.52a3,3,0,0,0,1.37-.34,1.8,1.8,0,0,0,.53-1.53v-6.8a2.11,2.11,0,0,0-.26-1.28,1.05,1.05,0,0,0-.85-0.3,2.23,2.23,0,0,0-.41,0l-0.32.09v-0.46l0.95-.32q0.51-.17,1.69-0.62t1.23-.45a0.08,0.08,0,0,1,.08.07,1.82,1.82,0,0,1,0,.25v1.78a10.09,10.09,0,0,1,2.25-1.64,4.48,4.48,0,0,1,1.95-.45,2.73,2.73,0,0,1,2.16.92,4,4,0,0,1,.7,1.36,10.94,10.94,0,0,1,1.7-1.46,4.61,4.61,0,0,1,2.55-.82,2.76,2.76,0,0,1,2.83,1.72,8.58,8.58,0,0,1,.41,3.08v5.46a1.57,1.57,0,0,0,.42,1.27,2.91,2.91,0,0,0,1.49.44v0.34h-5.93v-0.37a2.61,2.61,0,0,0,1.51-.46,2.08,2.08,0,0,0,.36-1.45v-5.67a4.78,4.78,0,0,0-.28-1.88,1.88,1.88,0,0,0-1.91-1.08,3,3,0,0,0-1.7.57,8.69,8.69,0,0,0-1.2,1.05v6.74a2.87,2.87,0,0,0,.38,1.62,1.89,1.89,0,0,0,1.58.59v0.34h-6v-0.34a2.39,2.39,0,0,0,1.59-.6,4.33,4.33,0,0,0,.34-2.21V-1214a9.88,9.88,0,0,0-.26-2.78,1.77,1.77,0,0,0-1.84-1.29,3.14,3.14,0,0,0-1.58.44,4.94,4.94,0,0,0-1.37,1.15v7.2a2.06,2.06,0,0,0,.35,1.38,2.14,2.14,0,0,0,1.52.39v0.34h-6v-0.34Z" transform="translate(-770.92 1231.58)"/><path class="cls-1" d="M958-1218.24a4.7,4.7,0,0,1,1.39,3.64h-8.36a7,7,0,0,0,1.38,4.44,3.86,3.86,0,0,0,3,1.39,3.72,3.72,0,0,0,2.33-.72,7.23,7.23,0,0,0,1.75-2l0.46,0.16a7.47,7.47,0,0,1-2,3.1,5,5,0,0,1-3.63,1.42,4.44,4.44,0,0,1-3.82-1.87,7.18,7.18,0,0,1-1.35-4.3,7,7,0,0,1,1.57-4.57,5,5,0,0,1,4.08-1.92A4.66,4.66,0,0,1,958-1218.24Zm-6.3,1a5.18,5.18,0,0,0-.61,1.79h5.55a5.46,5.46,0,0,0-.5-2,2.27,2.27,0,0,0-2.16-1.16A2.51,2.51,0,0,0,951.72-1217.23Z" transform="translate(-770.92 1231.58)"/><path class="cls-1" d="M961.57-1207.55a2.36,2.36,0,0,0,1.31-.47,2.23,2.23,0,0,0,.37-1.56v-6.69a3,3,0,0,0-.16-1.18,1,1,0,0,0-1-.5h-0.24l-0.31,0v-0.46q0.54-.16,2.55-0.82l1.24-.41a0.1,0.1,0,0,1,.11.06,0.63,0.63,0,0,1,0,.19v1.94a13.39,13.39,0,0,1,1.89-1.55,3.93,3.93,0,0,1,2.13-.65,2.78,2.78,0,0,1,1.63.51q1.42,1,1.42,3.57v6.14a2,2,0,0,0,.38,1.37,1.67,1.67,0,0,0,1.26.43v0.37h-5.62v-0.37a2.27,2.27,0,0,0,1.34-.53,2.72,2.72,0,0,0,.38-1.74v-5.62a3.8,3.8,0,0,0-.42-1.88,1.62,1.62,0,0,0-1.55-.74,2.86,2.86,0,0,0-1.57.53,9,9,0,0,0-1.15,1v7.37a1.54,1.54,0,0,0,.42,1.27,2.31,2.31,0,0,0,1.33.35v0.37h-5.75v-0.37Z" transform="translate(-770.92 1231.58)"/><path class="cls-1" d="M981.92-1219.31v0.95h-2.68l0,7.58a5,5,0,0,0,.17,1.51,1.22,1.22,0,0,0,1.24.91,1.49,1.49,0,0,0,.82-0.22,4.44,4.44,0,0,0,.8-0.71l0.34,0.29-0.29.39a4.22,4.22,0,0,1-1.45,1.3,3.3,3.3,0,0,1-1.47.38,2.07,2.07,0,0,1-2.11-1.38,5.66,5.66,0,0,1-.3-2.08v-8h-1.43a0.36,0.36,0,0,1-.1-0.08,0.15,0.15,0,0,1,0-.1,0.33,0.33,0,0,1,.06-0.2,4.27,4.27,0,0,1,.38-0.34,11.23,11.23,0,0,0,1.31-1.22q0.4-.47,1.89-2.47a0.42,0.42,0,0,1,.2,0,0.32,0.32,0,0,1,0,.2v3.24h2.66Z" transform="translate(-770.92 1231.58)"/><path class="cls-1" d="M837.11-1183.27v-0.49a2.16,2.16,0,0,0,1.54-.77,21.41,21.41,0,0,0,1.76-3.59l5.53-13h0.53l6.62,15.06a6.42,6.42,0,0,0,1.06,1.85,2.54,2.54,0,0,0,1.33.48v0.49h-6.76v-0.49a6,6,0,0,0,1.5-.25,0.71,0.71,0,0,0,.34-0.73,3.13,3.13,0,0,0-.13-0.68,7.47,7.47,0,0,0-.36-1L849-1189h-7c-0.69,1.73-1.1,2.8-1.24,3.18a3,3,0,0,0-.2.91,0.94,0.94,0,0,0,.54.93,4.33,4.33,0,0,0,1.27.23v0.49h-5.27Zm11.44-6.82-3-7.32-3.06,7.32h6.1Z" transform="translate(-770.92 1231.58)"/><path class="cls-1" d="M858.36-1189a4,4,0,0,1-.65-2.25,4.29,4.29,0,0,1,1.21-2.88,4.32,4.32,0,0,1,3.41-1.36,5.81,5.81,0,0,1,2.09.45,6,6,0,0,0,2.19.45l0.82,0,0.8,0h0.16v1.05h-2.24c0.16,0.36.28,0.68,0.36,0.95a5.08,5.08,0,0,1,.22,1.42,3.8,3.8,0,0,1-1.23,2.72,4.43,4.43,0,0,1-3.3,1.24,9.43,9.43,0,0,1-1.17-.12,1.71,1.71,0,0,0-1,.64,1.74,1.74,0,0,0-.62,1c0,0.28.3,0.48,0.91,0.61a6.09,6.09,0,0,0,1.33.13,17.78,17.78,0,0,1,4.53.37,2.52,2.52,0,0,1,2,2.62,3.66,3.66,0,0,1-2.29,3.27,9.77,9.77,0,0,1-4.63,1.22,5.84,5.84,0,0,1-3.37-.86,2.34,2.34,0,0,1-1.25-1.81,1.53,1.53,0,0,1,.33-0.92,11,11,0,0,1,1.3-1.33l0.85-.76,0.15-.16a4.07,4.07,0,0,1-.89-0.45,1.17,1.17,0,0,1-.52-0.92,1.8,1.8,0,0,1,.45-1.06,17.24,17.24,0,0,1,1.91-1.88A3.41,3.41,0,0,1,858.36-1189Zm1.38,9.65a8.83,8.83,0,0,0,2.81.42,7.21,7.21,0,0,0,3.5-.75,2.15,2.15,0,0,0,1.35-1.83,1.2,1.2,0,0,0-1.09-1.15,13.22,13.22,0,0,0-2.56-.2l-1,0-1,0c-0.19,0-.5,0-0.92-0.1s-0.74-.11-0.95-0.16a2.33,2.33,0,0,0-.76.82,2.66,2.66,0,0,0-.62,1.53A1.54,1.54,0,0,0,859.74-1179.36Zm4.12-8.92a2.63,2.63,0,0,0,.78-2.17,7.45,7.45,0,0,0-.63-2.77,2.16,2.16,0,0,0-2.1-1.55,1.75,1.75,0,0,0-1.75,1.2,4.37,4.37,0,0,0-.25,1.57,5.35,5.35,0,0,0,.77,2.84,2.27,2.27,0,0,0,2,1.26A1.83,1.83,0,0,0,863.86-1188.27Z" transform="translate(-770.92 1231.58)"/><path class="cls-1" d="M878.48-1194.17a4.64,4.64,0,0,1,1.38,3.59h-8.24a6.9,6.9,0,0,0,1.36,4.37,3.79,3.79,0,0,0,2.92,1.37,3.66,3.66,0,0,0,2.3-.71,7.12,7.12,0,0,0,1.72-2l0.46,0.16a7.42,7.42,0,0,1-2,3.05,5,5,0,0,1-3.58,1.4,4.37,4.37,0,0,1-3.77-1.84,7.05,7.05,0,0,1-1.33-4.24,6.91,6.91,0,0,1,1.54-4.5,4.94,4.94,0,0,1,4-1.89A4.6,4.6,0,0,1,878.48-1194.17Zm-6.21,1a5.16,5.16,0,0,0-.6,1.76h5.47a5.37,5.37,0,0,0-.49-1.94,2.24,2.24,0,0,0-2.13-1.14A2.48,2.48,0,0,0,872.27-1193.18Z" transform="translate(-770.92 1231.58)"/><path class="cls-1" d="M881.47-1183.63a2.35,2.35,0,0,0,1.29-.46,2.21,2.21,0,0,0,.37-1.54v-6.59a3,3,0,0,0-.16-1.16,1,1,0,0,0-1-.49h-0.24l-0.3,0v-0.45c0.35-.1,1.19-0.37,2.52-0.8l1.22-.4a0.1,0.1,0,0,1,.11.06,0.58,0.58,0,0,1,0,.18v1.91a13.16,13.16,0,0,1,1.86-1.53,3.87,3.87,0,0,1,2.1-.64,2.74,2.74,0,0,1,1.61.51,4,4,0,0,1,1.4,3.52v6.06a2,2,0,0,0,.37,1.35,1.63,1.63,0,0,0,1.25.43v0.36h-5.54v-0.36a2.2,2.2,0,0,0,1.32-.53,2.66,2.66,0,0,0,.38-1.72v-5.54a3.7,3.7,0,0,0-.42-1.85,1.59,1.59,0,0,0-1.52-.73,2.79,2.79,0,0,0-1.55.52,8.5,8.5,0,0,0-1.13,1v7.27a1.5,1.5,0,0,0,.42,1.25,2.28,2.28,0,0,0,1.31.34v0.36h-5.67v-0.36Z" transform="translate(-770.92 1231.58)"/><path class="cls-1" d="M903.67-1194.66a2.3,2.3,0,0,1,1.18,1.83,1.24,1.24,0,0,1-.3.8,1.11,1.11,0,0,1-.92.37,1.16,1.16,0,0,1-.8-0.31,1.83,1.83,0,0,1-.5-0.91l-0.16-.62a1.59,1.59,0,0,0-.59-1,2.07,2.07,0,0,0-1.13-.27,3.07,3.07,0,0,0-2.5,1.29,5.39,5.39,0,0,0-1,3.44,5.86,5.86,0,0,0,1.12,3.52,3.54,3.54,0,0,0,3,1.56,3.62,3.62,0,0,0,2.4-.88,8.56,8.56,0,0,0,1.35-1.61l0.36,0.22a10.29,10.29,0,0,1-1.56,2.47A4.77,4.77,0,0,1,900-1183a4.86,4.86,0,0,1-3.58-1.59,5.94,5.94,0,0,1-1.56-4.33,6.77,6.77,0,0,1,1.7-4.62,5.48,5.48,0,0,1,4.3-1.93A4.69,4.69,0,0,1,903.67-1194.66Z" transform="translate(-770.92 1231.58)"/><path class="cls-1" d="M906.43-1195.19h5.48v0.36a3.67,3.67,0,0,0-1,.12,0.69,0.69,0,0,0-.6.68,1.23,1.23,0,0,0,.06.38q0.07,0.19.23,0.58l3,6.49,2.47-6.55c0-.07.07-0.23,0.13-0.48a2.78,2.78,0,0,0,.08-0.5,0.56,0.56,0,0,0-.23-0.5,1.15,1.15,0,0,0-.6-0.19l-0.4,0v-0.36h3.57v0.36a1.2,1.2,0,0,0-.8.38,2.63,2.63,0,0,0-.46.86l-4.09,10.82a16.48,16.48,0,0,1-2,4.06,3,3,0,0,1-2.47,1.26,2.72,2.72,0,0,1-1.36-.36,1.23,1.23,0,0,1-.63-1.16,1.08,1.08,0,0,1,.38-0.85,1.4,1.4,0,0,1,1-.33,3.18,3.18,0,0,1,1,.24,3.15,3.15,0,0,0,.94.25q0.72,0,1.51-1.76a7.69,7.69,0,0,0,.8-2.33,1.55,1.55,0,0,0,0-.28,2.13,2.13,0,0,0-.09-0.29l-4.09-8.84a4.24,4.24,0,0,0-.77-1.27,1.79,1.79,0,0,0-1-.4v-0.36Z" transform="translate(-770.92 1231.58)"/><rect class="cls-1" y="67.73" width="214" height="32.27"/><path class="cls-2" d="M791.47-1153.94v0.36a3,3,0,0,0-.81.1,0.58,0.58,0,0,0-.43.57,1.34,1.34,0,0,0,.05.36c0,0.11.09,0.27,0.15,0.45l2.75,7.14,2-5.32-0.89-2.32a1.42,1.42,0,0,0-.75-0.85,2.44,2.44,0,0,0-.9-0.14v-0.36h5.08v0.36a3.48,3.48,0,0,0-1,.1,0.62,0.62,0,0,0-.43.65,1,1,0,0,0,0,.29c0,0.08.09,0.26,0.19,0.52l2.74,7.12,2.37-6.44a5.69,5.69,0,0,0,.28-1,2.33,2.33,0,0,0,0-.39,0.74,0.74,0,0,0-.5-0.73,2.36,2.36,0,0,0-.83-0.14v-0.36h3.77v0.36a2.19,2.19,0,0,0-.78.23,1.66,1.66,0,0,0-.72.93l-2,5.66-0.77,2.18-1.2,3.43h-0.29l-0.83-2.17-2.2-5.85-2.91,8h-0.29l-1.41-3.93-1.6-4.45a23.53,23.53,0,0,0-1.38-3.37,1.44,1.44,0,0,0-1.23-.67v-0.36h4.65Z" transform="translate(-770.92 1231.58)"/><path class="cls-2" d="M805.54-1145.47a20.34,20.34,0,0,1,3.4-1.51v-0.79a3.26,3.26,0,0,0-.19-1.32,1.32,1.32,0,0,0-1.31-.62,1.81,1.81,0,0,0-.9.24,0.77,0.77,0,0,0-.43.69,2.4,2.4,0,0,0,0,.37,2.55,2.55,0,0,1,0,.34,0.76,0.76,0,0,1-.34.72,0.85,0.85,0,0,1-.46.12,0.78,0.78,0,0,1-.64-0.27,0.93,0.93,0,0,1-.22-0.6,1.93,1.93,0,0,1,.8-1.36,3.45,3.45,0,0,1,2.35-.71,2.52,2.52,0,0,1,2.44,1.17,4,4,0,0,1,.34,1.86v3.71a2.47,2.47,0,0,0,.07.74,0.48,0.48,0,0,0,.5.36,0.81,0.81,0,0,0,.35-0.07,3.69,3.69,0,0,0,.48-0.32v0.48a3.08,3.08,0,0,1-.64.59,1.88,1.88,0,0,1-1.06.35,1,1,0,0,1-.91-0.41,1.82,1.82,0,0,1-.31-1,8.52,8.52,0,0,1-1.2.9,3.16,3.16,0,0,1-1.6.5,1.93,1.93,0,0,1-1.38-.56,1.88,1.88,0,0,1-.58-1.42A2.64,2.64,0,0,1,805.54-1145.47Zm3.4-1a8.37,8.37,0,0,0-1.76.78,2.29,2.29,0,0,0-1.33,1.87,1.42,1.42,0,0,0,.56,1.24,1.34,1.34,0,0,0,.81.26,2.2,2.2,0,0,0,1.17-.34,1,1,0,0,0,.56-0.87v-2.94Z" transform="translate(-770.92 1231.58)"/><path class="cls-2" d="M813.27-1144.3h0.31a4.88,4.88,0,0,0,.57,1.62,2.1,2.1,0,0,0,1.9,1,1.52,1.52,0,0,0,1.1-.39,1.31,1.31,0,0,0,.4-1,1.38,1.38,0,0,0-.23-0.75,2.38,2.38,0,0,0-.82-0.7l-1-.59a5.91,5.91,0,0,1-1.68-1.23,2.16,2.16,0,0,1-.54-1.46,2.19,2.19,0,0,1,.74-1.71,2.68,2.68,0,0,1,1.86-.67,3.55,3.55,0,0,1,1.08.19,5.16,5.16,0,0,0,.66.19,0.48,0.48,0,0,0,.24,0A0.38,0.38,0,0,0,818-1150h0.22l0.06,2.58H818a4.33,4.33,0,0,0-.5-1.4,1.84,1.84,0,0,0-1.66-.93,1.33,1.33,0,0,0-1,.4,1.34,1.34,0,0,0-.37.94,1.89,1.89,0,0,0,1.28,1.52l1.22,0.66q2,1.08,2,2.51a2.24,2.24,0,0,1-.82,1.79,3.19,3.19,0,0,1-2.14.7,5.05,5.05,0,0,1-1.26-.19,5.36,5.36,0,0,0-.83-0.19,0.28,0.28,0,0,0-.19.08,0.55,0.55,0,0,0-.13.19h-0.24v-3Z" transform="translate(-770.92 1231.58)"/><path class="cls-2" d="M824.86-1149.93v0.67H823l0,5.34a3.56,3.56,0,0,0,.12,1.06,0.85,0.85,0,0,0,.87.64,1,1,0,0,0,.58-0.16,3,3,0,0,0,.56-0.5l0.24,0.2-0.2.28a3,3,0,0,1-1,.92,2.34,2.34,0,0,1-1,.27,1.46,1.46,0,0,1-1.48-1,4,4,0,0,1-.21-1.46v-5.62h-1l-0.07-.06a0.11,0.11,0,0,1,0-.07,0.21,0.21,0,0,1,0-.14,2.53,2.53,0,0,1,.26-0.23,8.44,8.44,0,0,0,.92-0.86q0.28-.33,1.33-1.73H823a0.23,0.23,0,0,1,0,.14v2.28h1.87Z" transform="translate(-770.92 1231.58)"/><path class="cls-2" d="M832.3-1149.17a3.31,3.31,0,0,1,1,2.56H827.4a4.92,4.92,0,0,0,1,3.13,2.72,2.72,0,0,0,2.09,1,2.62,2.62,0,0,0,1.64-.51,5.07,5.07,0,0,0,1.23-1.44l0.32,0.11a5.29,5.29,0,0,1-1.42,2.18,3.54,3.54,0,0,1-2.55,1,3.12,3.12,0,0,1-2.69-1.32,5.05,5.05,0,0,1-.95-3,4.92,4.92,0,0,1,1.1-3.22,3.53,3.53,0,0,1,2.87-1.35A3.27,3.27,0,0,1,832.3-1149.17Zm-4.44.71a3.67,3.67,0,0,0-.43,1.26h3.91a3.83,3.83,0,0,0-.35-1.38,1.6,1.6,0,0,0-1.52-.82A1.77,1.77,0,0,0,827.86-1148.46Z" transform="translate(-770.92 1231.58)"/><path class="cls-2" d="M848.69-1153.86a10.62,10.62,0,0,0,1.21.31,1,1,0,0,0,.51-0.15,0.78,0.78,0,0,0,.33-0.47h0.4l0.18,4.26h-0.44a6.16,6.16,0,0,0-1-2,3.81,3.81,0,0,0-3.14-1.46,4,4,0,0,0-3.26,1.58,6.73,6.73,0,0,0-1.27,4.34,5.93,5.93,0,0,0,1.33,4.06,4.3,4.3,0,0,0,3.37,1.51,5.4,5.4,0,0,0,2.72-.7,8.16,8.16,0,0,0,1.57-1.2l0.35,0.35a6.29,6.29,0,0,1-1.57,1.4,6.3,6.3,0,0,1-3.46,1,6.28,6.28,0,0,1-4.86-2,6.43,6.43,0,0,1-1.66-4.52,6.57,6.57,0,0,1,1.75-4.65,6.27,6.27,0,0,1,4.8-2A7.77,7.77,0,0,1,848.69-1153.86Z" transform="translate(-770.92 1231.58)"/><path class="cls-2" d="M854.61-1145.47A20.34,20.34,0,0,1,858-1147v-0.79a3.26,3.26,0,0,0-.19-1.32,1.32,1.32,0,0,0-1.31-.62,1.81,1.81,0,0,0-.9.24,0.77,0.77,0,0,0-.43.69,2.4,2.4,0,0,0,0,.37,2.55,2.55,0,0,1,0,.34,0.76,0.76,0,0,1-.34.72,0.85,0.85,0,0,1-.46.12,0.78,0.78,0,0,1-.64-0.27,0.93,0.93,0,0,1-.22-0.6,1.93,1.93,0,0,1,.8-1.36,3.45,3.45,0,0,1,2.35-.71,2.52,2.52,0,0,1,2.44,1.17,4,4,0,0,1,.34,1.86v3.71a2.47,2.47,0,0,0,.07.74,0.48,0.48,0,0,0,.5.36,0.81,0.81,0,0,0,.35-0.07,3.69,3.69,0,0,0,.48-0.32v0.48a3.08,3.08,0,0,1-.64.59,1.88,1.88,0,0,1-1.06.35,1,1,0,0,1-.91-0.41,1.82,1.82,0,0,1-.31-1,8.52,8.52,0,0,1-1.2.9,3.16,3.16,0,0,1-1.6.5,1.93,1.93,0,0,1-1.38-.56,1.88,1.88,0,0,1-.58-1.42A2.64,2.64,0,0,1,854.61-1145.47Zm3.4-1a8.37,8.37,0,0,0-1.76.78,2.29,2.29,0,0,0-1.33,1.87,1.42,1.42,0,0,0,.56,1.24,1.34,1.34,0,0,0,.81.26,2.2,2.2,0,0,0,1.17-.34,1,1,0,0,0,.56-0.87v-2.94Z" transform="translate(-770.92 1231.58)"/><path class="cls-2" d="M861.44-1141.69a2.26,2.26,0,0,0,1.13-.3,1.24,1.24,0,0,0,.28-1v-4.18a3.56,3.56,0,0,0-.17-1.31,0.62,0.62,0,0,0-.62-0.39l-0.25,0-0.32.06v-0.3l1.08-.38,0.77-.28q0.46-.18,1-0.4a0.07,0.07,0,0,1,.08,0,0.74,0.74,0,0,1,0,.2v1.52a7,7,0,0,1,1.15-1.29,1.78,1.78,0,0,1,1.15-.46,1.07,1.07,0,0,1,.77.28,1,1,0,0,1,.3.71,0.94,0.94,0,0,1-.23.64,0.72,0.72,0,0,1-.57.26,1.07,1.07,0,0,1-.71-0.32,1,1,0,0,0-.56-0.33,1.26,1.26,0,0,0-.8.52,1.6,1.6,0,0,0-.47,1.08v4.18a1.39,1.39,0,0,0,.37,1.11,1.86,1.86,0,0,0,1.23.29v0.3h-4.57v-0.3Z" transform="translate(-770.92 1231.58)"/><path class="cls-2" d="M868.12-1141.69a2.26,2.26,0,0,0,1.13-.3,1.24,1.24,0,0,0,.28-1v-4.18a3.56,3.56,0,0,0-.17-1.31,0.62,0.62,0,0,0-.62-0.39l-0.25,0-0.32.06v-0.3l1.08-.38,0.77-.28q0.46-.18,1-0.4a0.07,0.07,0,0,1,.08,0,0.74,0.74,0,0,1,0,.2v1.52a7,7,0,0,1,1.15-1.29,1.78,1.78,0,0,1,1.15-.46,1.08,1.08,0,0,1,.77.28,1,1,0,0,1,.3.71,0.92,0.92,0,0,1-.23.64,0.72,0.72,0,0,1-.57.26,1.07,1.07,0,0,1-.71-0.32,1,1,0,0,0-.56-0.33,1.26,1.26,0,0,0-.8.52,1.6,1.6,0,0,0-.47,1.08v4.18a1.39,1.39,0,0,0,.37,1.11,1.86,1.86,0,0,0,1.23.29v0.3h-4.57v-0.3Z" transform="translate(-770.92 1231.58)"/><path class="cls-2" d="M875.09-1141.64a2.4,2.4,0,0,0,1.25-.34,2.11,2.11,0,0,0,.26-1.33v-4.42a2.82,2.82,0,0,0-.09-0.84,0.56,0.56,0,0,0-.58-0.38l-0.2,0-0.56.15v-0.29l0.4-.13c1.08-.35,1.83-0.62,2.26-0.79a1.23,1.23,0,0,1,.33-0.11,0.53,0.53,0,0,1,0,.14v6.65a2.18,2.18,0,0,0,.26,1.33,1.9,1.9,0,0,0,1.15.34v0.26h-4.5v-0.26Zm1.48-12.39a0.92,0.92,0,0,1,.68-0.29,0.93,0.93,0,0,1,.68.28,0.92,0.92,0,0,1,.28.69,0.91,0.91,0,0,1-.28.68,0.93,0.93,0,0,1-.68.28,0.91,0.91,0,0,1-.68-0.28,0.93,0.93,0,0,1-.28-0.68A1,1,0,0,1,876.57-1154Z" transform="translate(-770.92 1231.58)"/><path class="cls-2" d="M887-1149.17a3.3,3.3,0,0,1,1,2.56h-5.88a4.92,4.92,0,0,0,1,3.13,2.72,2.72,0,0,0,2.08,1,2.61,2.61,0,0,0,1.64-.51,5.1,5.1,0,0,0,1.23-1.44l0.32,0.11a5.27,5.27,0,0,1-1.42,2.18,3.54,3.54,0,0,1-2.55,1,3.12,3.12,0,0,1-2.69-1.32,5,5,0,0,1-.95-3,4.92,4.92,0,0,1,1.1-3.22,3.53,3.53,0,0,1,2.87-1.35A3.27,3.27,0,0,1,887-1149.17Zm-4.44.71a3.67,3.67,0,0,0-.42,1.26H886a3.88,3.88,0,0,0-.35-1.38,1.6,1.6,0,0,0-1.52-.82A1.78,1.78,0,0,0,882.55-1148.46Z" transform="translate(-770.92 1231.58)"/><path class="cls-2" d="M889.22-1141.69a2.27,2.27,0,0,0,1.13-.3,1.24,1.24,0,0,0,.27-1v-4.18a3.56,3.56,0,0,0-.17-1.31,0.62,0.62,0,0,0-.62-0.39l-0.25,0-0.32.06v-0.3l1.08-.38,0.76-.28c0.31-.12.63-0.25,1-0.4a0.07,0.07,0,0,1,.08,0,0.74,0.74,0,0,1,0,.2v1.52a6.91,6.91,0,0,1,1.15-1.29,1.77,1.77,0,0,1,1.15-.46,1.07,1.07,0,0,1,.77.28,0.93,0.93,0,0,1,.3.71,0.94,0.94,0,0,1-.23.64,0.72,0.72,0,0,1-.57.26,1.07,1.07,0,0,1-.71-0.32,1,1,0,0,0-.56-0.33,1.27,1.27,0,0,0-.8.52,1.61,1.61,0,0,0-.47,1.08v4.18a1.4,1.4,0,0,0,.37,1.11,1.87,1.87,0,0,0,1.23.29v0.3h-4.57v-0.3Z" transform="translate(-770.92 1231.58)"/><path class="cls-2" d="M896.82-1144.3h0.3a4.84,4.84,0,0,0,.57,1.62,2.09,2.09,0,0,0,1.89,1,1.51,1.51,0,0,0,1.09-.39,1.3,1.3,0,0,0,.4-1,1.4,1.4,0,0,0-.23-0.75,2.44,2.44,0,0,0-.82-0.7l-1-.59a5.92,5.92,0,0,1-1.68-1.23,2.15,2.15,0,0,1-.54-1.46,2.19,2.19,0,0,1,.74-1.71,2.68,2.68,0,0,1,1.86-.67,3.55,3.55,0,0,1,1.08.19,5.37,5.37,0,0,0,.66.19,0.51,0.51,0,0,0,.24,0,0.39,0.39,0,0,0,.13-0.15h0.22l0.07,2.58H901.5a4.33,4.33,0,0,0-.5-1.4,1.84,1.84,0,0,0-1.66-.93,1.33,1.33,0,0,0-1,.4,1.33,1.33,0,0,0-.37.94,1.89,1.89,0,0,0,1.28,1.52l1.22,0.66q2,1.08,2,2.51a2.24,2.24,0,0,1-.82,1.79,3.2,3.2,0,0,1-2.14.7,5.08,5.08,0,0,1-1.26-.19,5.31,5.31,0,0,0-.83-0.19,0.28,0.28,0,0,0-.2.08,0.57,0.57,0,0,0-.13.19h-0.24v-3Z" transform="translate(-770.92 1231.58)"/><path class="cls-2" d="M908.89-1141.73a2.76,2.76,0,0,0,1.36-.37,1.86,1.86,0,0,0,.31-1.33v-8.44a2,2,0,0,0-.31-1.32,2.24,2.24,0,0,0-1.36-.38v-0.36h5.35v0.36a2.6,2.6,0,0,0-1.4.34,1.57,1.57,0,0,0-.36,1.23v9.12a1,1,0,0,0,.1.5,0.61,0.61,0,0,0,.47.23l0.45,0h0.89a9.38,9.38,0,0,0,3.43-.42,4.37,4.37,0,0,0,1.72-2.14H920l-0.93,3.29H908.89v-0.35Z" transform="translate(-770.92 1231.58)"/><path class="cls-2" d="M921-1141.64a2.4,2.4,0,0,0,1.25-.34,2.11,2.11,0,0,0,.26-1.33v-4.42a2.82,2.82,0,0,0-.09-0.84,0.56,0.56,0,0,0-.58-0.38l-0.2,0-0.56.15v-0.29l0.4-.13c1.08-.35,1.83-0.62,2.26-0.79a1.23,1.23,0,0,1,.33-0.11,0.53,0.53,0,0,1,0,.14v6.65a2.18,2.18,0,0,0,.26,1.33,1.9,1.9,0,0,0,1.15.34v0.26H921v-0.26Zm1.48-12.39a0.92,0.92,0,0,1,.68-0.29,0.93,0.93,0,0,1,.68.28,0.92,0.92,0,0,1,.28.69,0.91,0.91,0,0,1-.28.68,0.93,0.93,0,0,1-.68.28,0.91,0.91,0,0,1-.68-0.28,0.93,0.93,0,0,1-.28-0.68A1,1,0,0,1,922.47-1154Z" transform="translate(-770.92 1231.58)"/><path class="cls-2" d="M933-1149.53a1.65,1.65,0,0,1,.84,1.31,0.89,0.89,0,0,1-.22.57,0.8,0.8,0,0,1-.66.26,0.82,0.82,0,0,1-.57-0.22,1.29,1.29,0,0,1-.36-0.65l-0.11-.44a1.11,1.11,0,0,0-.42-0.69,1.46,1.46,0,0,0-.81-0.2,2.2,2.2,0,0,0-1.78.92,3.85,3.85,0,0,0-.73,2.45,4.21,4.21,0,0,0,.8,2.52,2.53,2.53,0,0,0,2.16,1.11,2.61,2.61,0,0,0,1.72-.63,6,6,0,0,0,1-1.15l0.26,0.16a7.61,7.61,0,0,1-1.11,1.76,3.41,3.41,0,0,1-2.59,1.25,3.48,3.48,0,0,1-2.56-1.14,4.24,4.24,0,0,1-1.11-3.1,4.83,4.83,0,0,1,1.21-3.3,3.91,3.91,0,0,1,3.07-1.38A3.36,3.36,0,0,1,933-1149.53Z" transform="translate(-770.92 1231.58)"/><path class="cls-2" d="M941.68-1149.17a3.3,3.3,0,0,1,1,2.56h-5.88a4.92,4.92,0,0,0,1,3.13,2.72,2.72,0,0,0,2.08,1,2.61,2.61,0,0,0,1.64-.51,5.1,5.1,0,0,0,1.23-1.44l0.32,0.11a5.27,5.27,0,0,1-1.42,2.18,3.54,3.54,0,0,1-2.55,1,3.12,3.12,0,0,1-2.69-1.32,5,5,0,0,1-.95-3,4.92,4.92,0,0,1,1.1-3.22,3.53,3.53,0,0,1,2.87-1.35A3.27,3.27,0,0,1,941.68-1149.17Zm-4.44.71a3.67,3.67,0,0,0-.42,1.26h3.91a3.88,3.88,0,0,0-.35-1.38,1.6,1.6,0,0,0-1.52-.82A1.78,1.78,0,0,0,937.24-1148.46Z" transform="translate(-770.92 1231.58)"/><path class="cls-2" d="M944.17-1141.64a1.67,1.67,0,0,0,.92-0.33,1.56,1.56,0,0,0,.26-1.1v-4.71a2.15,2.15,0,0,0-.11-0.83,0.72,0.72,0,0,0-.72-0.35h-0.17l-0.22,0v-0.33l1.8-.57,0.87-.29a0.08,0.08,0,0,1,.08,0,0.54,0.54,0,0,1,0,.13v1.36a9.29,9.29,0,0,1,1.33-1.09,2.76,2.76,0,0,1,1.5-.46,2,2,0,0,1,1.15.36,2.88,2.88,0,0,1,1,2.51v4.33a1.43,1.43,0,0,0,.27,1,1.18,1.18,0,0,0,.89.3v0.26h-4v-0.26A1.58,1.58,0,0,0,950-1142a1.91,1.91,0,0,0,.27-1.23v-4a2.66,2.66,0,0,0-.29-1.32,1.14,1.14,0,0,0-1.09-.53,2,2,0,0,0-1.11.37,6.9,6.9,0,0,0-.81.7v5.19a1.09,1.09,0,0,0,.3.9,1.62,1.62,0,0,0,.94.24v0.26h-4.05v-0.26Z" transform="translate(-770.92 1231.58)"/><path class="cls-2" d="M954.67-1144.3H955a4.84,4.84,0,0,0,.57,1.62,2.09,2.09,0,0,0,1.89,1,1.51,1.51,0,0,0,1.09-.39,1.3,1.3,0,0,0,.4-1,1.4,1.4,0,0,0-.23-0.75,2.44,2.44,0,0,0-.82-0.7l-1-.59a5.92,5.92,0,0,1-1.68-1.23,2.15,2.15,0,0,1-.54-1.46,2.19,2.19,0,0,1,.74-1.71,2.68,2.68,0,0,1,1.86-.67,3.55,3.55,0,0,1,1.08.19,5.37,5.37,0,0,0,.66.19,0.51,0.51,0,0,0,.24,0,0.39,0.39,0,0,0,.13-0.15h0.22l0.07,2.58h-0.29a4.33,4.33,0,0,0-.5-1.4,1.84,1.84,0,0,0-1.66-.93,1.33,1.33,0,0,0-1,.4,1.33,1.33,0,0,0-.37.94,1.89,1.89,0,0,0,1.28,1.52l1.22,0.66q2,1.08,2,2.51a2.24,2.24,0,0,1-.82,1.79,3.2,3.2,0,0,1-2.14.7,5.08,5.08,0,0,1-1.26-.19,5.31,5.31,0,0,0-.83-0.19,0.28,0.28,0,0,0-.2.08,0.57,0.57,0,0,0-.13.19h-0.24v-3Z" transform="translate(-770.92 1231.58)"/><path class="cls-2" d="M968.06-1149.17a3.3,3.3,0,0,1,1,2.56h-5.88a4.92,4.92,0,0,0,1,3.13,2.72,2.72,0,0,0,2.08,1,2.61,2.61,0,0,0,1.64-.51,5.1,5.1,0,0,0,1.23-1.44l0.32,0.11a5.27,5.27,0,0,1-1.42,2.18,3.54,3.54,0,0,1-2.55,1,3.12,3.12,0,0,1-2.69-1.32,5,5,0,0,1-.95-3,4.92,4.92,0,0,1,1.1-3.22,3.53,3.53,0,0,1,2.87-1.35A3.27,3.27,0,0,1,968.06-1149.17Zm-4.44.71a3.67,3.67,0,0,0-.42,1.26h3.91a3.88,3.88,0,0,0-.35-1.38,1.6,1.6,0,0,0-1.52-.82A1.78,1.78,0,0,0,963.62-1148.46Z" transform="translate(-770.92 1231.58)"/><path class="cls-1" d="M814.59-1176.2c-0.92-2.29-1.77-4.51-2.7-6.7-1.24-2.92-2.55-5.8-3.78-8.72a4.31,4.31,0,0,1-.4-1.87c0.1-1.56.31-3.12,0.57-4.66a1.24,1.24,0,0,1,.79-0.71,29.33,29.33,0,0,0,9.08-4.74c0.31-.24.61-0.49,0.91-0.75a1,1,0,0,0,.16-1.61,14.57,14.57,0,0,1-.94-1.38c-0.42-.68-0.84-0.61-1.44-0.18-4.77,3.39-10,5.31-15.92,4.53a24,24,0,0,1-10.66-4.44c-0.73-.51-1.21-0.6-1.6.3a2.79,2.79,0,0,1-.28.4c-1.22,1.81-1.21,1.8.51,3.13a30.11,30.11,0,0,0,9.08,4.74,1.64,1.64,0,0,1,.87,1c0.21,0.71.11,1.51,0.32,2.22,0.82,2.75-.7,4.94-1.65,7.27-1.57,3.84-3.19,7.66-4.73,11.52a0.86,0.86,0,0,1-1.39.58,29.26,29.26,0,0,1-12.34-10.44A27.36,27.36,0,0,1,774.8-1197a29.5,29.5,0,0,1-.11-10.62,28.83,28.83,0,0,1,6.76-14.13,28.77,28.77,0,0,1,11-7.78,27.38,27.38,0,0,1,13.75-1.89,28.53,28.53,0,0,1,17.84,8.94,27.53,27.53,0,0,1,7.32,14.07,28.56,28.56,0,0,1-3,19.56,29.07,29.07,0,0,1-13.33,12.41Zm-22.4-35.4a3,3,0,0,0,.17-1,5.71,5.71,0,0,0-3.14-4,1.13,1.13,0,0,1-.68-1.57,4.34,4.34,0,0,1,7.62-1.93c0.36,0.47.7,0.45,1.1,0a7.71,7.71,0,0,1,1.25-1.09c1.8-1.39,5.12-1.71,7.08-.22,0.65,0.5,1.34,1,2.27,1.63a9.8,9.8,0,0,0-.27-1.47,6.89,6.89,0,0,0-10.46-3.2,1.56,1.56,0,0,1-1.6.24,7.34,7.34,0,0,0-10,6.12,1.42,1.42,0,0,1-1.06,1.39,7,7,0,0,0-4.4,9.16,1.28,1.28,0,0,1-.33,1.45,7.72,7.72,0,0,0-1.46,8.25,7.26,7.26,0,0,0,6.31,5.05,7.1,7.1,0,0,0,7.23-3.35,4.66,4.66,0,0,0,.33-0.93c-1.27.56-2.36,1.12-3.5,1.52a5.54,5.54,0,0,1-5.64-1.8,6.52,6.52,0,0,1,.14-8.23,1.37,1.37,0,0,0,.2-1.67,4.27,4.27,0,0,1,0-3.79,4.92,4.92,0,0,1,8.12-1.09A6.41,6.41,0,0,0,792.19-1211.6Zm18.76-7.88a3,3,0,0,0,.69,0,6,6,0,0,1,6.66,3.26,5.68,5.68,0,0,1,.24,3.84,0.74,0.74,0,0,0,.69,1.09,5.09,5.09,0,0,1,.66.17,7.3,7.3,0,0,1,5.15,8.93,4.71,4.71,0,0,0,0,1.05c4.16-3.32,3.46-10.1-1.14-12.3a2.8,2.8,0,0,1-1.88-2.3,6.07,6.07,0,0,0-5.6-5.52A6.74,6.74,0,0,0,810.95-1219.47Zm-3.84,12.2c1.3-.78,1.08-3.35.16-4.85a4.33,4.33,0,0,0-6.07-1.36,4.83,4.83,0,0,0-1.18,6.68c1.11,1.68,3.49,2.39,4.84,1.44-2.26-1.2-2.78-1.93-2.4-3.38a2.67,2.67,0,0,1,2.26-1.87C806-1210.57,806.71-1209.56,807.1-1207.27Z" transform="translate(-770.92 1231.58)"/><path class="cls-1" d="M803.74-1188.85l6.89,14.05a28.8,28.8,0,0,1-14.27.18l7-14.27Z" transform="translate(-770.92 1231.58)"/></svg>