<?xml version="1.0" encoding="utf-8"?>
<!-- Generator: Adobe Illustrator 19.2.1, SVG Export Plug-In . SVG Version: 6.00 Build 0)  -->
<svg version="1.1" id="Layer_1" xmlns="http://www.w3.org/2000/svg" xmlns:xlink="http://www.w3.org/1999/xlink" x="0px" y="0px"
	 viewBox="0 0 278.9 278.9" style="enable-background:new 0 0 278.9 278.9;" xml:space="preserve">
<style type="text/css">
	.st0{stroke:#FFFFFF;stroke-miterlimit:10;}
	.st1{fill:#FFFFFF;}
</style>
<rect x="-60.5" y="-40.4" class="st0" width="394" height="370"/>
<title>logo</title>
<path class="st1" d="M162.9,117.4c-1.9,0.6-3.6,1.6-5,3c-2,1.7-3.2,4.1-4.7,6.2c-1.4,2.1-2.6,4.2-3.6,6.5c-1.2,2.3-1.7,4.8-2.7,7.2
	c-0.4,1-0.1,2.2-0.3,3.3c-0.1,0.7-0.3,1.5-0.5,2.2c-0.1,0.2-0.3,0.4-0.6,0.6l0.5,0.4h-0.2l-0.6,6.4c0.7-0.1,1.3-0.3,2-0.5
	c2-0.9,3.4-2.5,5.2-3.6c1.2-0.8,2.4-1.4,3.5-2.2c0.9-0.6,1.7-1.2,2.5-1.8l3.6-2.5c1.1-0.8,2.3-1.6,3.4-2.4c0.9-0.6,1.8-1.1,2.7-1.7
	c1.2-0.9,2.4-1.7,3.7-2.5c1.5-0.8,3.2-1.3,4.7-2c1.3-0.5,2.4-1.4,3.2-2.5c0.3-0.2,0.7-0.4,1.1-0.5c0.8-0.7,1.8-1.5,2.7-2.3
	c1-0.8,1.9-1.9,2.6-3c0.6-0.8,1.2-1.6,1.9-2.4c0.4-0.5,0.8-1.1,1.2-1.7c0.1-0.2,0.1-0.5,0.1-0.7c0.1-0.4,0.2-0.7,0.5-0.9
	c0.9-0.4,1.6-1.1,2.1-2c0.7-0.9,1.4-1.9,2.1-2.8c1-1.3,2-2.6,3-4c0.4-0.6,0.7-1.3,1-2c0.5-1,1.1-2,1.6-3c0.3-0.7,0.5-1.5,0.8-2.2
	c0.3-0.6,0.7-1.2,1.1-1.8c0.2,0.8,0.3,1.6,0.4,2.4c0.1,0.7,0,1.5-0.3,2.2c-1.4,2.9-3,5.7-4.5,8.4c-0.5,0.6-1,1.2-1.5,1.8
	c-0.7,0.9-1.3,1.9-2,2.8c-1.3,1.6-2.6,3.2-3.9,4.8c-0.1,0.1-0.2,0.2-0.2,0.3c0.3,1.3-0.8,1.7-1.3,2.6c-0.6,1-1.4,1.9-2,2.9
	c0,0.1,0,0.2,0,0.3c0.5,0,1,0,1.5,0c0.3,0,0.6-0.1,0.9-0.2c1.2-0.4,2.4-0.7,3.7-0.6c1.4,0,2.8,0.3,4.1-0.5c0.4-0.1,0.7-0.1,1.1-0.1
	c1.7-0.6,3.3-1.2,5-1.8c0.1,0,0.2-0.1,0.2-0.2c0-1.3,1.1-1.1,1.9-1.3c1-0.1,1.9-0.5,2.6-1.2c0.4-0.3,1-0.3,1.4-0.1
	c0.6,0.2,0.5,0.8,0,1.1c-1.1,0.8-2.2,1.5-3.4,2.2c-1.7,1-3.6,1.8-5.6,2.3c-1,0.2-2,0.8-3,1.1c-0.8,0.2-1.7,0.3-2.5,0.4
	c-0.9,0.1-1.7,0.3-2.6,0.4c-0.3-0.1-0.6-0.1-0.9-0.2c-0.3,0.1-0.5,0.1-0.8,0.2c-3.6,0.3-6.6,2.1-9.3,4.3c-1.5,1.1-3,1.9-4.7,2.6
	c-0.4,0.3-0.8,0.6-1.2,0.9l-8.8,5.7c-1.2,0.8-2.4,1.5-3.5,2.3c-1.5,1-2.9,2.2-4.4,3.2c-0.5,0.4-1.1,0.7-1.6,1.1
	c-0.4,0.3-0.7,0.6-1,1c-0.1,0.1-0.2,0.2-0.3,0.3c-1.3,0.4-1.9,1.6-2.7,2.6c-0.4,0.6-0.8,1.3-1.2,1.9c0,0.1,0,0.3,0,0.4
	c-0.7,1.4-1.5,2.7-2.2,4.1c-0.1,0.2-0.1,0.3-0.1,0.5c-0.1,0.5-0.4,0.9-0.7,1.2c-0.4,0.7-0.7,1.4-0.8,2.2c-0.2,0.5-0.3,1.1-0.4,1.6
	c-0.1,0.5-0.2,1-0.3,1.5c-0.1,0.3-0.2,0.5-0.3,0.8c-0.3,0.6-0.5,1.2-0.8,1.8c-0.5,1.5-0.9,3.1-1.3,4.7c-0.4,2.4-1.2,4.6-1,7.1
	c0.2,2.6,0.1,5.3,0.3,7.9c0.1,1.5,0.4,2.9,0.6,4.4c0,0.4-0.1,0.8-0.1,1.1c0.2,2.3,0.3,4.5,0.6,6.8c0.1,0.7,0.2,1.5,0.4,2.2
	c0.3,1.1,0.7,2.2,0.9,3.4c0.1,0.7,0.1,1.5,0.1,2.2c-0.1,2,0.1,4,0.7,5.9c0.2,0.3,0.4,0.6,0.6,0.8c-0.2,0.4-0.8,0.8-0.5,1.4
	c0.2,0.5,0.5,0.9,0.8,1.2c0.1,1,0.2,2.1,0.3,3.2c0.2,1.1,0,2.2-0.5,3.2h-0.3l-1-2.9c-0.3,0.2-0.7,0.2-1,0.2
	c-0.4-0.2-0.7-0.5-0.9-0.8l-0.5,0.3l0.4,1.9l-0.3,0.1l-0.7-0.6l-0.4,1.2h-0.3l-1.4-3.8c-0.4,0-0.7,0.4-0.7,0.9
	c0,0.1,0.1,0.2,0.1,0.3c0.1,0.3,0.2,0.7,0.2,1c-0.1,0.2-0.2,0.4-0.3,0.6c-0.2-0.1-0.4-0.3-0.5-0.5c-0.2-0.4-0.3-0.9-0.5-1.4
	l-0.4,0.1c0.1,0.8,0.2,1.5,0.3,2.3c0,0.5,0.5,1.2-0.3,1.2c-0.6,0.1-0.7-0.6-0.8-1.2c-0.2-0.8-0.4-1.5-0.7-2.3l-1.1-0.2
	c0.1,0.6,0.2,1.2,0.2,1.7c-0.1,0.2-0.2,0.5-0.3,0.6c-0.3-0.1-0.5-0.3-0.7-0.5c0-0.4-0.1-0.8-0.1-1.2c-0.1-0.4-0.2-0.7-0.4-1
	c-0.4-0.1-0.7,0.2-0.8,0.6c0,0.1,0,0.2,0,0.3c0.1,0.6,0.2,1.2,0.3,1.8c0.1,0.2,0.1,0.5,0,0.7c-0.2,0.3-0.4,0.5-0.7,0.7
	c-0.2-0.2-0.4-0.5-0.6-0.8c-0.2-0.8-0.2-1.6-0.4-2.4c-0.1-0.4-0.3-0.8-0.6-1.1c-0.1-0.1-0.2-0.1-0.3-0.1c-0.1,0-0.2,0.1-0.2,0.2
	c-0.1,0.9-0.2,1.8-0.4,2.7c-0.1,0.5-0.3,0.9-0.6,1.3c-0.2,0.2-0.4,0.4-0.7,0.5c-0.2-0.3-0.3-0.7-0.4-1c0-0.3,0-0.6-0.1-0.9
	c-0.5,0.4-0.6,1.1-0.3,1.6c0.1,0.2,0.1,0.5,0,0.8c-0.3,0.2-0.7,0.3-1.1,0.3c-0.2-0.2-0.4-0.4-0.4-0.7c0-0.8,0.1-1.5,0.2-2.3
	c0-0.3,0-0.5,0-0.8h0.5l-1.1,3.1c-0.2-0.5-0.4-1-0.6-1.5c-0.1-0.5-0.2-1-0.2-1.5h-0.3c-0.1,0.6-0.3,1.1-0.4,1.7c0,0.5-0.1,1-0.2,1.5
	c-0.2,0.3-0.6,0.6-0.9,0.7c0-0.6-0.1-1-0.8-1s-1-0.5-0.9-1.3c0-0.5,0-1.1-0.2-1.6h-0.3l-0.6,2.2l-1.4,0.6c-0.7,0.2-0.9-0.2-0.6-0.9
	l1.3-3.3c0-0.1,0.1-0.1,0.1-0.2c0.2-1.3,0.4-2.7,0.6-4c0.1-0.3,0.2-0.7,0.3-1c0.4-1.3,0.8-2.6,1.4-3.8c0.6-1.3,1.6-2.5,2.3-3.8
	c0.2-0.5,0.3-1,0.3-1.5c0.3-1.3,0.5-2.6,0.8-3.9s0.7-2.3,1.1-3.5c0.2-0.8,0.6-1.6,0.8-2.4c0.3-1,0.6-2.1,0.9-3.2
	c0.2-0.8,0.3-1.6,0.6-2.4c0.1-0.1,0.2-0.2,0.3-0.3c0.2-1,0.3-1.9,0.5-2.7c0.2-1.2,0.5-2.4,0.8-3.6c0.4-1.7,0.8-3.4,1.1-5.2
	c0-0.5,0-1-0.1-1.5c-0.1-0.9-0.1-1.8-0.2-2.7c0-0.3,0.1-0.5,0.2-0.7c0.1-0.3,0.4-0.6,0-1c-0.1-0.2,0-0.4,0.1-0.6
	c1.1-0.5,0.6-1.5,0.6-2.3c0-1.2-0.1-2.4-0.3-3.5c-0.2-1.9-0.5-3.7-0.8-5.6c-0.1-0.6-0.1-1.2-0.2-1.9c-0.4-2.3-0.7-4.6-1.3-6.9
	c-0.5-1.2-1.1-2.2-1.8-3.2c-0.4-0.7-0.8-1.4-1.3-2.1c-0.5-0.7-1.1-1.5-1.6-2.3c-0.5-0.9-1.1-1.8-1.8-2.6c-1.3-1.2-2.8-2.3-4.2-3.4
	c-0.4-0.3-0.7-0.6-1.1-0.9c-0.2-0.2-0.5-0.3-0.8-0.4c-1.1-0.2-2.2-0.4-3.3-0.6c-0.1,0-0.2-0.1-0.2-0.1c-1.7-0.1-3.4-0.2-5.1-0.1
	c-0.4,0.1-0.8,0.3-1.2,0.5c-2.3,1.3-4.6,2.7-6.9,4c-0.5,0.4-1,0.7-1.6,1c-1.3,0.5-2.6,0.8-4,1.2c-0.1,0-0.2,0-0.2,0
	c-1.8,1-3.8,1.5-5.9,1.3c-0.9,0.1-1.8-0.1-2.6-0.6c-0.1-0.1-0.2-0.2-0.3-0.4c0.7-0.8,1.7-1.1,2.7-0.8c1.5,0.3,3,0.2,4.4-0.5
	c1.2-0.7,2.6-1,3.8-1.6s2.5-1.6,3.8-2.4s2.4-1.4,3.6-2.2c0.6-0.3,1.1-0.6,1.6-1c1-0.7,2.2-1.2,3.5-1.4c0.5-0.1,1-0.1,1.5-0.2
	c0.2-0.1,0.4-0.2,0.6-0.4c-1.4-0.7-2.7-1.5-3.9-2.4c-0.9-0.6-1.8-1.3-2.7-2c0-0.1-0.1-0.2-0.2-0.3c-1.8-0.4-3.1-1.8-4.9-2.4
	c-1.2-0.5-2.4-1.1-3.5-1.8c-1-0.5-2.1-0.8-3.2-1.3c-1.6-0.7-3.4-1.1-5.2-1c-2.8,0.1-5.6,0-8.3,0c-3,0.1-5.9-0.2-8.9-0.7
	c-1.5-0.3-3-0.4-4.5-0.7c-1.2-0.3-2.2-0.9-3-1.8c-0.5-0.6-0.4-0.8,0.2-1.3c1-0.9,1.9-0.5,2.8,0.1c0.9,0.6,1.8,1.1,2.8,1.6
	c0.3,0.2,0.7,0.2,1.1,0.2c1.7,0,3.3,0.1,5,0.4c1.4,0.1,2.7,0.1,4.1,0c1.1,0,2.2,0.1,3.4,0.2c-0.5-0.4-1-0.8-1.4-1.2
	c-1-0.9-2-2-3-2.9c-1.3-1.1-2.7-2.2-4-3.3c-0.7-0.6-1.3-1.4-2-2.1s-1.3-1.3-2-1.9c-2-1.5-3.7-3.4-5-5.5c-0.2-0.3-0.4-0.5-0.6-0.7
	c-0.5-0.7-0.4-0.7,0.3-1.1c1.2-0.7,1.8,0.1,2.5,0.8c0.5,0.5,0.9,1,1.3,1.5c0.7,0.8,1.4,1.6,2.2,2.4c0.9,1,1.9,2.1,2.9,3
	s2.2,1.7,3.3,2.5c0.6,0.5,1.2,1,1.8,1.5c0.9,0.7,1.7,1.6,2.6,2.2c0.7,0.5,1.3,1.3,2.3,1.2c0.1,0,0.2,0,0.2,0.1
	c1.9,1.5,4.2,2,6.4,2.7c1.5,0.5,2.9,1,4.4,1.5s2.8,0.8,4.1,1.3c2,0.7,4,1.4,6,2.1c0.9,0.4,1.6,1,2.5,1.5c1.6,0.8,3.2,1.4,4.7,2.2
	c1,0.6,2,1.4,2.8,2.1c1,0.8,2,1.8,3.4,2h0.1c0.5,0.8,1.1,1.4,1.9,1.9c0.4,0.5,1,0.8,1.7,0.8c0.7,0.1,1.3,0.5,1.8,0.9
	c0.4,0.3,0.6,0.9,1.3,0.6c0.3,0.1,0.5,0.2,0.7,0.4c0.1,0.1,0.3,0.1,0.5,0.1c-1-1.9-2-3.8-2.9-5.7c-0.5-1-0.7-2.1-1.1-3.2
	c-0.4-1.2-0.9-2.5-1.4-3.7c-0.4-1-0.9-2.1-1.3-3.1c0-0.1-0.1-0.1-0.1-0.2c0.6-0.7,0-1.2-0.2-1.8c-0.5-1.6-1.1-3.1-1.6-4.7
	c-0.2-0.5-0.3-1-0.5-1.5c-0.3-0.8-0.8-1.6-1.1-2.5s-0.5-1.4-0.8-2c-0.4-0.9-0.9-1.7-1.3-2.6c-0.1-0.2-0.2-0.5-0.3-0.8
	c-0.2-0.4-0.4-0.7-0.7-0.9c-1.5-1-3-2-4.6-3c-0.9-0.6-2-1-2.9-1.7c-1.2-0.9-2.3-1.8-3.3-2.8c-0.7-0.6-1.4-1.3-1.9-2
	c-0.8-1-2-1.8-2.4-3.1c-0.2-0.3-0.4-0.5-0.7-0.8c-0.3-0.3-0.5-0.6-0.7-0.9c-0.7-2-1.9-3.9-3.6-5.3L94,87.4c-0.3-0.4-0.9-0.7-0.6-1.3
	c0.2-0.4,1.2-0.2,1.8,0.2c1.8,1.5,3.4,3.3,4.6,5.3c1,1.6,2.2,3.1,3.6,4.5c1.5,1.3,3.1,2.5,4.8,3.6c0.5,0.3,1,0.6,1.6,1
	c-0.6-2.6-0.4-5.3,0.6-7.8c0.3-0.8,0.7-1.5,1.1-2.2c0.7-1,1.5-0.8,1.8,0.3c0.3,1,0.3,2,0.2,3c-0.3,1.7-0.7,3.5-1.3,5.1
	c-0.4,0.8-0.8,1.5-1.4,2.1l4.1,1.7c-0.1-1.4-0.3-2.6-0.4-3.8c-0.1-0.5-0.1-1-0.2-1.5c-0.2-2-0.4-4-0.7-6c-0.3-1.8-0.8-3.6-1.2-5.4
	c-0.1-1.1-0.2-2.1-0.1-3.2c0-0.6,0.1-1.2,0-1.8c0-1.1-0.1-2.1-0.1-3.2c0-0.4,0.2-0.8,0.2-1.1c0.1-0.5,0.1-1,0-1.5
	c-0.1-0.4-0.1-0.9,0.1-1.2c0.2-1.2,0.8-2.3,0.2-3.5c-0.1-0.2-0.1-0.4,0-0.6c0.1-0.4,0.2-0.7,0.3-1.1c-2.7,0.4-4.8-0.8-6.9-2.1
	c-0.9-0.7-1.8-1.4-2.5-2.3c-0.5-0.3-0.7-0.9-0.4-1.4c0.3-0.5,0.9-0.7,1.4-0.4c2,0.2,3.8,1,5.4,2.2c1.1,0.8,2.1,1.8,3.2,2.7
	c0.1-0.4,0.1-0.8,0.1-1.2c0-0.7,0.1-1.4,0.4-2.1c0.3-0.8,0.5-1.5,0.6-2.3c0.1-0.3,0.3-0.6,0.6-0.8c0.4,0,0.7,0.3,0.7,0.7
	c0,0.1,0,0.2-0.1,0.3c0,0.2,0.1,0.5,0.3,0.6c0.4,0.4,0.5,0.9,0.3,1.4c-0.4,1.5-0.7,3.1-1,4.6c-0.2,1.8-0.2,3.6,0.2,5.3
	c0.2,1.9,0.2,3.8,0.1,5.6c-0.2,0.8,0.2,1.7,0.8,2.2c-0.5,2.1,0.1,4,0.1,6h0.3c0.2-0.4,0.3-0.7,0.4-1.1c0.4-1.9,1.6-3.5,3.2-4.6
	c2.8-1.8,5.1-4.2,7-6.9c0.4-0.9,1.2-1.6,2.2-1.9c0.3-0.1,0.7-0.3,0.9-0.6c0,0.1,0.1,0.1,0.2,0.2c1,0.5,1,0.4,0.2,1.2
	c-0.9,0.8-1.8,1.8-2.4,2.9c-0.6,1.1-1.4,1.9-2,3l0,0c-0.4,0.3-0.8,0.6-1.2,0.9c-0.9,1.1-1.8,2.3-2.7,3.4c-0.5,0.4-1,0.8-1.6,1.1
	c-0.5,0.4-1,0.9-1.5,1.4c-0.4,0.5-0.8,1-1.1,1.6c-0.2,0.7-0.4,1.3-0.6,2c-0.1,0.5-0.3,0.9-0.6,1.3c0.4,2.3,0.6,4.5,0.6,6.8
	c0,1.8,0.3,3.5,0.8,5.2c0.4,2,1,4,1.7,5.9c0.3,0.7,0.6,1.4,1,2l-0.4,0.2c0.2,0.6,0.4,1.2,0.6,1.8c0.1,0.2,0.2,0.3,0.3,0.4
	c0.3,0.4,0.6,0.8,0.9,1.2c0.4,1,0.6,2.1,1,3.2c0.2,0.2,0.4,0.4,0.7,0.6c0.3-0.8,0.4-1.4,0.7-2c0.5-1.3,1.1-2.6,1.7-4
	c0-0.1,0.1-0.1,0.1-0.2c0.1-2,1.5-3.4,2.3-5.1c0.4-1.1,1.1-2.1,2-2.9c1.1-0.9,2-2.1,2.6-3.4c0.9-1.7,1.5-3.5,2.3-5.1
	c0.4-1.2,0.8-2.4,1-3.6c0.5-1.4,1-2.9,1.5-4.3c0.3-0.8,1.1-0.5,1.7-0.7c0.2,0.2,0.3,0.4,0.4,0.7c0,0.6-0.1,1.3-0.2,1.9l0,0
	c-0.2,0.5-0.3,1.1-0.5,1.6c-0.5,1.6-1,3.1-1.6,4.6c-0.5,1.2-1,2.4-1.4,3.6c-0.6,2.1-1.7,4.1-3.1,5.9c-0.5,0.6-0.8,1.3-1.1,2
	c-0.7,1.8-1.4,3.7-2.1,5.6c-0.6,1.4-1.2,2.8-1.8,4.2c0,0.2,0,0.4,0,0.7c0,0.3,0,0.6-0.1,0.8c-1,1-0.6,2.3-0.5,3.4
	c0.1,0.8,0.2,1.6,0.4,2.3c0.1,0.4,0.4,0.8,0.5,1.1c0.1,0.3,0.1,0.8,0.1,1.2c0.1,0.4,0.2,0.8,0.3,1.2c0.2,0.6,0.5,1.2,0.8,1.8
	s0.7,1.5,0.9,2.2c0.4,0.9,0.7,1.9,1,2.8c0.2,0.6,0.6,1.2,0.8,1.8s0.3,1.2,0.6,1.7c0.4,0.9,0.9,1.8,1.4,2.7s0.9,1.7,1.4,2.6
	s0.9,2,1.5,3.3c0.3-0.8,0.5-1.3,0.6-1.8c0.2-0.9,0.5-1.8,0.6-2.7c0.3-1.9,0.9-3.7,1.4-5.5c0.3-1.2,1.1-2.3,1-3.6
	c0.1-0.6,0.4-1.1,0.8-1.6c0.1-0.1,0.1-0.1,0.2-0.2c0.2-2.1,1.7-3.7,2.3-5.7c0.4-1.4,1.6-2.6,2.4-3.9s1.7-2.9,2.5-4.4
	c0.4-0.7,0.8-1.4,1.2-2.2c0.2-0.5,0.3-1.1,0.5-1.6c0.4-1.3,0.9-2.6,1.2-3.9s0.4-2.8,0.6-4.3c0.2-1.7,0.4-3.4,0.6-5
	c0.3-2,0.3-4-0.1-5.9c0-0.1-0.1-0.3-0.1-0.4c0.4-1.4-0.3-2.7-0.6-4.1c-0.4-2-0.8-4-1.1-6c0-0.2,0.1-0.5,0.3-0.6
	c0.3-0.1,0.6-0.1,0.9,0.1c0.6,0.7,1.2,1.5,0.8,2.6c0,0.1,0,0.3,0.1,0.4c0.4,0.7,0.8,1.5,1.1,2.2c0.4,1.4,0.8,2.9,1.1,4.4
	c0,0.1,0,0.1,0,0.2c0.6,1.3,0.3,2.6,0.2,4s0,3,0,4.5c0,0.5,0.1,1,0.2,1.5h0.2l0.1-0.9c0.3,0,0.5-0.1,0.7-0.3
	c0.6-1.1,1.2-2.2,1.8-3.3s1.1-2.1,1.7-3.1s1-2,1.5-3c0.6-1.2,1.4-2.5,2-3.7c0.3-0.9,0.6-1.8,1-2.7c0.7-1.3,1.3-2.6,1.7-4
	c0.9-2.2,1.8-4.5,2.4-6.9c0.6-2.1,1.1-4.2,1.5-6.4c0.3-1.4,0.4-2.7,0.6-4.1c0.1-0.3,0.2-0.5,0.3-0.7c0.1-0.1,0.2-0.1,0.2-0.2
	c0.2-1.4,1.5-2.1,1.7-3.5c0.2-0.5,0.6-0.9,1.1-1.1c-0.5,1.4-1,2.9-1.4,4.3c-0.2,0.8-0.3,1.6-0.3,2.4c-0.2,1.6-0.3,3.2-0.4,4.8
	c-0.2,2.1-0.4,4.2-0.7,6.2c-0.2,1-0.5,1.9-0.8,2.8c0,0.2,0,0.4,0,0.6l0.2,0.2c0.5-0.5,0.9-1,1.4-1.5c0.3-0.2,0.7-0.5,1-0.7
	c0.2-0.1,0.4-0.2,0.5-0.4c0.3-0.5,0.7-0.9,1.3-1.1c1-0.6,2.1-1.2,3.1-1.7s2.1-1.2,3.2-1.7c0.5-0.1,0.9,0,1.3,0.3
	c-7.5,4.4-13.2,10.2-16.1,18.5l0.3,0.2c-1,1.9-2,3.7-2.9,5.6c-0.6,0.8-0.9,1.7-1,2.7c-0.2,0.5-0.5,0.9-0.8,1.2
	c-0.9,1.6-1.8,3.2-2.7,4.8c-0.2,0.4-0.3,1-0.6,1.4c-1,1.5-2,2.9-2.9,4.4c-0.1,0.2-0.2,0.5-0.3,0.8c0.3,0.1,0.7,0.1,1,0.1
	c2.3-1.3,4.9-2.2,7-3.9c0.7-0.5,1.5-0.8,2.3-1.1c0.4-0.2,0.8-0.4,1.2-0.7c1.7-1.2,3.8-1.4,5.6-2.1c0.3-0.2,0.5-0.4,0.7-0.6
	c0.1-0.2,0.4-0.4,0.6-0.5c1.3,0.2,1.8-0.9,2.6-1.5c0.1-0.1,0.1-0.2,0.2-0.3c1.2-0.1,1.6-1.1,2.2-1.8c0.2-0.3,0.8-0.3,1-0.5
	c0.7-0.8,1.4-1.6,2.1-2.4c1.3-1.4,2.5-2.9,3.8-4.3c0.6-0.7,1.1-1.5,1.7-2.2c0.3-0.4,0.7-0.6,1.1-0.7c0.6,0.3,0.5,0.9,0.3,1.5
	c-0.4,1.1-1.1,2.1-2,2.8c-0.2,0.2-0.3,0.3-0.4,0.5l0.3,0.1c0,0.3,0,0.6-0.2,0.8c-0.3,0.3-0.8,0.6-1.2,0.9c-0.2,0.2-0.3,0.5-0.5,0.8
	c-0.6,0.2-1.2,0.6-1.5,1.2c-0.7,1.1-1.5,2.2-2.5,3.1c-1.1,0.9-1.9,2.1-3,3c-0.8,0.7-1.7,1.2-2.5,1.8c-0.7,0.5-1.3,0.9-1.9,1.4
	c-0.1,0.1-0.2,0.2-0.3,0.3c-3.4,1.6-6.5,4-9.9,5.5c-0.6,0.3-1.2,0.7-1.8,1.1L162.9,117.4z"/>
<path class="st1" d="M165.8,34.9c-2.6-0.6-5.3-0.6-7.9-0.1c-0.9,0.2-1.9,0.3-2.8,0.1c-0.7-0.2-1.3-0.7-1.7-1.4c-1-1.6-0.3-3,1.6-3.1
	c4.1-0.4,8.2-0.2,12.3,0.6c3.8,0.8,4.9,4.1,2.6,7.4c-1,1.3-2.4,2.4-3.9,3.1c-4.7,2.4-10.1,2.7-15,1c-4.2-1.2-7.3-4.7-8.1-8.9
	c-1.1-4.3-0.5-8.8,1.8-12.6c3.2-5.3,7.9-7.7,14.1-7.4c2.7,0.1,5.4,0.8,7.8,2c1.1,0.6,2.1,1.3,2.9,2.2c2.1,2.5,2.1,6.1,0,8.6
	c-1.6,1.9-4.6,1-5.7-0.2c-0.5-0.5-0.4-1.3,0-1.7c0.1-0.1,0.1-0.1,0.2-0.2c0.7-0.6,1.2-1.4,1.2-2.4c0.1-2-0.6-3.1-2.5-3.8
	c-3.4-1.3-7.2-0.5-9.8,2.1c-2.4,2.2-3.9,5.3-4,8.6c-0.1,1.7-0.1,3.5,0.1,5.2c0.3,2,1.6,3.7,3.4,4.6c3.7,2.2,8.5,1.8,11.8-1
	C165,36.9,165.6,35.9,165.8,34.9z"/>
<path class="st1" d="M27.7,85.1c-3.4-1.6-6.7-3.1-10-4.4c-1.3-0.5-2.7-0.8-4.1-0.9c-0.7-0.1-1.3,0.3-1.5,0.9c0,0.1,0,0.3,0,0.4
	c-0.1,0.8,0,1.7,0.1,2.5c0.6,3.4,1.7,6.7,3.1,9.9c0.8,2,1.8,3.9,2.8,6.1C20.6,94.3,23.8,89.4,27.7,85.1z M31.5,80.6
	c0.5-0.3,0.9-0.7,1.4-1c0.5-0.5,1.3-0.5,1.8-0.1c0.7,0.4,0.9,1.3,0.6,2c-0.2,0.5-0.4,1-0.7,1.6c0.7,0.2,1.3,0.4,2,0.5
	c0.7,0,1.3,0.6,1.2,1.3c0,0.1,0,0.2,0,0.2c-0.1,1.6-1.7,4-3.2,4.3c-0.7,0-1.5-0.2-2.1-0.6c-0.7-0.5-1.4-1.1-2-1.7
	c-3.5,4.3-6.7,9-9.4,13.9c-0.9,1.7-0.9,1.8,0.6,3.1c0.5,0.4,1,0.8,1.5,1.1c0.7,0.4,1,1.2,0.7,2l0,0c-0.6,1.6-1.9,2.8-3.5,3.2
	c-0.5,0.1-1-0.1-1.3-0.4c-3.7-5.4-7.6-10.7-9.8-16.9c-1.4-3.4-2.1-7-2.3-10.6c0-5.9,4.5-8.9,9.4-8.5c3.2,0.3,6.4,1.4,9.2,3.1
	C27.6,78.2,29.5,79.4,31.5,80.6L31.5,80.6z"/>
<path class="st1" d="M63.1,242.5c-0.5,1.9-0.9,3.7-1.5,5.6c-0.8,2.6-1.7,5.3-2.6,7.9c-0.3,0.7-0.7,1.4-1.2,2c-0.6,1-1.9,1.4-3,0.8
	c-0.1-0.1-0.3-0.2-0.4-0.3c-1.2-0.8-2-2-2.5-3.3c-1.4-4.1-2.8-8.2-4.1-12.3c-0.2-0.6-0.4-1.3-0.7-1.9c-0.1,1.1-0.2,2.1-0.2,3.2
	c0.1,3.7,0.2,7.5,0.3,11.2c0.1,0.6,0.3,1.3,0.5,1.9c0,0.1,0.1,0.3,0.2,0.4c0.4,1.3,0.3,2-0.5,2.4c-1.1,0.7-2.6,0.3-3.3-0.7
	c-0.9-1.7-1.3-3.5-1.1-5.4c0.1-5.2,0.4-10.4,0.6-15.6c0-1.2,0-2.4,0-3.6c0-0.3-0.1-0.5-0.2-0.7c-0.6-0.7-0.5-1.8,0.2-2.4
	c0.1-0.1,0.1-0.1,0.2-0.2c1.2-0.8,2.7-1,4.1-0.6c1.4,0.3,1.8,1,1.9,2.6c0.6,6.1,1.9,12.2,4,18c0.3,0.7,0.7,1.5,1.1,2.1
	c0.6,0.8,1.1,0.8,1.4-0.1c0.8-2.1,1.5-4.3,2.1-6.5c1.1-4.4,1.9-8.9,3-13.3c0.3-2.1,2.2-3.6,4.3-3.3c0.2,0,0.4,0.1,0.6,0.1
	c0.9,0.2,1.7,0.4,2.5,0.8c0.6,0.1,1,0.8,0.9,1.4c-0.1,0.3-0.2,0.5-0.5,0.7c-0.7,0.8-1.1,1.8-1.1,2.8c-0.7,5.7-1.1,11.4-1.1,17.2
	c0,1.3,0.2,2.7,0.4,4c0.1,0.5,0.3,1,0.7,1.3c0.7,0.4,0.8,1.3,0.4,2l0,0c-0.5,0.8-1.4,1-2.2,0.6c-0.6-0.4-1.2-0.9-1.6-1.5
	c-1-1.6-1.5-3.5-1.6-5.4c-0.1-3.8,0-7.6,0-11.4C63.1,242.8,63.1,242.7,63.1,242.5L63.1,242.5z"/>
<path class="st1" d="M227,53.3c-1.3,0.1-2.5,0.5-3.5,1.3c-2,1.2-3.6,3-4.5,5.1c-0.5,0.9-0.4,2,0.2,2.8c1.1,1.5,2.9,2.1,4.6,1.7
	c2.9-0.7,5.4-2.6,6.8-5.3c1-2,0.2-4.4-1.8-5.4C228.2,53.5,227.6,53.3,227,53.3z M224.2,68.3c-0.7-0.1-1.4-0.2-2-0.4
	c-2.9-0.6-5.4-2.5-7-5c-1.5-2.3-1.5-5.3,0-7.5c2.1-3.5,5.6-5.9,9.6-6.6c2.3-0.4,4.7,0.3,6.3,1.9c1.2,1.3,2.4,2.7,3.5,4.1
	c1.3-1.6,2.7-3.2,4-4.9c0.7-0.9,1.3-1.7,2-2.6c0.2-0.5,0.8-0.6,1.3-0.4L242,47c1.6,0.9,2.8,2.3,3.6,3.9c0.5,0.9,0.2,2-0.6,2.6
	c-0.3,0.3-0.6,0.6-1,0.9c-2.1,1.4-4,3-5.7,4.9c-2.3,2.5-4.7,5-7,7.6c-1.5,1.6-2.6,3.5-3.2,5.5c-0.2,0.3-0.4,0.4-0.7,0.5
	C225.4,73.1,223.6,70.7,224.2,68.3L224.2,68.3z"/>
<path class="st1" d="M70.6,54.2c-0.1-2.3-0.8-4.5-2.1-6.4c-0.8-1.3-2.4-2-3.9-1.7c-1.5,0.1-2.8,1.3-3.1,2.8c-0.2,1.2-0.2,2.4,0,3.6
	c0.3,2.3,1.3,4.5,3,6.1c0.8,0.9,2.1,1,3.2,0.4C69.6,58.2,70.7,56.3,70.6,54.2z M74,57.2c-1.5,2.8-4.1,4.9-7.2,5.6
	c-3.3,1.1-6.9-0.3-8.6-3.4c-1.8-2.9-2.4-6.5-1.8-9.9c0.7-3.7,3.8-6.5,7.5-6.9c0.7-0.1,1.5-0.2,2.3-0.2c-0.4-0.9-0.7-1.7-1.1-2.5
	c-1.1-2.1-2.2-4.2-3.3-6.3c-0.3-0.4-0.3-1,0.1-1.3l0.1-0.1c1.5-1.2,3.5-1.7,5.4-1.6c0.8,0.1,1.4,0.6,1.6,1.4c0.3,1,0.5,2.1,0.8,3.1
	c0.7,2.1,1.3,4.2,2.2,6.2c1.2,2.9,2.4,5.9,3.7,8.7c0.8,2.1,2.1,3.9,3.8,5.3c0.2,0.3,0.2,0.6,0.1,0.9c-0.9,1.7-3,2.5-4.7,1.6
	c-0.1,0-0.1-0.1-0.2-0.1C74.5,57.5,74.4,57.4,74,57.2L74,57.2z"/>
<path class="st1" d="M94.7,49.2c-1.8,1.5-3.9,2.6-6.2,3c-3.8,0.9-7.6-1.1-9-4.8c-1.2-3-2.3-6-3.5-9c-0.2-0.4-0.1-0.9,0.3-1.1
	c1.6-1.4,3.7-2,5.7-1.8c0.3,1.6,0.5,3.2,0.9,4.7c0.6,2,1.4,3.9,2.1,5.8c0.2,0.5,0.4,0.9,0.7,1.3c0.8,1.2,1.8,2.1,3.4,1.9
	c1.6-0.3,2.9-1.5,3.1-3.2c0.4-1.9,0.3-3.8-0.3-5.6c-0.8-2.2-1.6-4.4-2.3-6.7c1.8-1.6,3.9-2.7,6.6-2.1c0.1,1.7,0.2,3.5,0.5,5.2
	c0.6,2.8,1.4,5.6,2.2,8.4c0.6,2,1.2,3.9,1.8,5.9c0.9,3,0.3,5.3-2.2,7.2c-3.6,2.6-8,3.7-12.4,3.1c-1.3-0.1-1.9-0.9-1.8-1.8
	c0.3-1.1,1.3-1.8,2.5-1.6c1.6,0.4,3.4,0.4,5-0.1c0.9-0.3,1.7-0.7,2.6-1.2c1.4-0.9,2.1-2.7,1.5-4.3C95.4,51.4,95,50.4,94.7,49.2z"/>
<path class="st1" d="M185.6,45.8c1-0.2,1.9-0.5,2.8-0.8c0.4-0.2,0.7-0.7,0.7-1.1c-0.1-0.4-0.4-0.7-0.8-0.8c-0.9-0.4-1.9-0.7-2.8-0.9
	c-1.3-0.2-2.7-0.3-4-0.3c-0.8,0-1.5,0.5-1.6,1.3s0.6,1.2,1.2,1.5C182.5,45.3,184,45.7,185.6,45.8z M187.2,49.4
	c-2.1-0.4-4.2-0.7-6.3-1.3c-2.4-0.7-4.6-2.1-6.2-4c-1.4-1.8-1.1-3.6,1.1-4.5c3-1.3,6.3-1.5,9.5-0.6c1.7,0.5,3.4,1.1,5.2,1.7
	c0.3-0.8,0.5-1.5,0.7-2.3c0.5-1.7-0.5-3.4-2.2-3.8l0,0c-1.1-0.3-2.1-0.5-3.2-0.6c-1.2-0.1-2.3,0.6-2.6,1.8c-0.2,0.7-0.8,1.1-1.5,0.9
	h-0.1c-1.3-0.2-2.5-0.9-3.2-2.1c-0.2-0.3-0.2-0.7-0.1-1.1c0.3-1.2,1.2-2.2,2.4-2.7c2.3-0.9,4.8-1,7.1-0.1c2.5,0.6,4.7,1.9,6.5,3.7
	c2.2,2.2,2.8,5.5,1.7,8.5c-1.1,3.1-2.6,6.1-4,9.1c-0.1,0.2-0.3,0.4-0.5,0.6c-1.3,0.7-2.5,0.1-3.6-0.6
	C187.1,51.4,186.8,50.4,187.2,49.4c-0.2,0.2-0.2,0.4,0,0.5s0.3,0.1,0.4,0c0.1-0.1,0.1-0.3,0-0.4C187.5,49.4,187.3,49.4,187.2,49.4
	L187.2,49.4z"/>
<path class="st1" d="M263.8,87c1.1,0.5,2.2,1.1,3.2,1.7c2.3,1.7,3.4,4.2,4.1,6.9c1.2,4.8-0.4,8-4.7,11c-2,1.3-4.1,2.4-6.1,3.6
	c-0.3,0.1-0.6,0.1-0.9,0c-0.9-0.4-1.6-1.1-1.8-2c-1.1-2.7-1.1-2.8,1.5-4.2c2.6-1.2,4.9-2.8,7-4.8c0.7-0.7,1.2-1.5,1.6-2.4
	c0.6-1.4,0.1-3.1-1.2-3.9c-3.7-2.2-9.6-2.2-12.8,1.7c-0.5,0.6-1.1,1.2-1.6,1.8c-0.4,0.4-1,0.5-1.5,0.2c-1.9-0.7-2.9-2.7-2.3-4.6
	c0.2-0.7,0.7-1.3,1.3-1.7c2.8-2.2,5.6-4.4,8.4-6.6c0.6-0.6,1.2-1.2,1.7-1.9c0.4-0.6,1.2-0.8,1.8-0.5c2,0.6,3.3,2.4,3.4,4.5
	c0,0.2-0.1,0.5-0.3,0.6C264.3,86.7,264.1,86.8,263.8,87z"/>
<path class="st1" d="M245.4,70.2c-1.1,0-2,0.6-2.5,1.6c-0.5,1.1,0.2,2.1,1,2.8c0.8,0.8,1.7,1.5,2.7,2c1.1,0.6,2.4,0.2,3-0.9
	c0.1-0.3,0.2-0.6,0.3-0.9C250.2,72.5,248.2,70.2,245.4,70.2z M239.4,74.3c-1.7,2.1-1.6,3.9,0.6,5.6c1.6,1.1,3.2,2.2,4.9,3.1
	c1.2,0.6,2.1,1.4,2.8,2.5c0.5,1,0.3,1.8-0.8,1.9c-1,0.1-1.9-0.1-2.8-0.5c-2.4-1.1-4.6-2.7-6.4-4.6c-1-1-1.9-2-2.8-3.1
	c-2.5-3.6-2-7.4,1.3-10.2c2.4-2,5.3-3.2,8.4-3.4c2-0.2,3.9,0.6,5.3,2c2.6,2.8,4.2,6.3,4.5,10.1c0.3,3.6-2.4,4.6-4.8,4
	c-2.8-0.7-5.3-2.1-7.4-4.1C241.2,76.5,240.3,75.4,239.4,74.3L239.4,74.3z"/>
<path class="st1" d="M36.8,65.4c1-5.1,5.5-8.7,10.7-8.5c2.2,0.1,4.4,1.1,5.8,2.8c1.8,1.9,3.3,4.1,4.9,6.1c0.2,0.3,0.4,0.6,0.6,0.8
	c0.7,0.9,0.8,1.7-0.1,2.4c-1.1,0.7-2.2,1.3-3.4,1.7c-0.3-0.1-0.5-0.2-0.6-0.4c-1.4-1.9-2.8-3.9-4.3-5.7c-1-1.1-2.1-2.2-3.3-3
	c-2.7-1.9-5-0.9-5.7,2.3c-1,3.6,0.1,7.4,2.8,10c0.8,0.7,1.6,1.3,2.5,1.9c1.2,0.9,1.3,1.6,0.4,2.8c-1.5,1.9-3.5,2.8-5.7,0.5
	c-2.4-2.5-4.8-5.1-7.2-7.6c-0.6-0.6-1.3-1.1-2-1.5c-0.7-0.4-1-1.3-0.7-2.1c0.4-1.7,1.7-3,3.3-3.4c0.6-0.3,1.2-0.1,1.5,0.5l0,0
	C36.5,65.1,36.7,65.3,36.8,65.4z"/>
<path class="st1" d="M120.2,31.8c0.3-0.5,0.5-0.9,0.8-1.2c0.6-0.9,0.4-2.2-0.5-2.8c-0.1-0.1-0.3-0.2-0.5-0.2
	c-1.3-0.5-2.7-0.2-3.8,0.7c-1,1.1-1.3,2.7-0.8,4.1c0.4,0.6,0.9,1.1,1.6,1.4c1.7,0.6,3.5,0.9,5.3,1.3s3.5,0.7,5.2,1.2
	c1.9,0.6,2.3,1.7,1.2,3.5c-0.8,1.3-2,2.3-3.4,2.8c-2.8,1.3-5.9,1.7-8.9,1.3c-1.9-0.3-3.8-0.6-5.7-0.9c-0.7,0-1.2-0.4-1.4-1.1
	c-0.1-0.7,0.4-1.5,1.1-1.7c0.9-0.3,1.9-0.6,2.8-0.9c0.2,0,0.5,0.1,0.6,0.2c0.4,0.3,0.9,0.6,1.3,0.9c2.1,0.6,4.4,0.7,6.5,0.2
	c0.9-0.2,1.2-0.6,0.9-1.3c-0.1-0.3-0.4-0.5-0.6-0.5c-0.9-0.2-1.8-0.3-2.7-0.3c-2.4-0.1-4.8-0.8-6.9-2.1c-3.6-2.1-4.3-6-1.6-9.2
	c1.6-1.9,3.9-3,6.4-2.9c2.5,0,5,0.5,7.2,1.6c1.1,0.4,2,1.3,2.4,2.4c0.8,1.6,0.1,3.5-1.5,4.2c-0.5,0.3-1.1,0.4-1.7,0.3
	c-0.9-0.1-1.7-0.3-2.6-0.5C120.8,32.1,120.5,32,120.2,31.8z"/>
<path class="st1" d="M171.5,253.3l-0.1,0.2c-0.7,0-1.3,0.1-2,0.2c-0.8,0.2-1.6,0.5-2.2,1c-0.4,0.5-0.6,1.1-0.6,1.7
	c0.1,0.6,0.7,1,1.3,1c1.7,0.3,3.4-0.2,4.6-1.4c0.6-0.4,0.8-1.2,0.5-1.8C172.6,253.7,172.1,253.5,171.5,253.3z M173.2,260.1
	c-1.7,0.3-3.3,0.5-5,0.6c-1.8,0-3.5-0.7-4.8-1.9c-1.4-1.1-1.7-3.1-0.6-4.5c0.1-0.1,0.2-0.3,0.3-0.4c1.7-2,4.2-3.1,6.8-3.1
	c1,0,2.1,0,3.2,0c0.2-1.5,0-3-0.6-4.4c-0.6-1-1.5-1.3-3-1c-1.2,0.1-2.1,1-2.3,2.2c0,0.2,0,0.4,0,0.6c-0.1,1.3-0.9,1.7-2.1,1.2
	c-1.1-0.4-1.8-1.6-1.5-2.8c0.4-2.5,2.6-4.4,5.1-4.6c1.1,0,2.1,0,3.1,0.3c3,0.7,4.4,3,5.1,5.8s0.5,5.5,0.5,8.3c0,1.4-0.1,2.8-0.3,4.2
	c-0.2,1.3-0.7,1.7-2.2,1.6c-0.9,0.1-1.7-0.7-1.8-1.6c0-0.1,0-0.1,0-0.2C173.2,260.2,173.2,260,173.2,260.1z"/>
<path class="st1" d="M79.7,257.5c1.2,0.1,2.5-0.4,3.4-1.2c0.4-0.4,0.8-1,0.9-1.6c0.2-0.4,0-0.9-0.4-1c-0.1-0.1-0.3-0.1-0.5-0.1
	c-1.5,0.1-2.9,0.3-4.3,0.6c-0.9,0.2-1.5,1.2-1.3,2.1c0.2,0.7,0.8,1.1,2,1.1h0.2V257.5z M84.1,260.1c-1.7,0.3-3.3,0.5-5,0.6
	c-1.8,0-3.6-0.7-4.9-1.9c-1.4-1.1-1.7-3.1-0.6-4.5c0.1-0.1,0.2-0.2,0.3-0.4c1.7-2,4.2-3.1,6.8-3.1c1.1,0,2.1,0,3.4,0
	c-0.1-1.3-0.3-2.5-0.5-3.8c-0.3-1.2-1.5-2-2.8-1.7l0,0c-1.4,0-2.6,1-2.8,2.4c0,0.1,0,0.1,0,0.2c-0.2,1.5-0.3,1.8-1.4,1.7
	s-2.1-1-2.2-2.1c0-2.9,2.2-5.3,5.1-5.4c1.1-0.1,2.1,0,3.1,0.3c2.7,0.6,4.2,2.6,4.9,5.1c0.4,1.4,0.7,2.9,0.7,4.5
	c0,2.9-0.1,5.8-0.3,8.6c-0.1,1.4-0.7,1.7-2.2,1.6c-0.9,0.1-1.7-0.6-1.8-1.5c0-0.1,0-0.2,0-0.3C84.2,260.2,84.2,260.1,84.1,260.1z"/>
<path class="st1" d="M185.1,243.8c0.9-1.5,2.6-2.3,4.2-2c2.3,0.3,4.3,1.8,5.3,3.9c1,2.3,1.5,4.8,1.5,7.2c0,2.1-0.1,4.1,0,6.2
	c0.1,0.9-0.6,1.7-1.5,1.8c-0.2,0-0.4,0-0.6-0.1h-0.1c-1.7-0.4-1.8-0.6-1.8-2.3c0-2.7,0.1-5.4-0.1-8.1c-0.1-1.5-0.4-2.9-1-4.2
	c-0.6-1.6-1.9-1.7-3-0.4c-2.7,3-3.9,7.2-3.1,11.2c0.1,0.7,0.2,1.5,0.3,2.2c0.1,0.8-0.5,1.5-1.3,1.5c-0.1,0-0.1,0-0.2,0
	c-1.3,0.3-2.5-0.6-2.8-1.9c0-0.2-0.1-0.5,0-0.7c0-3.8,0.1-7.5,0.1-11.3c0-0.9-0.1-1.8-0.2-2.7c-0.2-1,0.3-2,1.3-2.4
	c0.8-0.5,1.8-0.4,2.4,0.4C184.7,242.6,185,243.2,185.1,243.8z"/>
<path class="st1" d="M147.9,243.8c1.2-1.4,2.6-2.4,4.5-2c2.2,0.4,4.1,1.8,5.1,3.8c1,2.3,1.6,4.8,1.5,7.3c0,2.1-0.1,4.1,0,6.2
	c0.1,0.9-0.6,1.7-1.5,1.8c-0.2,0-0.5,0-0.7-0.1c-0.3-0.1-0.6-0.2-1-0.3c-0.6-0.1-1-0.7-0.9-1.3c0,0,0,0,0-0.1
	c0.1-2.1,0.2-4.2,0.1-6.4c-0.1-1.8-0.3-3.6-0.7-5.3c-0.2-1-0.6-2.2-1.8-2.4s-1.8,0.8-2.3,1.6c-2.4,3.2-3.3,7.3-2.3,11.2
	c0.1,0.3,0.1,0.5,0.1,0.8c0.1,1.4-0.2,1.9-1.2,2.1c-1.1,0.3-2.3-0.2-2.8-1.3c-0.2-0.5-0.3-1-0.3-1.6c0-3.2,0-6.4,0-9.6
	c0-1.5-0.1-2.9-0.1-4.4c-0.1-1,0.6-2,1.6-2.3c0.9-0.3,1.8-0.1,2.4,0.7C147.7,242.8,147.9,243.3,147.9,243.8z"/>
<path class="st1" d="M103.3,243.9c1.2-1.4,2.7-2.5,4.6-2c2.2,0.4,4.2,1.8,5.1,3.9c1,2.3,1.5,4.8,1.4,7.3c0,2-0.1,4.1,0,6.1
	c0.1,0.9-0.6,1.7-1.5,1.8c-0.3,0-0.5,0-0.8-0.1c-0.4-0.1-0.8-0.3-1.2-0.5c-0.4-0.1-0.7-0.6-0.6-1l0,0c0.1-2.1,0.2-4.2,0.1-6.3
	c-0.1-1.9-0.4-3.8-0.6-5.7c-0.1-0.4-0.2-0.9-0.5-1.3c-0.8-1.5-1.9-1.6-3-0.4c-2.7,3-3.9,7.1-3.2,11.1c0.1,0.7,0.2,1.5,0.3,2.2
	c0.1,0.8-0.4,1.5-1.2,1.6c-0.1,0-0.1,0-0.2,0c-1.3,0.3-2.6-0.6-2.9-2c0-0.2-0.1-0.5,0-0.7c0-1.8,0-3.5,0-5.3c0-2,0.1-4,0.1-6
	c0-0.9-0.1-1.8-0.3-2.6c-0.2-1,0.3-1.9,1.2-2.3c0.8-0.4,1.7-0.4,2.4,0.2C103.6,242.5,103.2,243.2,103.3,243.9z"/>
<path class="st1" d="M225.5,248.2c0-0.3-0.1-0.5-0.1-0.8c-0.4-1.7-1.6-2.5-3-2s-2.5,3.2-1.7,4.5c0.2,0.3,0.4,0.5,0.7,0.7
	c1,0.5,2.1,0.4,3-0.1C225.2,250,225.6,249.1,225.5,248.2z M219.9,253.6c0.1,0.6,0.2,1.1,0.3,1.6c0.5,1.9,1.3,2.5,3.2,2.1
	c1.1-0.4,2.2-0.8,3.3-1.3c0.8-0.3,1.5-0.5,2.4-0.6c0.5-0.1,1.1,0.3,1.2,0.8c0,0.2,0,0.4-0.1,0.6c-0.2,0.8-0.7,1.4-1.3,2
	c-1.6,1.2-3.5,1.8-5.4,1.8c-1.3,0.1-2.6-0.1-3.9-0.5c-2.4-0.8-3.3-2.8-3.6-5.1c-0.4-4.1,0.6-8.2,2.9-11.7c1.2-1.8,2.7-2.3,4.8-1.6
	s3.9,1.9,5.1,3.7c1.5,2,1.1,4.8-0.7,6.4C226,254.2,222.7,254.9,219.9,253.6L219.9,253.6z"/>
<path class="st1" d="M136.5,248.2c0-0.3-0.1-0.6-0.1-0.9c-0.4-1.6-1.6-2.4-3-1.9s-2.5,3.2-1.7,4.5c0.2,0.3,0.4,0.5,0.6,0.7
	c1,0.5,2.1,0.4,3-0.1C136.2,250.1,136.6,249.1,136.5,248.2z M130.8,253.6c0.2,0.9,0.5,1.8,0.8,2.8c0.3,0.7,1.1,1.2,1.9,1.1
	c1.5-0.1,2.9-0.5,4.1-1.3c0.7-0.4,1.5-0.6,2.3-0.7c0.6-0.1,1.2,0.2,1.4,0.8c0.1,0.3,0,0.6-0.2,0.9c-0.3,0.8-0.8,1.4-1.5,1.9
	c-2.5,1.6-5.7,2.1-8.6,1.3c-2.7-0.7-3.8-2.8-4-5.3c-0.4-4.1,0.6-8.2,2.8-11.6c1.2-1.9,2.7-2.3,4.8-1.6c2,0.7,3.8,1.9,5.1,3.6
	c1.5,2,1.2,4.7-0.6,6.4c-1.8,1.6-4.1,2.5-6.5,2.2C132,254,131.4,253.9,130.8,253.6L130.8,253.6z"/>
<path class="st1" d="M205.8,261.1c-3.8,0.1-6.9-2.9-7-6.7c0-0.1,0-0.2,0-0.3c0-3.6,1-7.1,2.8-10.1c0.1-0.3,0.3-0.5,0.5-0.7
	c1.5-2.1,3.1-2.6,5.5-1.7c0.8,0.3,1.5,0.7,2.2,1.1c2.5,1.3,2.7,3.6,2.4,6c-0.2,1.1-0.5,2.1-1,3.1c-0.2,0.6-0.8,1-1.4,0.9
	c-0.8,0-1.5-0.4-1.9-1c-0.1-0.3-0.1-0.7,0-1c0.5-1.6,0.6-3.4,0.2-5.1c0-0.7-0.5-1.2-1.2-1.3c-0.3,0-0.6,0.1-0.9,0.4
	c-0.7,0.5-1.3,1.2-1.7,2c-1.2,2.7-1.7,5.7-1.3,8.6c0.4,2.8,2.5,3.7,4.8,2.1c1.1-0.7,2-1.7,2.7-2.9c0.3-0.6,0.9-1,1.5-1.2
	c0.7-0.2,1.9,0.9,1.9,1.8c0,0.6-0.1,1.2-0.4,1.7C211.6,259.3,209.3,261.2,205.8,261.1z"/>
<path class="st1" d="M215.9,48.5c-0.9,0.1-1.8-0.2-2.4-0.9c-0.6-0.5-0.9-1.3-0.6-2c0.2-0.7,0-1.4-0.6-1.8c-0.5-0.4-1.2-0.4-1.8-0.1
	c-2.7,1.4-4.8,3.8-6,6.6c-0.5,1.3-1,2.6-1.3,3.9c-0.1,0.7-0.6,1.1-1.3,1.1c-1.5,0.1-3-0.5-4-1.7c-0.6-0.7-0.5-1.8,0.2-2.5
	c0,0,0,0,0.1,0c0.3-0.3,0.5-0.6,0.7-1c1.3-3.4,2.5-6.7,3.8-10.1c0.1-0.3,0.2-0.5,0.3-0.8c0.7-1.6,1.4-2,3-1.5c1.4,0.3,2.6,1,3.4,2.1
	c0.2,0.2,0.5,0.3,0.7,0.3c3.7-0.1,6.9,2.4,7.6,6C218.1,47.5,217.8,48.7,215.9,48.5z"/>
<path class="st1" d="M122.4,246.6c0.1,3,0.2,6.1,0.3,9.2c0,0.9,0.2,1.8,0.2,2.6c0,0.9-0.6,1.6-1.4,1.8c-0.8,0.3-1.7,0-2-0.8
	c-0.7-1.1-1-2.4-1-3.8c0-2.7,0-5.4,0-8.1c0-0.6-0.1-1-0.8-1c-0.7-0.1-1.4-0.2-2-0.5c-0.4-0.1-0.7-0.6-0.6-1c0-0.1,0.1-0.2,0.2-0.3
	c0.5-0.9,1.4-1.5,2.5-1.4c0.5,0.1,1-0.2,1.1-0.7c0-0.1,0-0.2,0-0.3c0-1.6-0.1-3.2-0.1-4.8c0-0.4,0.2-0.9,0.5-1.2
	c0.6-0.6,1.5-0.8,2.2-0.4c1.4,0.6,2,2.1,1.6,3.9c-0.2,0.9-0.4,1.8-0.6,2.8c0.7,0.2,1.2,0.2,1.7,0.4c0.4,0.1,0.8,0.3,1.1,0.6
	c0.6,0.3,0.8,1.1,0.5,1.6c-0.2,0.3-0.4,0.5-0.7,0.6C124.4,246.1,123.5,246.3,122.4,246.6z"/>
<path class="st1" d="M91.6,249.6c0.2-2.3,0.3-4.6,0.4-6.9c-0.1-0.5,0.3-0.9,0.7-0.9c0.1,0,0.2,0,0.3,0c0.4,0,0.8,0,1.2,0.1
	c2.4,0.5,2.7,1,2.4,3.5c-0.3,1.7-0.5,3.4-0.5,5.1c0,3-0.4,6,0.4,8.9c0,0.7-0.6,1.2-1.3,1.2c-1.4,0.2-2.8-0.7-3.1-2.2
	c0-0.2,0-0.3,0-0.5C91.9,255.1,91.8,252.4,91.6,249.6z"/>
<path class="st1" d="M105.7,23.2c-0.2,0.7-0.4,1.4-0.7,2.1c-1,1.9-2.5,3.5-4.4,4.6c-0.8,0.4-1.6,0.6-2.4,0.6c-0.3,0-0.6-0.2-0.8-0.5
	c0-0.3,0.1-0.6,0.3-0.9c0.6-0.6,1.3-1.1,1.8-1.7s0.8-1.2,1.1-1.9c0.4-1.3-0.1-2.1-1.5-2.3c-0.7-0.1-1.4-0.2-2-0.4
	c-0.9-0.1-1.5-0.9-1.4-1.7c0-0.3,0.2-0.6,0.4-0.9c1.8-2.3,5-3,7.6-1.7C105.4,19.5,105.6,21.1,105.7,23.2z"/>
<path class="st1" d="M189.4,103.8c-1.1-0.2-2.2-0.4-3.3-0.7c-0.4-0.1-0.7-0.4-0.8-0.8c0-0.4,0.3-0.8,0.7-1c1.1-0.5,2.2-0.9,3.4-1.2
	c1.9-0.5,3.9-0.4,5.8,0.1c0.5,0.1,0.9,0.5,1.1,0.9c-0.1,0.5-0.5,0.9-0.9,1.2C193.4,103.2,191.4,103.7,189.4,103.8z"/>
<path class="st1" d="M175.6,95.8c-2.5-0.1-4.5-0.2-6.4-1.2c-0.4-0.2-0.7-0.6-0.8-1c0.1-0.4,0.5-0.8,0.9-0.9c3.1-1,6.4-0.7,9.3,0.6
	c0.4,0.2,0.7,0.6,0.8,1c-0.1,0.4-0.5,0.8-0.9,0.9C177.4,95.4,176.4,95.6,175.6,95.8z"/>
<path class="st1" d="M90.4,118.2c0.2-1.2,0.5-2.8,0.8-4.4c0.1-0.5,0.3-0.9,0.6-1.3c0.2-0.4,0.7-0.7,1.1-0.8c0.5,0.2,0.8,0.6,0.9,1.1
	c0.2,1.1,0.4,2.1,0.4,3.2c0.1,1.9-0.3,3.8-1.2,5.5c-0.4,0.5-0.8,0.9-1.3,1.2c-0.4-0.4-0.7-0.9-1-1.5
	C90.5,120.2,90.4,119.2,90.4,118.2z"/>
<path class="st1" d="M84.7,116.4c0.4-1.8,0.8-3.6,1.3-5.4c0.1-0.3,0.2-0.6,0.4-0.8c0.3-0.3,0.6-0.5,1-0.6c0.4,0.1,0.7,0.4,0.8,0.8
	c0.3,1.2,0.4,2.4,0.5,3.6c0.1,1.9-0.3,3.7-1.2,5.4c-0.4,0.5-0.8,0.9-1.3,1.2c-0.4-0.4-0.7-0.9-1-1.5c-0.2-0.9-0.3-1.7-0.3-2.6
	L84.7,116.4z"/>
<path class="st1" d="M206.8,92.9c-0.2,2.6-1.1,5.2-2.6,7.3c-0.4,0.6-1,1.4-1.7,1c-0.5-0.5-0.7-1.1-0.6-1.8c0.1-2.7,1-5.3,2.6-7.5
	c0.4-0.6,0.9-1.4,1.8-1.1s0.6,1.2,0.6,1.9C206.8,92.8,206.8,92.9,206.8,92.9z"/>
<path class="st1" d="M103.5,108.6c-1.3-0.2-2.6-0.4-3.9-0.7c-0.4-0.1-0.7-0.2-1-0.4c-0.9-0.5-0.9-1.2,0-1.7c0.6-0.3,1.3-0.5,1.9-0.7
	c2.3-0.5,4.7-0.4,7,0.2c0.7,0.2,1.6,0.4,1.6,1.2s-0.9,1.1-1.6,1.2C106.2,108.2,104.9,108.4,103.5,108.6z"/>
<path class="st1" d="M91.7,94.6c1.3,0.2,2.7,0.5,4,0.7c0.4,0.1,0.7,0.3,1,0.5c0.7,0.5,0.7,1.1,0,1.5c-0.6,0.4-1.3,0.6-2.1,0.8
	c-2.3,0.5-4.7,0.4-7-0.2c-0.7-0.2-1.6-0.4-1.6-1.2s0.9-1.1,1.6-1.2C89,95,90.4,94.8,91.7,94.6z"/>
<path class="st1" d="M97.4,99.9c1.3,0.2,2.6,0.4,3.8,0.7c0.4,0.1,0.7,0.2,1,0.4c0.9,0.5,0.9,1.2,0,1.7c-0.6,0.3-1.3,0.5-1.9,0.7
	c-2.3,0.5-4.7,0.4-7-0.2c-0.7-0.2-1.6-0.4-1.6-1.2s0.9-1.1,1.5-1.2C94.7,100.3,96,100.1,97.4,99.9z"/>
<path class="st1" d="M88.2,88.9c1.3,0.2,2.6,0.4,3.9,0.7c0.3,0.1,0.7,0.2,0.9,0.4c1,0.6,1,1.2,0,1.8c-0.3,0.2-0.7,0.3-1,0.4
	c-2.5,0.7-5.2,0.7-7.7,0c-0.7-0.2-1.6-0.4-1.7-1.3s0.9-1.1,1.6-1.3C85.6,89.3,86.9,89.1,88.2,88.9z"/>
<path class="st1" d="M185.5,86.1c-2.6-0.1-5.1-1-7.3-2.4c-0.6-0.4-1.3-0.9-1.1-1.7s1.1-0.7,1.8-0.7c2.7,0,5.4,0.9,7.7,2.4
	c0.6,0.4,1.3,0.8,1.1,1.7s-1.2,0.7-1.9,0.7H185.5z"/>
<path class="st1" d="M180.5,96.8c-0.3,2.4-1.3,4.7-2.8,6.6c-0.6,0.7-1.2,1.4-1.9,1.9c-0.3,0.2-0.8,0.3-1.2,0.2
	c-0.3-0.3-0.5-0.7-0.4-1.1c0.4-1.5,0.8-3,1.4-4.4c0.6-1.5,1.7-2.9,3-3.9c0.4-0.3,0.8-0.4,1.2-0.3C180.3,96.1,180.5,96.4,180.5,96.8z
	"/>
<path class="st1" d="M99.8,130.8c-0.1,0.3-0.1,0.6-0.3,0.9c-1.2,2.6-3.1,4.7-5.5,6.1c-0.6,0.4-1.3,0.9-2,0.3s-0.2-1.4,0.1-2
	c1.2-2.4,3-4.4,5.2-5.8c0.4-0.3,0.9-0.4,1.3-0.6C99.4,129.7,99.8,130,99.8,130.8z"/>
<path class="st1" d="M86,135.6c-0.8,0-1.2-0.3-1.1-0.9c0-0.4,0.1-0.8,0.3-1.1c1.2-2.5,3.1-4.6,5.5-6c0.6-0.3,1.3-0.8,1.9-0.3
	c0.6,0.6,0.2,1.3-0.1,2c-1.1,2.3-2.9,4.2-5,5.6C87,135.2,86.5,135.4,86,135.6z"/>
<path class="st1" d="M110.2,113.9c-1.2-0.2-2.5-0.4-3.7-0.6c-0.4-0.1-0.7-0.2-1-0.4c-0.4-0.2-0.6-0.5-0.7-0.9
	c0.1-0.4,0.4-0.7,0.8-0.9c1-0.4,2-0.7,3.1-0.8c1.8,0,3.6,0.1,5.4,0.4c0.8,0.1,1.9,0.4,1.8,1.3s-1.1,1.1-1.9,1.3
	C112.6,113.6,111.4,113.7,110.2,113.9z"/>
<path class="st1" d="M100.5,118.4c-0.2,1.5-0.4,2.8-0.6,4c-0.1,0.4-0.2,0.7-0.4,1c-0.4,0.4-0.7,0.8-1.2,1.1c-0.4-0.3-0.7-0.7-1-1.2
	c-1-2.9-0.8-6.1,0.3-9c0.2-0.4,0.6-0.8,1.1-0.9c0.4,0.1,0.8,0.5,0.9,0.9C100,115.8,100.3,117.2,100.5,118.4z"/>
<path class="st1" d="M201,120c-1.5-0.3-2.9-0.5-4.1-0.9c-0.5-0.3-0.9-0.6-1.2-1.1c0.4-0.4,0.8-0.8,1.3-1.1c2.1-0.8,4.3-1,6.5-0.6
	c0.8,0.1,1.6,0.3,2.4,0.6c0.4,0.2,0.8,0.5,0.9,1c-0.2,0.5-0.5,0.8-1,1C204.2,119.4,202.5,119.7,201,120z"/>
<path class="st1" d="M182.7,109.7c-0.8-0.1-1.6-0.3-2.5-0.4c-1-0.3-1.2-1-0.3-1.6c0.7-0.5,1.5-1,2.4-1.3c1.9-0.7,3.9-1,5.9-0.9
	c0.4,0,0.9,0.1,1.3,0.2c1.1,0.4,1.2,1.1,0.3,1.7c-0.7,0.5-1.5,1-2.3,1.2C185.8,109.1,184.1,109.4,182.7,109.7z"/>
<path class="st1" d="M74.9,99.9c0,2.4-0.7,4.8-1.9,6.9c-0.4,0.4-0.9,0.8-1.4,1.1c-0.4-0.5-0.7-1-0.8-1.6c-0.3-3,0.4-6,2-8.5
	c0.3-0.4,0.7-0.7,1.2-0.7c0.4,0.3,0.7,0.7,0.8,1.1c0.1,0.1,0.1,0.3,0.1,0.4C74.9,99,74.9,99.4,74.9,99.9z"/>
<path class="st1" d="M189.9,82.1c-2.6-0.1-5.1-1-7.2-2.4c-0.6-0.4-1.3-0.9-1.1-1.7s1.1-0.7,1.8-0.7c2.7,0,5.3,0.8,7.6,2.3
	c0.6,0.4,1.4,0.9,1.2,1.7S191,82,190.3,82L189.9,82.1L189.9,82.1z"/>
<path class="st1" d="M207.5,106.3c1.5,0.3,2.9,0.6,4.2,1c0.4,0.2,0.8,0.5,0.9,1c-0.1,0.5-0.4,0.8-0.9,1c-2.9,1.1-6.1,1.2-9,0.2
	c-0.5-0.3-0.9-0.7-1.2-1.1c0.3-0.4,0.8-0.8,1.2-1.1C204.4,106.9,205.9,106.7,207.5,106.3z"/>
<path class="st1" d="M193.3,97.6c-0.9-0.1-1.7-0.3-2.6-0.5c-0.4,0-0.8-0.4-0.8-0.9c0-0.3,0.2-0.6,0.5-0.7c0.7-0.5,1.5-1,2.4-1.3
	c2-0.7,4.1-1,6.2-0.8c0.4,0,0.8,0.1,1.2,0.3c0.9,0.4,1,1,0.3,1.6s-1.6,1-2.5,1.3C196.4,97.1,194.7,97.3,193.3,97.6z"/>
<path class="st1" d="M215,127c-1.6-0.3-2.9-0.5-4.3-0.9c-0.5-0.3-0.9-0.6-1.2-1.1c0.3-0.4,0.8-0.8,1.2-1.1c2.1-0.8,4.3-1,6.5-0.7
	c0.8,0.1,1.7,0.3,2.5,0.6c0.4,0.2,0.8,0.5,0.9,1c-0.1,0.5-0.5,0.8-0.9,1C218.2,126.4,216.5,126.7,215,127z"/>
<path class="st1" d="M208.7,127.7c2.3,0.3,4.5,1.1,6.4,2.4c0.8,0.5,1.5,1.1,2.1,1.8c0.7,0.8,0.3,1.7-0.7,1.6
	c-1.6-0.2-3.1-0.5-4.5-1.1c-1.2-0.6-2.4-1.2-3.4-2c-0.3-0.1-0.5-0.3-0.6-0.6c-0.3-0.4-0.4-0.9-0.4-1.4
	C207.8,128,208.3,127.8,208.7,127.7z"/>
<path class="st1" d="M203.7,115.1c-1.3-0.3-2.7-0.5-4-0.8c-0.4-0.3-0.8-0.6-1.1-1c0.3-0.4,0.8-0.8,1.2-1.1c2.1-0.8,4.3-1,6.5-0.7
	c0.9,0.1,1.7,0.3,2.5,0.7c0.4,0.2,0.7,0.5,0.8,0.9c-0.1,0.4-0.4,0.8-0.8,0.9C207.3,114.7,205.5,115.1,203.7,115.1z"/>
<path class="st1" d="M146.5,79.7c-0.1,0.5-0.3,1-0.5,1.5c-0.9,2.1-2.2,4-3.9,5.5c-0.3,0.3-0.6,0.5-1,0.7s-0.8,0.3-1.2,0.1
	c-0.3-0.4-0.4-0.8-0.3-1.3c0.1-0.7,0.4-1.4,0.7-2c0.8-1.8,2-3.5,3.5-4.8c0.4-0.4,0.9-0.7,1.4-0.9C146,78.2,146.5,78.5,146.5,79.7z"
	/>
<path class="st1" d="M152.5,80.9c-0.1,0.8-0.3,1.6-0.5,2.4c-0.3,0.9-0.9,1-1.5,0.3c-1.1-1.3-1.7-2.9-1.9-4.5
	c-0.2-1.5-0.2-3.1-0.2-4.6c0.2-0.5,0.4-1,0.8-1.4c0.5,0.3,1,0.6,1.3,1C151.8,76.2,152.5,78.5,152.5,80.9z"/>
<path class="st1" d="M155.4,88.2c0.5-1.5,1.1-2.9,1.8-4.3c0.9-1.3,2-2.6,3.1-3.7c0.3-0.3,0.8-0.4,1.2-0.2c0.3,0.3,0.5,0.7,0.4,1.2
	c-0.5,3.2-2.2,6.1-4.7,8.1c-0.4,0.3-0.8,0.4-1.2,0.2C155.7,89.1,155.5,88.7,155.4,88.2z"/>
<path class="st1" d="M160.4,126.9c-1.4-0.3-2.8-0.5-4.1-0.9c-0.4-0.1-0.7-0.5-0.8-0.9c0.1-0.4,0.4-0.8,0.8-1
	c1.2-0.5,2.4-0.8,3.7-0.9c1.6-0.1,3.2,0,4.8,0.3c0.7,0.1,1.3,0.5,1.7,1.2c0.2,0.8-0.8,1.2-1.5,1.3
	C163.4,126.3,161.9,126.5,160.4,126.9z"/>
<path class="st1" d="M69.4,97.5c-0.2,1.5-0.3,2.6-0.5,3.8c-0.1,0.5-0.3,1-0.6,1.5c-0.2,0.4-0.5,0.6-0.9,0.7
	c-0.4-0.1-0.7-0.4-0.9-0.8c-0.8-1.8-1-3.8-0.8-5.8c0.2-1.2,0.4-2.4,0.8-3.6c0-0.6,0.4-1,1-1s1,0.4,1,1
	C68.9,94.9,69.2,96.3,69.4,97.5z"/>
<path class="st1" d="M175.4,86.1c2,0,4,0.4,5.8,1.1c0.6,0.3,1.5,0.6,1.4,1.4s-1,0.9-1.6,1c-2.7,0.5-5.5,0.2-8-0.8
	c-0.6-0.2-1.5-0.6-1.4-1.4s1-0.9,1.6-1C174.1,86.2,174.9,86.1,175.4,86.1z"/>
<path class="st1" d="M180,75.2c-0.9,0-1.2-0.4-1-1c0.3-0.9,0.7-1.8,1.2-2.6c1.2-1.8,2.7-3.3,4.6-4.3c0.6-0.4,1.4-0.9,2-0.3
	s0.1,1.4-0.2,2c-1.2,2.4-3.1,4.4-5.4,5.8C180.8,74.9,180.4,75.1,180,75.2z"/>
<path class="st1" d="M55,100c2.1,0.2,4.2,0.9,5.9,2.1c0.9,0.6,1.8,1.4,2.6,2.2c0.3,0.3,0.4,0.8,0.3,1.2c-0.3,0.3-0.7,0.5-1.2,0.5
	c-2.2-0.2-4.2-1-6-2.3c-0.8-0.6-1.6-1.2-2.2-2c-0.3-0.4-0.4-0.8-0.3-1.3C54.3,100.2,54.7,100,55,100z"/>
<path class="st1" d="M102.6,148.4c0,2.3-0.6,4.6-1.7,6.7c-0.3,0.6-0.7,1.4-1.5,1.1c-0.5-0.4-0.9-1-0.9-1.7c-0.3-2.8,0.3-5.6,1.7-8
	c0.3-0.6,0.7-1.4,1.4-1.1c0.5,0.4,0.8,1,0.9,1.6C102.6,147.5,102.6,148,102.6,148.4z"/>
<path class="st1" d="M115.4,59.7c-0.1,0.4-0.3,0.8-0.6,1.1c-0.5,0.1-1-0.1-1.3-0.4c-2.2-2.1-3.6-5-3.9-8c0-0.3,0-0.6,0.1-0.9
	c0-0.4,0.4-0.7,0.8-0.7c0.1,0,0.3,0.1,0.4,0.1c0.2,0.1,0.4,0.2,0.5,0.3C113.5,53.4,115,56.4,115.4,59.7z"/>
<path class="st1" d="M123.9,53.7c0.8,0,1.1,0.4,0.9,1c-0.1,0.5-0.3,0.9-0.6,1.3c-1.5,2.2-3.6,3.9-6,5c-0.6,0.3-1.4,0.7-2,0.1
	s0-1.4,0.3-1.9c1.5-2.3,3.7-4.2,6.3-5.2c0.2-0.1,0.4-0.1,0.7-0.2C123.6,53.6,123.7,53.6,123.9,53.7z"/>
<path class="st1" d="M191.9,110.9c0-2.2,0.5-4.3,1.5-6.3c0.3-0.7,0.7-1.6,1.6-1.4s0.8,1.1,0.9,1.9c0.2,2.7-0.3,5.3-1.6,7.7
	c-0.3,0.6-0.7,1.4-1.6,1.3s-0.8-1.1-0.9-1.8C191.9,111.8,191.9,111.4,191.9,110.9z"/>
<path class="st1" d="M185.8,75.7c-0.4,0-0.6,0-0.8-0.1c-1-0.2-1.3-0.8-0.7-1.5s1.3-1.2,2-1.7c1.8-1.1,3.8-1.9,5.9-2.1
	c0.7-0.1,1.7-0.2,2,0.6s-0.4,1.3-1,1.8C191.2,74.3,188.6,75.4,185.8,75.7z"/>
<path class="st1" d="M65.2,133.2c-0.9,0-1.2-0.4-1-1.2c0.1-0.3,0.2-0.5,0.3-0.7c1.8-2.5,4.3-4.3,7.3-5.1c0.5-0.1,1,0,1.4,0.3
	c0.1,0.5,0.1,1-0.2,1.4c-1.8,2.6-4.4,4.5-7.4,5.3C65.5,133.2,65.4,133.2,65.2,133.2z"/>
<path class="st1" d="M191.2,113.6c-0.2,1.4-0.4,2.8-0.7,4.2c-0.2,0.7-0.5,1.6-1.3,1.5c-0.6-0.3-1-0.8-1.2-1.5
	c-0.8-2.6-0.7-5.4,0.1-7.9c0.2-0.7,0.4-1.6,1.3-1.6s1,0.9,1.2,1.6C190.9,111.2,191,112.4,191.2,113.6z"/>
<path class="st1" d="M157.6,95.1c0.6-1.4,1.1-2.9,1.8-4.3c0.7-1.5,1.8-2.8,3.2-3.8c0.4-0.3,0.8-0.3,1.2-0.2c0.3,0.3,0.5,0.7,0.4,1.2
	c-0.5,3.2-2.2,6.1-4.7,8.1c-0.4,0.3-0.8,0.4-1.2,0.2C157.9,96,157.7,95.6,157.6,95.1z"/>
<path class="st1" d="M58.4,112.8c-0.4,0-0.8-0.1-1.2-0.2s-0.8-0.4-1.1-0.8c0-0.4,0.2-0.8,0.6-1.1c0.9-0.6,1.9-1.1,2.9-1.5
	c1.9-0.8,3.9-1.1,5.9-0.8c0.5,0.2,1,0.5,1.4,0.8c-0.2,0.5-0.5,0.9-0.9,1.3C63.7,112,61.1,112.8,58.4,112.8z"/>
<path class="st1" d="M132.9,65.3c0,2-0.4,4-1.2,5.9c-0.3,0.6-0.6,1.4-1.4,1.3s-0.9-0.9-1-1.6c-0.5-2.8-0.1-5.6,1.1-8.2
	c0.4-0.5,0.8-0.9,1.3-1.2c0.4,0.4,0.7,0.9,1,1.5C132.8,63.7,132.9,64.5,132.9,65.3z"/>
<path class="st1" d="M210.1,138c-0.4-0.1-1-0.4-1.6-0.6c-2.2-1-4.1-2.6-5.5-4.6c-0.4-0.6-1-1.3-0.4-2s1.3-0.2,2,0
	c2.5,1,4.6,2.7,6.2,4.8c0.3,0.4,0.5,0.8,0.6,1.3C211.5,137.7,211.2,138,210.1,138z"/>
<path class="st1" d="M190.5,132.9c1.5,0.2,2.9,0.9,4,1.9c1.2,1,2.3,2.1,3.4,3.3c0.5,0.5,1,1.4,0.5,2.1s-1.3,0.2-2,0
	c-2.4-1-4.6-2.7-6.1-4.8c-0.3-0.4-0.5-0.8-0.6-1.2c-0.3-0.4-0.2-0.9,0.2-1.1C190,132.8,190.2,132.8,190.5,132.9z"/>
<path class="st1" d="M80.2,113.8c0.1-2.2,0.7-4.4,1.8-6.4c0.1-0.2,0.2-0.4,0.4-0.6c0.3-0.3,0.7-0.5,1.2-0.6c0.4,0.2,0.6,0.6,0.7,1
	c0.4,2,0.2,4.1-0.5,6.1c-0.4,1-0.8,2.1-1.4,3c-0.2,0.4-0.6,0.6-1.1,0.6c-0.4-0.2-0.7-0.6-0.8-1C80.4,115.3,80.3,114.6,80.2,113.8z"
	/>
<path class="st1" d="M134.5,113.2c-1.5,0-1.8-0.6-1.2-1.6c0.9-1.3,2.2-2.4,3.6-3.1c1.4-0.9,3-1.5,4.6-1.6c0.4,0,0.9,0.1,1.2,0.4
	c0.1,0.4,0,0.8-0.2,1.2C140.5,111,137.6,112.7,134.5,113.2z"/>
<path class="st1" d="M176.5,110.9c2.8,0.4,5.5,1.5,7.7,3.2c0.5,0.4,1.3,1,1,1.8s-1.2,0.6-1.9,0.6c-2.7-0.3-5.2-1.3-7.4-3
	c-0.1-0.1-0.2-0.1-0.2-0.2c-0.2-0.5-0.5-1.1-0.7-1.6L176.5,110.9z"/>
<path class="st1" d="M179.4,117.9c0-0.2,0-0.5,0.1-0.7c0.2-0.9,0.8-1.2,1.5-0.6c1.3,1,2.2,2.4,2.8,4c0.5,1.3,0.8,2.5,1.1,3.9
	c0.2,0.7,0.3,1.7-0.6,2.1s-1.3-0.4-1.8-0.9C180.7,123.4,179.6,120.7,179.4,117.9z"/>
<path class="st1" d="M179.1,127.6c-0.2,1.4-0.4,2.6-0.8,3.9c-0.1,0.4-0.4,0.8-0.8,0.9c-0.5-0.1-0.9-0.4-1.1-0.8
	c-0.5-1.2-0.9-2.4-1.1-3.7c-0.1-1.6-0.1-3.2,0.1-4.8c0.1-0.7,0.3-1.6,1.2-1.7s1.2,0.8,1.3,1.5C178.4,124.4,178.7,126,179.1,127.6z"
	/>
<path class="st1" d="M54.9,126.2c-0.5,0-1-0.1-1.5-0.2c-0.9-0.3-1.1-1-0.4-1.5c1-0.8,2.1-1.4,3.3-1.9c1.8-0.7,3.7-1,5.6-0.8
	c0.6,0.1,1.4,0.1,1.4,0.8c-0.1,0.6-0.4,1.1-0.9,1.4C60.2,125.4,57.6,126.2,54.9,126.2z"/>
<path class="st1" d="M204.1,139.4c-1.3-0.6-2.5-1.2-3.7-2c-1.3-1-2.5-2.2-3.6-3.4c-0.5-0.5-1-1.3-0.5-2s1.4-0.2,2.1,0
	c2.5,1,4.6,2.7,6.2,4.9c0.3,0.4,0.4,0.8,0.5,1.2c0.2,0.8-0.2,1.1-1,1.1V139.4z"/>
<path class="st1" d="M184.3,134.2c1.3,0.6,2.6,1.3,3.8,2.1c1.2,1,2.4,2.1,3.4,3.3c0.5,0.5,1,1.4,0.4,2.1s-1.3,0.2-2,0
	c-2.4-1-4.6-2.7-6.1-4.8c-0.3-0.4-0.5-0.8-0.6-1.2c-0.2-0.8,0.1-1.2,0.9-1.2L184.3,134.2z"/>
<path class="st1" d="M108.4,149c0-2.4,0.6-4.7,1.8-6.8c0.3-0.5,0.7-1.3,1.4-1c0.5,0.3,0.8,0.9,0.9,1.5c0.3,2.9-0.3,5.8-1.7,8.2
	c-0.4,0.4-0.9,0.8-1.4,1.1c-0.3-0.5-0.6-1-0.9-1.6C108.4,150,108.3,149.5,108.4,149z"/>
<path class="st1" d="M103.2,151.3c0-2.4,0.6-4.8,1.8-6.9c0.3-0.5,0.7-1.3,1.4-1c0.5,0.3,0.8,0.8,0.8,1.4c0.4,2.9-0.2,5.9-1.8,8.4
	c-0.4,0.4-0.8,0.8-1.4,1c-0.3-0.5-0.6-1-0.8-1.5C103.2,152.3,103.2,151.8,103.2,151.3z"/>
<path class="st1" d="M93.5,155.6c0-1.9,0.4-3.9,1.2-5.7c0.2-0.4,0.4-0.8,0.6-1.1c0.3-0.5,0.7-1.2,1.4-0.9c0.4,0.3,0.7,0.8,0.8,1.3
	c0.4,3-0.2,6.1-1.8,8.7c-0.3,0.4-0.7,0.6-1.2,0.9c-0.3-0.4-0.6-0.8-0.9-1.3c-0.1-0.1-0.1-0.3-0.1-0.4
	C93.5,156.5,93.5,156.1,93.5,155.6z"/>
<path class="st1" d="M95.9,81c-0.2,1.3-0.4,2.6-0.8,3.8c-0.3,0.5-0.7,0.9-1.1,1.3c-0.4-0.3-0.8-0.7-1.1-1.2c-0.8-1.9-1-4-0.7-6.1
	c0.1-1,0.3-2,0.7-2.9c0.1-0.4,0.5-0.7,0.9-0.9c0.4,0.1,0.8,0.4,1,0.8C95.4,77.5,95.8,79.2,95.9,81z"/>
<path class="st1" d="M169.7,76c-0.1,0.4-0.3,0.8-0.6,1.1c-0.5,0.1-1,0-1.4-0.4c-1-1-2-2.2-2.7-3.5c-0.7-1.4-1.2-2.9-1.6-4.5
	c0-0.5,0.1-1,0.4-1.4c0.5,0.1,1,0.2,1.5,0.5c1.7,1.5,3,3.4,3.7,5.6C169.2,74.2,169.4,75.1,169.7,76z"/>
<path class="st1" d="M167.6,81.3c-0.1,0.4-0.3,0.8-0.6,1.1c-0.5,0.1-1,0-1.4-0.4c-1.1-1.1-2-2.3-2.8-3.6c-0.7-1.4-1.2-2.9-1.5-4.4
	c0-0.5,0.1-1,0.4-1.4c0.5,0.1,1,0.2,1.5,0.5c1.7,1.5,3,3.4,3.7,5.6C167.2,79.5,167.4,80.4,167.6,81.3z"/>
<path class="st1" d="M117.5,80.3c-1.5,0-1.9-0.6-1.3-1.6c0.9-1.3,2.2-2.4,3.6-3.1c1.4-0.9,3-1.5,4.7-1.7c0.4,0,0.8,0.1,1.1,0.4
	c0.1,0.4,0,0.8-0.2,1.2C123.5,78,120.7,79.7,117.5,80.3z"/>
<path class="st1" d="M90.5,87.2c-2.6-0.1-5.1-0.9-7.3-2.4c-0.5-0.4-1.2-0.8-1-1.5s1.1-0.8,1.7-0.8c2.7,0,5.3,0.7,7.6,2.2
	c0.6,0.4,1.5,0.8,1.3,1.7s-1.2,0.7-2,0.8L90.5,87.2L90.5,87.2z"/>
<path class="st1" d="M139.8,99.1c-1.1,0-1.5-0.6-0.9-1.6c0.9-1.3,2.2-2.4,3.6-3.1c1.4-0.9,3-1.5,4.7-1.7c0.4,0,0.8,0.1,1.1,0.4
	c0.1,0.4,0,0.8-0.2,1.2C147,96.5,142.2,99.2,139.8,99.1z"/>
<path class="st1" d="M145.7,99.7c0.4,0.1,0.8,0.3,1.1,0.6c0.1,0.4,0,0.9-0.2,1.2c-1.2,1.6-2.8,2.8-4.7,3.6c-1.1,0.4-2.2,0.8-3.3,1
	c-0.5,0.1-0.9-0.1-1.3-0.4c-0.1-0.4,0-0.9,0.3-1.3c1.3-1.7,3.1-2.9,5.1-3.7C143.5,100.3,144.6,100,145.7,99.7z"/>
<path class="st1" d="M63.7,118c-0.5,0-0.9-0.1-1.4-0.2c-0.4-0.1-0.8-0.4-1-0.7c0-0.4,0.2-0.9,0.6-1.1c0.9-0.6,1.9-1.1,2.9-1.5
	c1.9-0.8,4-1.1,6-0.8c0.6,0,1,0.4,1.1,0.9c0,0.4-0.2,0.8-0.5,1c-1.7,1.2-3.6,1.9-5.6,2.2C65.1,117.8,64.4,117.9,63.7,118z"/>
<path class="st1" d="M138.8,114c0.4,0.1,0.8,0.3,1.2,0.6c0.1,0.4,0,0.9-0.2,1.2c-1.2,1.6-2.8,2.8-4.6,3.6c-1,0.5-2.1,0.8-3.2,1
	c-0.5,0-1.1-0.2-1.6-0.4c0.1-0.5,0.2-1,0.5-1.5c1.3-1.5,2.9-2.7,4.7-3.4C136.5,114.6,137.7,114.3,138.8,114z"/>
<path class="st1" d="M130.2,91.1c-1.7-0.9-3.5-1.8-5.2-2.8c-0.7-0.4-1.2-1-1.7-1.7c-0.3-0.4-0.4-0.9-0.3-1.3
	c0.3-0.3,0.7-0.5,1.2-0.4c1.4,0.3,2.8,0.8,4.2,1.4c1.2,0.7,2.4,1.6,3.4,2.5c0.3,0.2,0.5,0.5,0.6,0.8c0.6,1,0.2,1.6-0.9,1.5
	C131.1,91.2,130.6,91.1,130.2,91.1L130.2,91.1z"/>
<path class="st1" d="M170.5,115c2.6,0.2,5.1,1.1,7.2,2.6c0.6,0.4,1.4,1,1.1,1.8s-1.2,0.7-1.9,0.6c-2.7-0.2-5.2-1.1-7.4-2.6
	c-0.1-0.1-0.2-0.1-0.3-0.2c-0.4-0.5-1.2-1-0.8-1.6c0.3-0.4,1.1-0.4,1.7-0.6C170.3,114.9,170.4,114.9,170.5,115z"/>
<path class="st1" d="M106,120.3c-0.2,1.4-0.4,2.8-0.7,4.1c-0.1,0.6-0.4,1.1-0.7,1.5c-0.2,0.4-0.6,0.6-1,0.4
	c-0.2-0.1-0.3-0.2-0.4-0.4c-0.3-0.4-0.5-0.9-0.6-1.3c-0.6-2.4-0.5-4.9,0.2-7.3c0.1-0.3,0.2-0.6,0.3-0.9c0.4-0.4,0.7-0.8,1.2-1.1
	c0.4,0.3,0.8,0.7,1,1.2C105.6,117.7,105.8,119,106,120.3z"/>
<path class="st1" d="M101.4,80.7c-0.5,1.8-1,3.7-1.6,5.5c-0.2,0.6-0.6,1.1-1,1.5c-0.2,0.4-0.7,0.5-1.1,0.3c-0.2-0.1-0.3-0.3-0.4-0.5
	c-0.2-0.5-0.3-1-0.3-1.6c-0.2-2.6,0.4-5.2,1.6-7.5c0.3-0.6,0.7-1.3,1.4-1.1s0.8,1,0.9,1.7s0.1,1.2,0.1,1.8L101.4,80.7z"/>
<path class="st1" d="M165.6,104.9c-0.4-0.1-0.7-0.3-1-0.6c-0.1-0.4,0-0.8,0.3-1.1c1.1-1.1,2.2-2,3.5-2.9c1.4-1,3.1-1.6,4.8-1.7
	c0.4,0,0.8,0.1,1.1,0.4c0.1,0.4,0,0.9-0.2,1.2C171.8,102.7,168.8,104.3,165.6,104.9z"/>
<path class="st1" d="M162.9,117.4c3.1-0.2,6.1,0.7,8.6,2.5c0.3,0.2,0.6,0.4,0.8,0.7c0.3,0.4,0.4,0.8,0.4,1.3
	c-0.3,0.4-0.7,0.6-1.1,0.6c-3.2,0.1-6.3-1.1-8.7-3.2C162.1,118.5,162.2,118.1,162.9,117.4L162.9,117.4z"/>
<path class="st1" d="M108.2,123.5c0.3-1.5,0.7-3.1,1.1-4.7c0.2-0.5,0.6-0.9,1.1-1c0.5,0.2,0.8,0.5,1,1c1,2.9,0.9,6.1-0.3,9
	c-0.2,0.5-0.6,0.9-1.1,1c-0.5-0.2-0.8-0.5-1-1C108.7,126.4,108.5,125,108.2,123.5z"/>
<path class="st1" d="M182.1,94.9c0-2.2,0.5-4.3,1.4-6.3c0.3-0.6,0.7-1.5,1.6-1.4s0.9,1.1,1,1.8c0.3,2.6-0.2,5.3-1.4,7.7
	c-0.3,0.7-0.7,1.5-1.6,1.4s-0.9-1.1-1-1.8C182.1,95.8,182.1,95.4,182.1,94.9z"/>
<path class="st1" d="M173.2,62.6c-0.1,1.1-0.6,1.4-1.5,1c-1.5-0.8-2.7-2.1-3.4-3.6c-0.7-1.4-1.3-2.8-1.8-4.2c-0.1-0.5,0-1,0.3-1.4
	c0.5-0.1,1,0,1.5,0.3c1.8,1.4,3.2,3.3,4.1,5.4C172.7,60.9,172.9,61.8,173.2,62.6z"/>
<path class="st1" d="M57.9,131.3c-1.7,0-2.2-0.7-1.4-1.5c1-1.2,2.2-2.2,3.5-3c1.4-0.7,2.9-1.3,4.4-1.7c0.5,0,1,0.1,1.5,0.4
	c-0.1,0.5-0.2,1-0.5,1.5c-1.3,1.5-2.9,2.8-4.8,3.5C59.7,130.8,58.5,131.1,57.9,131.3z"/>
<path class="st1" d="M103.1,75.9c2.1,0.3,4.1,1.1,5.8,2.3c0.9,0.6,1.7,1.4,2.5,2.2c0.3,0.4,0.5,0.9,0.4,1.3
	c-0.4,0.3-0.9,0.5-1.4,0.4c-2-0.3-4-1.1-5.6-2.4c-0.9-0.7-1.6-1.4-2.3-2.2c-0.3-0.3-0.3-0.8-0.2-1.2C102.4,76.2,102.7,76,103.1,75.9
	z"/>
<path class="st1" d="M124.5,61.2c0.4,0.1,0.8,0.3,1.1,0.6c0.1,0.4,0,0.9-0.2,1.2c-1.2,1.6-2.8,2.8-4.7,3.6c-1.1,0.4-2.2,0.8-3.3,1
	c-0.5,0.1-0.9-0.1-1.3-0.4c-0.1-0.5,0-0.9,0.3-1.3c1.3-1.7,3.1-2.9,5.1-3.7C122.4,61.8,123.5,61.5,124.5,61.2z"/>
<path class="st1" d="M103.2,69c2.2,0.3,4.2,1.1,5.9,2.4c0.9,0.7,1.7,1.5,2.5,2.3c0.3,0.3,0.4,0.8,0.2,1.2c-0.3,0.3-0.7,0.5-1.2,0.4
	c-3.2-0.5-6.1-2.1-8.1-4.6c-0.4-0.3-0.5-1-0.2-1.4C102.6,69.2,102.9,69,103.2,69z"/>
<path class="st1" d="M124.5,66.7c0.4,0.1,0.8,0.3,1.1,0.6c0.1,0.4,0,0.9-0.2,1.2c-1.2,1.6-2.8,2.8-4.6,3.6c-1.1,0.5-2.2,0.8-3.4,1.1
	c-0.5,0.1-0.9-0.1-1.3-0.4c-0.1-0.4,0-0.9,0.2-1.2c1.3-1.7,3-2.9,5-3.7C122.4,67.3,123.5,67.1,124.5,66.7z"/>
<path class="st1" d="M100.7,89c0.5-1.8,1-3.6,1.5-5.4c0.1-0.4,0.3-0.7,0.6-1c0.4-0.3,0.9-0.7,1.3-0.9c0.4,0.4,0.6,0.8,0.8,1.3
	c0.5,3-0.2,6.1-1.8,8.7c-0.1,0.6-0.6,0.9-1.2,0.8s-0.9-0.6-0.8-1.2c-0.1-0.7-0.2-1.5-0.2-2.2L100.7,89z"/>
<path class="st1" d="M104.9,94.7c0.1-2.1,0.7-4.3,1.7-6.2c0.3-0.6,0.7-1.4,1.5-1.2s0.9,1,0.9,1.7c0.3,2.8-0.3,5.6-1.7,8
	c-0.3,0.5-0.8,0.9-1.4,1c-0.8,0-0.8-0.9-0.9-1.5S104.9,95.3,104.9,94.7z"/>
<path class="st1" d="M126.5,80.9c3.6,0.1,6.3,1.8,8.7,4.2c0.4,0.4,0.6,1,0.6,1.6c-0.3,0.7-1.1,0.5-1.8,0.4c-2.8-0.6-5.4-2.1-7.3-4.2
	C125.9,82.2,125.9,81.7,126.5,80.9L126.5,80.9z"/>
<path class="st1" d="M117.8,126.2c-0.2,1.5-0.4,2.8-0.7,4c-0.1,0.5-0.3,1-0.7,1.5c-0.5,0.8-1.2,0.8-1.6,0s-0.6-1.6-0.7-2.4
	c-0.3-2-0.2-4,0.3-5.9c0.1-0.4,0.3-0.9,0.5-1.3s0.6-0.7,1-0.8c0.4,0.1,0.8,0.4,0.9,0.8C117.4,123.5,117.6,124.9,117.8,126.2z"/>
<path class="st1" d="M140.3,91.2c1.9-2.9,4.7-4.4,8-5.2c0.6-0.2,1.3,0,1.8,0.3c0.5,0.6-0.1,1.3-0.6,1.8c-2,2.1-4.7,3.6-7.6,4.1
	C140.9,92.4,140.5,92.1,140.3,91.2L140.3,91.2L140.3,91.2z"/>
<path class="st1" d="M171.3,69.1c-0.1,1.1-0.7,1.5-1.7,1c-1.4-0.8-2.5-2.1-3.3-3.5c-0.7-1.4-1.3-2.8-1.8-4.3c-0.1-0.5,0-1,0.3-1.3
	c0.5-0.1,1,0,1.5,0.3c1.8,1.4,3.2,3.2,4,5.2C170.8,67.4,171,68.3,171.3,69.1z"/>
<path class="st1" d="M131.2,75.8c2.1,0.3,4.2,1.1,5.9,2.4c0.9,0.7,1.7,1.5,2.5,2.3c0.3,0.3,0.4,0.8,0.3,1.2
	c-0.3,0.3-0.8,0.5-1.2,0.4c-3.1-0.5-6-2-8-4.4c-0.3-0.4-0.4-0.9-0.3-1.4C130.6,76,130.9,75.8,131.2,75.8z"/>
<path class="st1" d="M120.1,89.3c2.1,0.3,4.2,1.1,5.9,2.4c0.9,0.7,1.8,1.5,2.5,2.3c0.3,0.3,0.4,0.8,0.3,1.2
	c-0.3,0.3-0.8,0.5-1.2,0.5c-3.1-0.5-6-2.1-8-4.5c-0.3-0.4-0.4-0.8-0.3-1.3C119.4,89.6,119.7,89.4,120.1,89.3z"/>
<path class="st1" d="M104.6,58.4c2.1,0.2,4.2,1,5.9,2.3c0.9,0.7,1.8,1.5,2.6,2.4c0.3,0.3,0.4,0.8,0.2,1.2c-0.3,0.3-0.8,0.5-1.3,0.4
	c-3.1-0.5-6-2.1-8-4.5c-0.3-0.4-0.4-0.9-0.3-1.4C103.9,58.6,104.2,58.5,104.6,58.4z"/>
<path class="st1" d="M147.2,98.2c0-0.2,0-0.3,0-0.5c0.1-0.4,0.3-0.7,0.6-1c0.4-0.1,0.8,0.1,1.1,0.3c1.2,1.1,2,2.4,2.6,3.9
	c0.7,1.5,1.1,3.2,1.1,4.9c0,0.4-0.2,0.8-0.6,1.1c-0.4,0.1-0.8-0.1-1.1-0.4c-1-1.3-1.8-2.6-2.5-4c-0.5-1.4-0.9-2.8-1.2-4.2
	L147.2,98.2z"/>
<path class="st1" d="M140.8,69.9c0.5,0,1.1,0.1,1.6,0.3c0.9,0.3,1.1,0.9,0.4,1.6c-0.4,0.4-0.8,0.7-1.2,0.9c-2.2,1.2-4.7,1.7-7.3,1.6
	c-0.7,0-1.6,0-1.8-0.8s0.6-1.2,1.2-1.6C135.7,70.6,138.2,69.9,140.8,69.9z"/>
<path class="st1" d="M150.5,114.5c0,0.2,0,0.3,0,0.5c-0.1,1.1-0.7,1.3-1.6,0.7c-1.3-1.1-2.2-2.5-2.7-4.1c-0.5-1.5-0.8-3-1-4.6
	c0-0.5,0.2-1,0.6-1.2c0.5,0,1,0.2,1.3,0.5c1.5,1.7,2.6,3.7,3.1,5.9c0.2,0.7,0.3,1.5,0.4,2.3L150.5,114.5L150.5,114.5z"/>
<path class="st1" d="M97.1,140.2c0.2-0.5,0.4-1.1,0.7-1.6c1.2-2.3,3.1-4.2,5.4-5.4c0.5-0.2,1-0.2,1.5,0c0.2,0.4,0.3,0.9,0.1,1.4
	c-1.1,3-3.4,5.4-6.2,6.8C97.7,141.8,97.1,141.4,97.1,140.2z"/>
<path class="st1" d="M126.5,110c0,0.9-0.4,1.3-1.3,0.9c-0.6-0.3-1.1-0.6-1.6-1.1c-1.9-1.6-3.3-3.8-4-6.2c0-0.6,0-1.2,0.2-1.8
	c0.6,0,1.2,0.2,1.7,0.4c2.2,1.7,3.9,4,4.8,6.6c0.1,0.2,0.1,0.4,0.2,0.7C126.5,109.7,126.5,109.9,126.5,110z"/>
<path class="st1" d="M129.7,104.9c0,0.9-0.5,1.3-1.3,0.9c-1.1-0.7-2.1-1.5-3-2.5c-1-1.4-1.9-2.9-2.6-4.5c-0.1-0.3-0.2-0.6-0.2-0.9
	c0-0.4,0.1-0.8,0.3-1.1c0.4-0.2,0.8-0.2,1.2,0c2.8,1.8,4.8,4.5,5.6,7.7C129.7,104.7,129.7,104.8,129.7,104.9z"/>
<path class="st1" d="M87.5,150.1c-0.4,2.2-1.3,4.3-2.8,6c-0.7,0.8-1.5,1.6-2.4,2.3c-0.3,0.2-0.8,0.3-1.1,0.2
	c-0.3-0.4-0.4-0.8-0.4-1.3c0.4-1.4,1-2.8,1.7-4.2c0.8-1.5,1.9-2.8,3.3-3.7c0.4-0.2,0.8-0.3,1.2-0.1
	C87.3,149.5,87.4,149.8,87.5,150.1z"/>
<path class="st1" d="M79.4,134.6c-0.4,0.1-0.8-0.2-0.9-0.5c0-0.1,0-0.2,0-0.3c0-0.4,0.1-0.8,0.3-1.2c1.1-2.5,3-4.5,5.2-6
	c0.2-0.2,0.5-0.3,0.8-0.4c0.4-0.1,0.9-0.1,1.3,0c0.3,0.4,0.3,0.8,0.2,1.2c-1.1,3-3.4,5.6-6.3,7c-0.1,0.1-0.3,0.1-0.4,0.1
	C79.6,134.6,79.5,134.6,79.4,134.6z"/>
<path class="st1" d="M71.9,134.4c0.1-0.4,0.3-0.8,0.5-1.2c1.1-2.1,2.7-3.9,4.6-5.3c0.5-0.3,1-0.6,1.5-0.8c0.4-0.2,0.9-0.1,1.2,0.3
	c0.1,0.2,0.2,0.5,0.1,0.7c-0.1,0.4-0.2,0.8-0.4,1.1c-1.1,2.3-2.8,4.2-4.9,5.6c-0.4,0.3-0.9,0.5-1.5,0.7
	C72.2,135.8,71.8,135.5,71.9,134.4z"/>
<path class="st1" d="M92.8,151.7c-0.2,2.5-1,4.9-2.3,7c-0.4,0.6-0.9,1.4-1.7,1.1s-0.7-1.2-0.7-2c0.1-2.6,0.8-5.2,2.3-7.4l0.1-0.1
	c0.4-0.5,0.8-1.3,1.6-1s0.6,1.1,0.7,1.8C92.8,151.2,92.8,151.3,92.8,151.7z"/>
<path class="st1" d="M173.6,54.9c0.4-1.6,0.7-3.2,1.2-4.8c0.2-0.5,0.5-0.8,1-0.9c0.5,0.2,0.8,0.5,1,1c0.7,2.2,0.8,4.5,0.3,6.7
	c-0.2,0.9-0.4,1.7-0.8,2.5c-0.2,0.4-0.6,0.7-1,0.8c-0.4-0.1-0.8-0.4-0.9-0.9C174.1,57.9,173.9,56.4,173.6,54.9z"/>
<path class="st1" d="M216,115.9c-0.6,1-1,2-1.7,3c-1.1,1.6-2.4,2.9-4.1,3.9c-0.4,0.3-0.9,0.5-1.4,0.6c-0.4,0.2-0.8,0-1-0.4
	c-0.1-0.2-0.1-0.4,0-0.6c0.2-0.8,0.5-1.6,1-2.4c1.2-1.9,2.8-3.4,4.6-4.6c0.4-0.3,0.9-0.4,1.4-0.5C215.6,114.7,215.9,115.1,216,115.9
	z"/>
<path class="st1" d="M205.6,104.5c-0.5-0.1-1-0.2-1.5-0.3c-0.8-0.3-1-1-0.3-1.5c1-0.8,2.2-1.4,3.5-1.8c1.7-0.4,3.4-0.6,5.1-0.7
	c0.7-0.1,1.7,0,1.9,0.9s-0.7,1.2-1.3,1.6C210.7,103.9,208.1,104.5,205.6,104.5z"/>
<path class="st1" d="M79.8,105.2c-0.1,2.2-0.6,4.3-1.6,6.3c-0.3,0.6-0.7,1.5-1.5,1.3s-0.9-1.1-1-1.8c-0.2-2.5,0.2-5,1.2-7.3
	c0.2-0.4,0.4-0.9,0.8-1.2c0.2-0.3,0.6-0.5,1-0.5c0.4,0.1,0.6,0.4,0.7,0.8C79.6,103.5,79.8,104.4,79.8,105.2z"/>
<path class="st1" d="M191.5,92.3c-0.8,0-1.2-0.3-1.1-1c0.1-0.5,0.2-0.9,0.4-1.4c1.2-2.3,3-4.3,5.3-5.6c0.6-0.4,1.4-0.9,2.1-0.3
	s0.2,1.4-0.2,2c-1.2,2.4-3.1,4.4-5.4,5.7C192.3,91.9,191.9,92.1,191.5,92.3z"/>
<path class="st1" d="M130.2,91.1c2.7,2.6,3.5,5.9,3.5,9.4c0,0.5-0.3,1-0.7,1.2c-0.5,0-1-0.2-1.3-0.6c-2-2.5-2.9-5.7-2.7-8.9
	C129,91.6,129.5,91.1,130.2,91.1C130.1,91.1,130.2,91.1,130.2,91.1L130.2,91.1z"/>
<path class="st1" d="M158.4,75.9c-0.1,2.6-1,5.1-2.4,7.3c-0.4,0.5-0.9,0.9-1.6,1c-0.8-0.1-0.8-1-0.8-1.7c0-2.9,0.9-5.7,2.6-8
	c0.3-0.5,0.8-1.1,1.4-0.8c0.4,0.4,0.6,1,0.7,1.5C158.5,75.5,158.5,75.7,158.4,75.9z"/>
<path class="st1" d="M183.4,57.1c0.8,0,1.3,0.5,0.9,1.2c-0.3,0.7-0.7,1.4-1.2,2c-1.4,1.7-3.1,3.1-5.1,4c-0.3,0.2-0.6,0.3-1,0.3
	c-0.4,0.1-0.9,0-1.2-0.2c-0.2-0.4-0.2-0.9,0-1.3c1.6-2.8,4.1-5,7.2-6C183.1,57.1,183.2,57.1,183.4,57.1z"/>
<path class="st1" d="M175.7,71.8c-0.8,0-1.3-0.5-0.9-1.2c0.6-1.1,1.3-2.1,2.2-3c1.4-1.6,3.1-2.7,5.1-3.3c0.4-0.1,0.9,0,1.2,0.2
	c0.2,0.4,0.2,0.8,0,1.2c-1.5,2.9-4.2,5.1-7.3,6.1C175.9,71.8,175.8,71.8,175.7,71.8z"/>
<path class="st1" d="M86.9,140.9c2.4,0,4.8,0.7,6.8,1.9l0.2,0.1c0.5,0.4,1.2,0.8,0.9,1.4c-0.3,0.5-0.9,0.8-1.5,0.8
	c-2.8,0.3-5.6-0.4-8.1-1.8c-0.6-0.3-1.4-0.8-1.2-1.6s1.1-0.8,1.8-0.8C86.2,140.8,86.6,140.9,86.9,140.9z"/>
<path class="st1" d="M78.2,142.9c2.4,0.1,4.7,0.8,6.8,2c0.1,0,0.2,0.1,0.3,0.2c0.3,0.3,0.6,0.7,0.7,1.2c-0.3,0.4-0.7,0.7-1.2,0.8
	c-2.5,0.3-5-0.1-7.2-1.2c-0.7-0.3-1.3-0.7-1.9-1.2c-0.7-0.6-0.6-1.2,0.3-1.5c0.2-0.1,0.3-0.1,0.5-0.1C77,143,77.6,142.9,78.2,142.9z
	"/>
<path class="st1" d="M94.8,239.7c-1.6,0.1-2.9-1.1-3-2.7c0-1.2,0.9-2.2,2.1-2.2c0.1,0,0.2,0,0.3,0c1.5-0.1,2.8,1.1,2.9,2.6
	c0,1.2-0.9,2.1-2,2.2C95,239.8,94.9,239.8,94.8,239.7z"/>
<path class="st1" d="M195.7,123c-0.5,1.6-1,3.2-1.4,4.9c0,0.1-0.1,0.3-0.2,0.4c-0.4,0.3-0.7,0.6-1.1,0.8c-0.3-0.4-0.5-0.8-0.6-1.3
	c-0.1-2,0.3-4,1.3-5.7c0.3-0.4,0.7-0.7,1.1-1c0.2,0.4,0.5,0.9,0.7,1.3c0,0.2,0,0.4,0,0.6L195.7,123z"/>
<path class="st1" d="M200.2,122c-0.5,1.6-1,3.3-1.4,4.9c0,0.1-0.1,0.3-0.2,0.4c-0.4,0.3-0.8,0.5-1.2,0.8c-0.2-0.4-0.4-0.8-0.5-1.3
	c-0.1-2,0.3-4,1.4-5.8c0.3-0.4,0.7-0.7,1.1-1c0.2,0.4,0.5,0.9,0.7,1.3C200.1,121.5,200.1,121.7,200.2,122L200.2,122z"/>
<path class="st1" d="M71.5,117.4c0-0.6,0.2-0.9,0.8-0.7c0.5,0.1,0.9,0.3,1.3,0.6c1.4,1,2.6,2.2,3.5,3.7c0.1,0.2,0.2,0.4,0.3,0.6
	c0,0.4,0,0.8-0.1,1.2c-0.4,0-0.8,0-1.1-0.1c-1.9-1.1-3.5-2.7-4.5-4.7C71.6,117.8,71.6,117.6,71.5,117.4z"/>
<path class="st1" d="M205.3,121c-0.1,0.3-0.1,0.5-0.2,0.8c-0.7,1.6-1.7,3-2.9,4.3c-0.1,0.2-0.3,0.3-0.5,0.4
	c-0.5,0.1-0.9,0.2-1.4,0.3c-0.1-0.5-0.1-1,0-1.4c0.7-1.9,1.9-3.6,3.5-4.8c0.2-0.1,0.4-0.3,0.6-0.4C205,119.9,205.4,120.1,205.3,121z
	"/>
</svg>
