<svg id="Layer_1" data-name="Layer 1" xmlns="http://www.w3.org/2000/svg" xmlns:xlink="http://www.w3.org/1999/xlink" viewBox="0 0 278.94 278.94"><defs><style>.cls-1{fill:url(#radial-gradient);}.cls-2{fill:#fff;}</style><radialGradient id="radial-gradient" cx="139.47" cy="139.47" r="139.47" gradientUnits="userSpaceOnUse"><stop offset="0"/><stop offset="1" stop-opacity="0"/></radialGradient></defs><title>logo</title><circle class="cls-1" cx="139.47" cy="139.47" r="139.47"/><path class="cls-2" d="M1556.59,240.85a12.31,12.31,0,0,0-5,3c-2,1.69-3.16,4.1-4.7,6.19a41.61,41.61,0,0,0-3.58,6.49c-1.15,2.34-1.71,4.84-2.65,7.22-0.39,1-.14,2.2-0.27,3.31a13.75,13.75,0,0,1-.48,2.21,2.12,2.12,0,0,1-.56.61l0.5,0.35-0.22,0-0.62,6.42a13.62,13.62,0,0,0,2-.49c2-.85,3.42-2.47,5.19-3.62,1.15-.76,2.37-1.41,3.54-2.16,0.87-.56,1.7-1.19,2.54-1.79l3.57-2.55c1.14-.81,2.26-1.65,3.42-2.43,0.88-.6,1.82-1.1,2.71-1.7a43.07,43.07,0,0,1,3.66-2.51c1.5-.79,3.15-1.31,4.71-2a6.87,6.87,0,0,0,3.21-2.53,2.55,2.55,0,0,1,1.1-.46c0.85-.73,1.8-1.51,2.71-2.32a11,11,0,0,0,2.57-3,18.42,18.42,0,0,1,1.88-2.37,18.13,18.13,0,0,0,1.15-1.66,4.17,4.17,0,0,0,.1-0.69,1.7,1.7,0,0,1,.47-0.94,4.54,4.54,0,0,0,2.09-2c0.68-.95,1.38-1.88,2.08-2.82,1-1.33,2-2.64,3-4a19,19,0,0,0,1-2c0.53-1,1.13-2,1.62-3,0.34-.71.49-1.5,0.81-2.22a17.94,17.94,0,0,1,1.06-1.78,18.85,18.85,0,0,1,.37,2.44,4.83,4.83,0,0,1-.3,2.16c-1.44,2.85-3,5.66-4.51,8.45a16.34,16.34,0,0,1-1.5,1.75c-0.7.91-1.31,1.88-2,2.77-1.28,1.62-2.6,3.21-3.9,4.81a0.67,0.67,0,0,0-.22.3c0.33,1.26-.78,1.73-1.27,2.57-0.6,1-1.42,1.87-2,2.88a0.48,0.48,0,0,0,0,.27c0.52,0,1,0,1.51,0a2.86,2.86,0,0,0,.89-0.23,9.57,9.57,0,0,1,3.7-.62c1.37,0,2.82.29,4.13-.51a6.33,6.33,0,0,1,1.13-.14c1.67-.56,3.32-1.16,5-1.75a0.4,0.4,0,0,0,.25-0.21c0-1.29,1.13-1.13,1.87-1.28a4.8,4.8,0,0,0,2.57-1.18,1.65,1.65,0,0,1,1.42-.12c0.58,0.22.47,0.75,0,1.06a36.16,36.16,0,0,1-3.41,2.22,20.22,20.22,0,0,1-5.57,2.31c-1,.21-2,0.83-3,1.12a18,18,0,0,1-2.51.35c-0.87.12-1.73,0.27-2.61,0.35a9.06,9.06,0,0,1-.93-0.21,7.94,7.94,0,0,0-.78.19c-3.62.28-6.6,2.15-9.27,4.3a23.21,23.21,0,0,1-4.68,2.62,12.13,12.13,0,0,0-1.16.86l-8.75,5.66c-1.17.75-2.37,1.46-3.51,2.26-1.5,1-2.95,2.17-4.42,3.25-0.51.37-1.08,0.66-1.57,1.06a9.43,9.43,0,0,0-1,1,0.92,0.92,0,0,1-.26.29c-1.32.43-1.9,1.62-2.67,2.6a18.18,18.18,0,0,0-1.16,1.92,0.62,0.62,0,0,1,0,.41c-0.73,1.37-1.49,2.72-2.22,4.08a1.65,1.65,0,0,0-.12.48,2.64,2.64,0,0,1-.7,1.23,6.29,6.29,0,0,0-.84,2.2,16.29,16.29,0,0,0-.37,1.65c-0.1.51-.15,1-0.27,1.55a4.52,4.52,0,0,1-.32.75,15.51,15.51,0,0,0-.75,1.75,36.89,36.89,0,0,0-1.26,4.72c-0.37,2.35-1.21,4.61-1,7.06,0.2,2.63.14,5.28,0.3,7.91,0.09,1.48.41,2.94,0.59,4.41,0,0.37-.08.76-0.06,1.13,0.17,2.26.34,4.52,0.55,6.77a14.85,14.85,0,0,0,.41,2.22c0.28,1.13.69,2.24,0.92,3.38a8.83,8.83,0,0,1,.07,2.25,17.87,17.87,0,0,0,.71,5.88,3.21,3.21,0,0,0,.63.84c-0.22.38-.79,0.78-0.46,1.42,0.23,0.45.53,0.87,0.78,1.25,0.1,1,.2,2.1.32,3.17a5.31,5.31,0,0,1-.54,3.19l-0.32,0-1-2.9a2.33,2.33,0,0,1-1,.24,2.66,2.66,0,0,1-.89-0.77l-0.51.31,0.44,1.94-0.27.1-0.7-.6-0.4,1.16-0.33,0-1.45-3.84a0.78,0.78,0,0,0-.57,1.19,2.93,2.93,0,0,1,.19,1,1.54,1.54,0,0,1-.34.58,1.82,1.82,0,0,1-.49-0.45c-0.21-.43-0.35-0.9-0.53-1.36l-0.36.07c0.09,0.77.19,1.55,0.26,2.32,0,0.46.47,1.17-.3,1.25-0.62.06-.69-0.64-0.79-1.2a20.82,20.82,0,0,0-.66-2.3l-1.06-.18c0.06,0.6.16,1.17,0.16,1.74a1.76,1.76,0,0,1-.31.65,1.82,1.82,0,0,1-.69-0.54,8.53,8.53,0,0,1-.06-1.16,6,6,0,0,0-.4-1.05,0.69,0.69,0,0,0-.79.84c0.06,0.61.23,1.21,0.33,1.82a1.11,1.11,0,0,1,0,.67,4.33,4.33,0,0,1-.71.72,2.58,2.58,0,0,1-.57-0.8c-0.17-.77-0.19-1.58-0.37-2.35a4.46,4.46,0,0,0-.58-1.15,0.31,0.31,0,0,0-.28-0.1,0.33,0.33,0,0,0-.18.23c-0.13.91-.22,1.82-0.36,2.73A4.28,4.28,0,0,1,1525,351a2.22,2.22,0,0,1-.69.55,5.79,5.79,0,0,1-.37-1,3.89,3.89,0,0,0-.07-0.88,1.32,1.32,0,0,0-.3,1.6,0.82,0.82,0,0,1,0,.75,2,2,0,0,1-1.07.34,0.89,0.89,0,0,1-.37-0.68c0-.76.14-1.52,0.2-2.28,0-.27,0-0.54,0-0.81l-0.25,0-1.07,3.09a10.6,10.6,0,0,1-.6-1.46,10.85,10.85,0,0,1-.17-1.55l-0.32,0c-0.14.56-.31,1.12-0.42,1.69a8.67,8.67,0,0,1-.17,1.5,1.77,1.77,0,0,1-.94.73c0-.65-0.1-1-0.79-1s-1-.47-0.88-1.28a6.13,6.13,0,0,0-.17-1.59h-0.26l-0.6,2.25-1.36.6c-0.71.18-.9-0.22-0.63-0.92l1.26-3.26a0.78,0.78,0,0,0,.07-0.16c0.19-1.34.36-2.69,0.57-4a6.1,6.1,0,0,1,.32-1,34.36,34.36,0,0,1,1.37-3.84c0.64-1.31,1.55-2.48,2.27-3.75a5.06,5.06,0,0,0,.34-1.45c0.27-1.3.48-2.6,0.8-3.89s0.69-2.33,1.06-3.49c0.25-.79.55-1.57,0.8-2.37,0.32-1,.63-2.1.91-3.16,0.21-.78.34-1.59,0.55-2.37a0.63,0.63,0,0,1,.29-0.29c0.18-1,.31-1.88.48-2.74,0.24-1.19.49-2.39,0.75-3.58,0.37-1.72.76-3.43,1.08-5.16a6.53,6.53,0,0,0-.06-1.53c-0.05-.89-0.13-1.77-0.15-2.66a1.79,1.79,0,0,1,.22-0.72c0.14-.33.42-0.62,0-1a0.64,0.64,0,0,1,.13-0.58c1.1-.55.63-1.54,0.62-2.34a30.8,30.8,0,0,0-.32-3.52c-0.24-1.86-.52-3.71-0.78-5.56-0.09-.62-0.14-1.24-0.24-1.85-0.4-2.31-.68-4.65-1.27-6.91a14.33,14.33,0,0,0-1.8-3.24c-0.41-.71-0.81-1.42-1.26-2.1s-1.07-1.5-1.59-2.26a15.56,15.56,0,0,0-1.84-2.61c-1.32-1.24-2.82-2.28-4.24-3.41-0.37-.29-0.71-0.62-1.09-0.9a2.27,2.27,0,0,0-.82-0.4c-1.09-.23-2.19-0.41-3.29-0.62a1.91,1.91,0,0,0-.24-0.07c-1.71-.06-3.41-0.16-5.12-0.15a2.77,2.77,0,0,0-1.19.53q-3.44,2-6.86,4a9.94,9.94,0,0,1-1.59,1c-1.3.45-2.63,0.79-4,1.18a1.09,1.09,0,0,0-.25,0,9.56,9.56,0,0,1-5.89,1.26,4.4,4.4,0,0,1-2.62-.61,3.4,3.4,0,0,1-.33-0.36,2.66,2.66,0,0,1,2.71-.82,6.62,6.62,0,0,0,4.38-.51c1.2-.67,2.61-1,3.83-1.61s2.52-1.59,3.79-2.36,2.43-1.44,3.64-2.16a11.94,11.94,0,0,0,1.61-1,8.24,8.24,0,0,1,3.48-1.38c0.48-.12,1-0.09,1.49-0.17a2.27,2.27,0,0,0,.58-0.38,24.13,24.13,0,0,1-3.92-2.41,32,32,0,0,1-2.68-2,0.83,0.83,0,0,0-.19-0.26c-1.81-.41-3.11-1.83-4.9-2.35a25.43,25.43,0,0,1-3.51-1.79c-1-.49-2.13-0.83-3.17-1.29a11.52,11.52,0,0,0-5.19-1c-2.78.1-5.57,0-8.35,0a47.72,47.72,0,0,1-8.87-.68c-1.5-.27-3-0.44-4.51-0.72a5.54,5.54,0,0,1-3-1.8c-0.54-.57-0.37-0.81.25-1.32,1-.85,1.86-0.53,2.8.13a26.3,26.3,0,0,0,2.78,1.63,2.2,2.2,0,0,0,1.06.23,25.59,25.59,0,0,1,5,.36,27.81,27.81,0,0,0,4.12,0c1.1,0,2.2.1,3.45,0.17A17.5,17.5,0,0,1,1476,246c-1-.94-2-2-3-2.87-1.3-1.14-2.69-2.18-4-3.32-0.71-.63-1.3-1.41-2-2.08s-1.33-1.28-2-1.88a21.51,21.51,0,0,1-5-5.51,7,7,0,0,0-.57-0.73c-0.53-.69-0.41-0.69.28-1.1,1.21-.71,1.84.13,2.54,0.75a16.44,16.44,0,0,1,1.28,1.47c0.72,0.8,1.43,1.61,2.17,2.39,0.95,1,1.86,2.07,2.89,3s2.23,1.67,3.33,2.51c0.61,0.47,1.19,1,1.77,1.51,0.86,0.74,1.68,1.55,2.6,2.21,0.7,0.51,1.31,1.26,2.33,1.19a0.35,0.35,0,0,1,.22.06c1.86,1.54,4.17,2,6.39,2.74,1.49,0.47,2.94,1,4.42,1.53s2.78,0.82,4.14,1.29c2,0.68,4,1.36,6,2.15,0.88,0.35,1.61,1,2.47,1.46,1.56,0.76,3.2,1.36,4.72,2.19a23.65,23.65,0,0,1,2.85,2.15c1,0.81,2,1.8,3.38,2a0.12,0.12,0,0,1,.08,0,5.88,5.88,0,0,0,1.92,1.86,2.51,2.51,0,0,0,1.65.84,3.69,3.69,0,0,1,1.83.94c0.41,0.32.63,0.86,1.33,0.58a1.57,1.57,0,0,1,.7.4,0.47,0.47,0,0,0,.46.07c-1-1.89-2-3.76-2.87-5.68-0.47-1-.73-2.13-1.11-3.2-0.45-1.24-.91-2.49-1.39-3.72-0.41-1-.87-2.08-1.3-3.12a0.57,0.57,0,0,1-.09-0.23c0.64-.69,0-1.25-0.19-1.84-0.52-1.56-1.07-3.12-1.6-4.68-0.17-.51-0.27-1-0.47-1.53-0.34-.83-0.75-1.64-1.11-2.46s-0.53-1.38-.85-2c-0.42-.87-0.9-1.7-1.34-2.55-0.13-.25-0.18-0.54-0.32-0.77a3,3,0,0,0-.71-0.93q-2.26-1.57-4.59-3c-0.94-.6-2-1-2.88-1.68a42.73,42.73,0,0,1-3.32-2.77,14.52,14.52,0,0,1-1.94-2c-0.78-1-2-1.75-2.41-3.07a3,3,0,0,0-.69-0.75,3.52,3.52,0,0,1-.73-0.93,12.09,12.09,0,0,0-3.6-5.27l-0.06-.06c-0.3-.41-0.95-0.7-0.59-1.33,0.24-.43,1.23-0.21,1.82.24a23.59,23.59,0,0,1,4.62,5.32,32.49,32.49,0,0,0,3.55,4.52,42,42,0,0,0,4.77,3.57c0.46,0.33,1,.59,1.58,1a12.81,12.81,0,0,1,.56-7.83,9.17,9.17,0,0,1,1.14-2.19c0.67-1,1.51-.84,1.78.28a7.94,7.94,0,0,1,.19,3,34.56,34.56,0,0,1-1.27,5.13,9.46,9.46,0,0,1-1.4,2.1l4.08,1.68c-0.14-1.44-.26-2.63-0.38-3.82-0.05-.51-0.09-1-0.15-1.53-0.23-2-.4-4-0.74-6-0.3-1.83-.85-3.61-1.17-5.44a21,21,0,0,1-.13-3.19c0-.6.06-1.19,0-1.79,0-1.07-.13-2.14-0.14-3.21,0-.38.2-0.76,0.24-1.15a3.39,3.39,0,0,0,0-1.47,2,2,0,0,1,.06-1.25c0.2-1.16.76-2.32,0.17-3.53a1.06,1.06,0,0,1,0-.62c0.07-.35.18-0.68,0.29-1.07-2.73.43-4.83-.81-6.87-2.12a13.62,13.62,0,0,1-2.54-2.28,1,1,0,0,1,1-1.76,11,11,0,0,1,5.41,2.22c1.1,0.78,2.06,1.76,3.18,2.73a8.59,8.59,0,0,0,.13-1.24,3.91,3.91,0,0,1,.44-2.07,13.76,13.76,0,0,0,.62-2.33,1.26,1.26,0,0,1,.62-0.79,0.69,0.69,0,0,1,.62,1,0.9,0.9,0,0,0,.28.65,1.36,1.36,0,0,1,.32,1.43c-0.42,1.51-.67,3.07-1,4.61a16.08,16.08,0,0,0,.2,5.32,48,48,0,0,1,.12,5.64,2.27,2.27,0,0,0,.82,2.2c-0.54,2.08.07,4,.14,6l0.35,0a9.94,9.94,0,0,0,.41-1.1,7.55,7.55,0,0,1,3.21-4.6,25.67,25.67,0,0,0,7-6.93,3.53,3.53,0,0,1,2.19-1.87,3.12,3.12,0,0,0,.92-0.59,0.56,0.56,0,0,0,.16.2c1,0.46,1,.44.25,1.24a14.5,14.5,0,0,0-2.44,2.87c-0.56,1.09-1.44,1.92-2,3l0,0a7,7,0,0,0-1.2.92c-0.93,1.09-1.75,2.28-2.71,3.35a11.84,11.84,0,0,1-1.58,1.08,10.17,10.17,0,0,0-1.46,1.37,6.82,6.82,0,0,0-1.08,1.64,18.07,18.07,0,0,0-.56,2,3.8,3.8,0,0,1-.63,1.26,43.79,43.79,0,0,1,.56,6.84,19.38,19.38,0,0,0,.78,5.23,59.75,59.75,0,0,0,1.65,5.91,14.33,14.33,0,0,0,1,2l-0.39.24c0.2,0.62.38,1.21,0.59,1.79a1.89,1.89,0,0,0,.27.43,6,6,0,0,1,.86,1.24c0.38,1,.61,2.14,1,3.19a2,2,0,0,0,.72.58c0.27-.81.44-1.42,0.68-2,0.53-1.33,1.1-2.65,1.66-4a0.84,0.84,0,0,0,.11-0.23c0.12-2,1.49-3.44,2.29-5.14a7.18,7.18,0,0,1,2-2.87,8.33,8.33,0,0,0,2.55-3.44c0.86-1.68,1.48-3.48,2.35-5.15a20.71,20.71,0,0,0,1-3.59c0.46-1.45,1-2.87,1.5-4.3,0.29-.84,1.1-0.52,1.66-0.74a1.3,1.3,0,0,1,.4.71,17.27,17.27,0,0,1-.21,1.93v0c-0.16.52-.3,1.05-0.47,1.57-0.51,1.55-1,3.1-1.56,4.64a36.61,36.61,0,0,0-1.4,3.61,16.37,16.37,0,0,1-3.12,5.87,9.15,9.15,0,0,0-1.13,2c-0.74,1.84-1.37,3.73-2.1,5.57-0.56,1.42-1.22,2.8-1.81,4.21a2.16,2.16,0,0,0,0,.67,1.5,1.5,0,0,1-.09.82c-1,1-.56,2.28-0.52,3.45a12.42,12.42,0,0,0,.39,2.34c0.09,0.4.39,0.75,0.5,1.14s0.08,0.82.14,1.23a6.38,6.38,0,0,0,.3,1.22c0.24,0.61.54,1.2,0.8,1.8s0.65,1.48.94,2.23c0.36,0.93.65,1.88,1,2.8,0.24,0.62.6,1.19,0.85,1.8s0.3,1.17.55,1.71c0.43,0.91.95,1.78,1.42,2.67s0.94,1.72,1.36,2.6,0.91,2.05,1.47,3.32c0.26-.76.47-1.27,0.61-1.8,0.23-.9.46-1.81,0.62-2.72,0.33-1.88.93-3.68,1.4-5.52,0.31-1.2,1.14-2.26,1-3.65a3.65,3.65,0,0,1,.75-1.59,0.86,0.86,0,0,0,.15-0.21c0.19-2.13,1.71-3.72,2.33-5.7,0.44-1.41,1.59-2.58,2.37-3.89s1.67-2.9,2.49-4.35c0.41-.72.83-1.44,1.17-2.2a15.73,15.73,0,0,0,.48-1.61c0.42-1.29.95-2.55,1.25-3.86s0.44-2.84.63-4.26c0.22-1.68.43-3.35,0.63-5a16.23,16.23,0,0,0-.05-5.93,0.9,0.9,0,0,1-.05-0.42c0.4-1.45-.32-2.73-0.6-4.08-0.4-2-.75-4-1.08-6a0.68,0.68,0,0,1,.35-0.57,1.15,1.15,0,0,1,.92.08c0.63,0.74,1.25,1.54.81,2.64a0.55,0.55,0,0,0,.07.38,15.9,15.9,0,0,1,1.12,2.22c0.45,1.43.76,2.9,1.13,4.35a0.93,0.93,0,0,0,0,.17c0.64,1.3.29,2.63,0.2,4s0,3,0,4.49a12.87,12.87,0,0,0,.21,1.54h0.22l0.11-.87a1.61,1.61,0,0,0,.69-0.3c0.64-1.08,1.24-2.19,1.85-3.29s1.12-2.07,1.66-3.11,1-2,1.5-3c0.64-1.25,1.36-2.46,2-3.73a17.35,17.35,0,0,1,1-2.73,19.78,19.78,0,0,0,1.74-4,64.11,64.11,0,0,0,2.43-6.88c0.62-2.1,1.06-4.25,1.49-6.4,0.27-1.35.38-2.73,0.58-4.1a2.63,2.63,0,0,1,.31-0.74,1.75,1.75,0,0,0,.23-0.22c0.16-1.36,1.5-2.12,1.74-3.47a2.11,2.11,0,0,1,1.07-1.08c-0.47,1.43-1,2.85-1.39,4.3a14.31,14.31,0,0,0-.35,2.43c-0.16,1.61-.27,3.22-0.43,4.83-0.21,2.08-.39,4.17-0.69,6.24a24,24,0,0,1-.77,2.82,3,3,0,0,0,0,.57l0.2,0.16c0.48-.5.94-1,1.44-1.5a8.69,8.69,0,0,1,1-.67,1.23,1.23,0,0,0,.49-0.4,2.07,2.07,0,0,1,1.28-1.06c1-.56,2.08-1.17,3.12-1.74s2.07-1.2,3.15-1.68a2,2,0,0,1,1.35.27c-7.46,4.42-13.23,10.22-16.11,18.52l0.31,0.21c-1,1.89-2,3.72-2.92,5.58a5,5,0,0,0-1,2.68,3.57,3.57,0,0,1-.82,1.25q-1.35,2.38-2.66,4.79c-0.24.45-.31,1-0.59,1.42-1,1.48-2,2.91-2.94,4.37a3.59,3.59,0,0,0-.29.77,2.07,2.07,0,0,0,1,.09c2.33-1.32,4.9-2.19,7-3.9a11.74,11.74,0,0,1,2.33-1.1,8.62,8.62,0,0,0,1.19-.69c1.7-1.19,3.76-1.37,5.64-2.06a2.67,2.67,0,0,0,.7-0.65,1.46,1.46,0,0,1,.6-0.51c1.32,0.23,1.81-.88,2.59-1.52a2.25,2.25,0,0,1,.22-0.34c1.19-.07,1.58-1.08,2.22-1.82,0.23-.27.76-0.28,1-0.54,0.74-.77,1.4-1.61,2.1-2.41,1.26-1.44,2.54-2.86,3.78-4.32,0.6-.71,1.1-1.51,1.72-2.21a1.7,1.7,0,0,1,1.14-.67c0.63,0.26.49,0.9,0.29,1.47a7.05,7.05,0,0,1-2,2.83,3.78,3.78,0,0,0-.41.54l0.28,0.09a1.7,1.7,0,0,1-.15.81c-0.33.34-.79,0.55-1.15,0.86a3.21,3.21,0,0,0-.46.77,2.47,2.47,0,0,0-1.46,1.24,17.83,17.83,0,0,1-2.47,3.11c-1.11.9-1.93,2.05-3,3-0.79.66-1.67,1.2-2.51,1.8-0.65.47-1.29,0.95-1.94,1.43a2.36,2.36,0,0,1-.31.29c-3.43,1.63-6.46,4-9.92,5.52-0.64.29-1.24,0.7-1.85,1.05Z" transform="translate(-1398.04 -122.99)"/><path class="cls-2" d="M1559.41,158.37a19.05,19.05,0,0,0-7.89-.07,6.14,6.14,0,0,1-2.84.06A3.22,3.22,0,0,1,1547,157c-1-1.56-.27-3,1.56-3.14a43.45,43.45,0,0,1,12.3.59c3.79,0.79,4.88,4.11,2.57,7.35a10.14,10.14,0,0,1-3.94,3.09,19.11,19.11,0,0,1-15,1,11.53,11.53,0,0,1-8.12-8.94,16.48,16.48,0,0,1,1.78-12.57c3.19-5.26,7.9-7.72,14.07-7.41a18.11,18.11,0,0,1,7.83,2,11.74,11.74,0,0,1,2.92,2.2,6.7,6.7,0,0,1,0,8.57c-1.63,1.87-4.61,1-5.68-.21a1.22,1.22,0,0,1,.24-1.88,3.35,3.35,0,0,0,1.22-2.35c0.11-2-.56-3.11-2.5-3.77a9.35,9.35,0,0,0-9.78,2.05,12.29,12.29,0,0,0-4,8.63,28.33,28.33,0,0,0,.11,5.2A6,6,0,0,0,1546,162a10.2,10.2,0,0,0,11.78-1A4.43,4.43,0,0,0,1559.41,158.37Z" transform="translate(-1398.04 -122.99)"/><path class="cls-2" d="M1421.34,208.59c-3.44-1.55-6.66-3.09-10-4.44a15.67,15.67,0,0,0-4.06-.88,1.23,1.23,0,0,0-1.48,1.37,11.72,11.72,0,0,0,.09,2.47,42.14,42.14,0,0,0,3.13,9.85c0.85,2,1.8,3.93,2.81,6.12A55.1,55.1,0,0,1,1421.34,208.59Zm3.8-4.48c0.47-.34.94-0.72,1.44-1a1.44,1.44,0,0,1,1.82-.13,1.67,1.67,0,0,1,.64,2c-0.19.5-.45,1-0.74,1.59,0.65,0.18,1.31.38,2,.53a1.26,1.26,0,0,1,1.21,1.53c-0.05,1.56-1.72,4-3.23,4.33a3.24,3.24,0,0,1-2.06-.58,15.42,15.42,0,0,1-2-1.68,91.87,91.87,0,0,0-9.37,13.89c-0.9,1.73-.87,1.79.64,3.08a8.8,8.8,0,0,0,1.5,1.14,1.47,1.47,0,0,1,.64,2,5.08,5.08,0,0,1-3.53,3.21,1.49,1.49,0,0,1-1.31-.43c-3.66-5.41-7.56-10.69-9.78-16.94a31.94,31.94,0,0,1-2.29-10.65c0-5.89,4.5-8.85,9.38-8.47a22.19,22.19,0,0,1,9.16,3.1C1421.2,201.73,1423.12,202.91,1425.15,204.11Z" transform="translate(-1398.04 -122.99)"/><path class="cls-2" d="M1456.75,366c-0.48,1.86-.9,3.74-1.46,5.58-0.81,2.64-1.69,5.26-2.61,7.87a8,8,0,0,1-1.18,2,2.18,2.18,0,0,1-3.36.55,6.44,6.44,0,0,1-2.47-3.32c-1.43-4.09-2.75-8.21-4.11-12.33a11.41,11.41,0,0,0-.67-1.85c-0.06,1.06-.2,2.12-0.17,3.18q0.11,5.62.34,11.23a8.43,8.43,0,0,0,.51,1.89c0,0.14.1,0.27,0.15,0.4,0.44,1.32.3,2-.47,2.42a2.55,2.55,0,0,1-3.35-.74,9.79,9.79,0,0,1-1.09-5.4c0.12-5.2.39-10.4,0.59-15.6,0-1.2,0-2.4,0-3.6a1.42,1.42,0,0,0-.24-0.7,1.68,1.68,0,0,1,.42-2.52,5.2,5.2,0,0,1,4.12-.63c1.37,0.33,1.76,1,1.91,2.56a73.14,73.14,0,0,0,4,18,9.48,9.48,0,0,0,1.11,2.11c0.56,0.82,1.07.79,1.39-.13a65.84,65.84,0,0,0,2.07-6.51c1.06-4.41,1.94-8.86,3-13.28a3.84,3.84,0,0,1,4.91-3.16,10.81,10.81,0,0,1,2.51.81,1.15,1.15,0,0,1,.4,2.07,4.54,4.54,0,0,0-1.11,2.8,138.47,138.47,0,0,0-1.09,17.19,25.16,25.16,0,0,0,.42,4,2.31,2.31,0,0,0,.69,1.34,1.44,1.44,0,0,1,.4,2,1.65,1.65,0,0,1-2.2.59,4.52,4.52,0,0,1-1.61-1.47,10.62,10.62,0,0,1-1.57-5.37c-0.11-3.8,0-7.6,0-11.4,0-.16,0-0.32,0-0.49Z" transform="translate(-1398.04 -122.99)"/><path class="cls-2" d="M1620.66,176.81a6.27,6.27,0,0,0-3.54,1.34,11.93,11.93,0,0,0-4.53,5.12,2.6,2.6,0,0,0,.24,2.84,4.5,4.5,0,0,0,4.64,1.74,10.43,10.43,0,0,0,6.76-5.27A4,4,0,0,0,1620.66,176.81Zm-2.82,15c-0.71-.13-1.36-0.22-2-0.37a11,11,0,0,1-7-5,6.69,6.69,0,0,1,0-7.53,13.75,13.75,0,0,1,9.6-6.55,7.19,7.19,0,0,1,6.33,1.95,46.29,46.29,0,0,1,3.48,4.11c1.26-1.55,2.65-3.24,4-4.94,0.68-.85,1.34-1.71,2-2.59a0.94,0.94,0,0,1,1.4-.31,9,9,0,0,1,3.62,3.9,2.12,2.12,0,0,1-.55,2.64,7.31,7.31,0,0,1-1,.89,27.49,27.49,0,0,0-5.67,4.94c-2.31,2.53-4.66,5-7,7.59a12.94,12.94,0,0,0-3.15,5.53,1,1,0,0,1-.73.48C1619,196.59,1617.25,194.21,1617.84,191.78Z" transform="translate(-1398.04 -122.99)"/><path class="cls-2" d="M1464.23,177.72a12.83,12.83,0,0,0-2.07-6.42,3.64,3.64,0,0,0-3.87-1.66,3.52,3.52,0,0,0-3.12,2.79,10.8,10.8,0,0,0,0,3.63,10.39,10.39,0,0,0,3,6.12,2.6,2.6,0,0,0,3.17.43A5.06,5.06,0,0,0,1464.23,177.72Zm3.43,2.95a11.08,11.08,0,0,1-7.16,5.63,7.18,7.18,0,0,1-8.61-3.38A14.33,14.33,0,0,1,1450,173a8.54,8.54,0,0,1,7.5-6.87c0.73-.1,1.47-0.16,2.31-0.25-0.38-.85-0.72-1.69-1.13-2.49-1.08-2.11-2.16-4.22-3.29-6.29a0.93,0.93,0,0,1,.26-1.4,7.85,7.85,0,0,1,5.38-1.59,1.83,1.83,0,0,1,1.62,1.35c0.31,1,.46,2.06.79,3.06,0.68,2.08,1.35,4.17,2.15,6.2,1.17,2.94,2.43,5.85,3.72,8.74a13.44,13.44,0,0,0,3.81,5.32,1,1,0,0,1,.13.87,3.51,3.51,0,0,1-4.87,1.51C1468.17,181,1468,180.88,1467.66,180.66Z" transform="translate(-1398.04 -122.99)"/><path class="cls-2" d="M1488.3,172.71a13.17,13.17,0,0,1-6.2,3,7.69,7.69,0,0,1-9-4.78c-1.2-3-2.34-6-3.54-9a0.84,0.84,0,0,1,.29-1.14,7.56,7.56,0,0,1,5.73-1.79c0.3,1.59.47,3.18,0.91,4.69,0.58,2,1.36,3.87,2.09,5.79a6.7,6.7,0,0,0,.69,1.28c0.79,1.21,1.77,2.15,3.37,1.9a3.73,3.73,0,0,0,3.09-3.16,10.71,10.71,0,0,0-.31-5.59c-0.75-2.21-1.55-4.41-2.34-6.67,1.85-1.57,3.91-2.72,6.6-2.12a42.18,42.18,0,0,0,.49,5.19c0.61,2.84,1.43,5.63,2.22,8.42,0.56,2,1.21,3.92,1.82,5.89,0.94,3,.32,5.3-2.21,7.21a16.72,16.72,0,0,1-12.41,3.06c-1.31-.15-1.92-0.9-1.8-1.78a2.13,2.13,0,0,1,2.46-1.61,10.44,10.44,0,0,0,5-.07,13.16,13.16,0,0,0,2.55-1.17,3.63,3.63,0,0,0,1.52-4.28C1489.05,174.92,1488.67,173.9,1488.3,172.71Z" transform="translate(-1398.04 -122.99)"/><path class="cls-2" d="M1579.23,169.26a22.66,22.66,0,0,0,2.85-.77,1.52,1.52,0,0,0,.72-1.12,1.35,1.35,0,0,0-.81-0.84,14,14,0,0,0-2.85-.89,26.09,26.09,0,0,0-4-.34,1.51,1.51,0,0,0-1.57,1.33c-0.11.82,0.58,1.18,1.21,1.48A11.66,11.66,0,0,0,1579.23,169.26Zm1.65,3.66c-2.12-.43-4.25-0.72-6.29-1.32a12.31,12.31,0,0,1-6.2-4c-1.45-1.78-1.06-3.61,1.05-4.53a13.86,13.86,0,0,1,9.47-.61c1.73,0.48,3.42,1.09,5.22,1.68a23,23,0,0,0,.7-2.33,3.12,3.12,0,0,0-2.19-3.85,12.5,12.5,0,0,0-3.25-.6,2.45,2.45,0,0,0-2.61,1.81,1.25,1.25,0,0,1-1.58.92A4.37,4.37,0,0,1,1572,158a1.51,1.51,0,0,1-.1-1.05,3.93,3.93,0,0,1,2.45-2.68,10.18,10.18,0,0,1,7.13-.15,14,14,0,0,1,6.47,3.69,8,8,0,0,1,1.72,8.46c-1.09,3.11-2.62,6.06-4,9.07a1.23,1.23,0,0,1-.49.58c-1.34.68-2.5,0.06-3.6-.63a1.76,1.76,0,0,1-.78-2.29A0.28,0.28,0,1,0,1580.88,172.93Z" transform="translate(-1398.04 -122.99)"/><path class="cls-2" d="M1657.47,210.48a25,25,0,0,1,3.21,1.7c2.35,1.7,3.41,4.22,4.08,6.94,1.19,4.82-.4,8-4.66,11-2,1.34-4.08,2.42-6.14,3.59a1.18,1.18,0,0,1-.86,0,3.23,3.23,0,0,1-1.85-2c-1.1-2.74-1.11-2.76,1.47-4.16a26.27,26.27,0,0,0,7-4.8,8.72,8.72,0,0,0,1.6-2.41,3.07,3.07,0,0,0-1.23-3.91c-3.65-2.25-9.59-2.23-12.83,1.71-0.51.62-1.06,1.2-1.6,1.78a1.18,1.18,0,0,1-1.48.24,3.64,3.64,0,0,1-1-6.36c2.77-2.22,5.6-4.35,8.36-6.57a12.19,12.19,0,0,0,1.72-1.9,1.47,1.47,0,0,1,1.82-.49,5,5,0,0,1,3.43,4.48,1,1,0,0,1-.29.63A5.35,5.35,0,0,1,1657.47,210.48Z" transform="translate(-1398.04 -122.99)"/><path class="cls-2" d="M1639.06,193.65a2.86,2.86,0,0,0-2.52,1.57c-0.51,1.12.16,2.08,1,2.81a13.21,13.21,0,0,0,2.71,2,2.22,2.22,0,0,0,3.26-1.76C1643.88,196,1641.79,193.65,1639.06,193.65Zm-6.07,4.11c-1.72,2.11-1.63,3.87.64,5.61a44.82,44.82,0,0,0,4.92,3.08,6.55,6.55,0,0,1,2.81,2.54c0.53,1,.29,1.77-0.84,1.87a5.93,5.93,0,0,1-2.79-.48,21.52,21.52,0,0,1-6.4-4.55,23.78,23.78,0,0,1-2.77-3.15c-2.53-3.6-2-7.36,1.32-10.24a14.2,14.2,0,0,1,8.45-3.38,6.38,6.38,0,0,1,5.27,2,16.58,16.58,0,0,1,4.52,10.13c0.33,3.57-2.41,4.55-4.81,4a15.8,15.8,0,0,1-7.39-4.14A40.93,40.93,0,0,1,1633,197.76Z" transform="translate(-1398.04 -122.99)"/><path class="cls-2" d="M1430.45,188.91a10.41,10.41,0,0,1,10.66-8.47,8.07,8.07,0,0,1,5.83,2.75c1.79,1.91,3.31,4.07,4.95,6.13,0.21,0.27.4,0.56,0.6,0.84,0.66,0.91.75,1.72-.12,2.37a18.18,18.18,0,0,1-3.38,1.73,1.06,1.06,0,0,1-.62-0.45c-1.43-1.89-2.76-3.87-4.28-5.68a16.58,16.58,0,0,0-3.27-3c-2.7-1.86-5-.91-5.65,2.29a10.24,10.24,0,0,0,2.76,10,25.17,25.17,0,0,0,2.47,1.85c1.16,0.89,1.3,1.6.39,2.75-1.48,1.89-3.5,2.84-5.69.5q-3.58-3.82-7.23-7.57a12.06,12.06,0,0,0-2-1.49,1.64,1.64,0,0,1-.69-2.07,4.67,4.67,0,0,1,3.35-3.45,1.12,1.12,0,0,1,1.51.51A2.83,2.83,0,0,0,1430.45,188.91Z" transform="translate(-1398.04 -122.99)"/><path class="cls-2" d="M1513.87,155.3c0.28-.46.51-0.85,0.76-1.23a2,2,0,0,0-1-3,3.78,3.78,0,0,0-3.76.73,3.94,3.94,0,0,0-.79,4.06,3.26,3.26,0,0,0,1.63,1.4c1.73,0.55,3.53.88,5.3,1.3s3.47,0.7,5.15,1.23c1.94,0.61,2.3,1.73,1.25,3.49a7,7,0,0,1-3.38,2.81,16.15,16.15,0,0,1-8.87,1.27c-1.92-.28-3.84-0.56-5.74-0.91a1.34,1.34,0,0,1-1.39-1.05,1.55,1.55,0,0,1,1.09-1.67,22.63,22.63,0,0,1,2.85-.86,1.06,1.06,0,0,1,.64.25,6.38,6.38,0,0,0,1.33.88,12.18,12.18,0,0,0,6.51.17c0.9-.22,1.2-0.65.92-1.3a1,1,0,0,0-.63-0.54A19.29,19.29,0,0,0,1513,162a14.34,14.34,0,0,1-6.9-2.07c-3.63-2.09-4.28-6-1.62-9.23a8.09,8.09,0,0,1,6.4-2.94,16.19,16.19,0,0,1,7.23,1.55,4.36,4.36,0,0,1,2.41,2.42,3.18,3.18,0,0,1-3.23,4.53,12.74,12.74,0,0,1-2.59-.53A3.6,3.6,0,0,1,1513.87,155.3Z" transform="translate(-1398.04 -122.99)"/><path class="cls-2" d="M1565.17,376.83l-0.1.16a11.92,11.92,0,0,0-2,.22,6.19,6.19,0,0,0-2.22,1,2.32,2.32,0,0,0-.59,1.66,1.25,1.25,0,0,0,1.3,1,5.07,5.07,0,0,0,4.56-1.43,1.53,1.53,0,0,0,.53-1.84A3.47,3.47,0,0,0,1565.17,376.83Zm1.62,6.73a49.15,49.15,0,0,1-5,.61,7.05,7.05,0,0,1-4.84-1.89,3.24,3.24,0,0,1-.25-4.93,9.06,9.06,0,0,1,6.83-3.08c1,0,2.05,0,3.2,0a7.89,7.89,0,0,0-.59-4.36c-0.57-1-1.53-1.32-3-1a2.58,2.58,0,0,0-2.28,2.22c0,0.2,0,.4,0,0.6-0.12,1.28-.9,1.71-2.08,1.17a2.36,2.36,0,0,1-1.47-2.77,5.57,5.57,0,0,1,5.14-4.61,11.75,11.75,0,0,1,3.14.28c3,0.73,4.36,3,5.1,5.77s0.52,5.51.5,8.28a39.59,39.59,0,0,1-.3,4.19c-0.15,1.31-.71,1.66-2.23,1.58a1.68,1.68,0,0,1-1.77-1.78C1566.79,383.65,1566.79,383.51,1566.79,383.56Z" transform="translate(-1398.04 -122.99)"/><path class="cls-2" d="M1473.36,380.94a4.7,4.7,0,0,0,3.38-1.22,3.77,3.77,0,0,0,.94-1.56,0.78,0.78,0,0,0-.83-1.1,25.64,25.64,0,0,0-4.35.64,1.83,1.83,0,0,0-1.33,2.13c0.17,0.71.84,1.07,2,1.11h0.17Zm4.42,2.61a48.83,48.83,0,0,1-5,.62,7.08,7.08,0,0,1-4.92-1.92,3.22,3.22,0,0,1-.25-4.87,9,9,0,0,1,6.82-3.11c1.05,0,2.11,0,3.41,0a32.49,32.49,0,0,0-.51-3.77,2.3,2.3,0,0,0-2.78-1.72,2.76,2.76,0,0,0-2.75,2.36c0,0.06,0,.11,0,0.17-0.16,1.54-.35,1.77-1.41,1.73a2.43,2.43,0,0,1-2.2-2.12,5.43,5.43,0,0,1,5.12-5.43,11.74,11.74,0,0,1,3.14.26c2.71,0.62,4.2,2.57,4.92,5.1a17.14,17.14,0,0,1,.7,4.46c0,2.88-.1,5.77-0.28,8.65-0.08,1.36-.66,1.69-2.18,1.62a1.69,1.69,0,0,1-1.82-1.82A1.1,1.1,0,0,0,1477.78,383.55Z" transform="translate(-1398.04 -122.99)"/><path class="cls-2" d="M1578.72,367.29a4.23,4.23,0,0,1,4.25-2,6.92,6.92,0,0,1,5.32,3.89,17.12,17.12,0,0,1,1.47,7.25c0,2.06-.08,4.13,0,6.18a1.65,1.65,0,0,1-2.16,1.7l-0.08,0c-1.69-.43-1.82-0.6-1.82-2.34,0-2.69.09-5.38-.06-8.06a14,14,0,0,0-1-4.22c-0.62-1.58-1.88-1.7-3-.41a13.1,13.1,0,0,0-3.13,11.16,19.44,19.44,0,0,1,.27,2.21,1.41,1.41,0,0,1-1.45,1.55,2.38,2.38,0,0,1-2.84-2.55c0-3.78.1-7.55,0.11-11.33a21.77,21.77,0,0,0-.25-2.73,2.09,2.09,0,0,1,1.26-2.38,1.83,1.83,0,0,1,2.42.35A4.92,4.92,0,0,1,1578.72,367.29Z" transform="translate(-1398.04 -122.99)"/><path class="cls-2" d="M1541.51,367.33c1.17-1.38,2.58-2.4,4.5-2a7,7,0,0,1,5.13,3.77,17,17,0,0,1,1.51,7.33c0,2.06-.08,4.13,0,6.18a1.65,1.65,0,0,1-2.22,1.7c-0.33-.09-0.64-0.25-1-0.34a1.14,1.14,0,0,1-.91-1.38c0.11-2.11.22-4.24,0.13-6.35a39.3,39.3,0,0,0-.65-5.34c-0.18-1-.55-2.17-1.77-2.41s-1.76.79-2.34,1.57a13.29,13.29,0,0,0-2.35,11.2,5.57,5.57,0,0,1,.12.76c0.1,1.37-.18,1.9-1.16,2.14a2.32,2.32,0,0,1-2.8-1.26,4.43,4.43,0,0,1-.33-1.57c0-3.21,0-6.41,0-9.62,0-1.45-.07-2.9-0.14-4.35a2.25,2.25,0,0,1,1.58-2.28,2,2,0,0,1,2.37.69A4.29,4.29,0,0,1,1541.51,367.33Z" transform="translate(-1398.04 -122.99)"/><path class="cls-2" d="M1496.94,367.39c1.25-1.44,2.68-2.49,4.63-2a7,7,0,0,1,5.13,3.9,17.49,17.49,0,0,1,1.45,7.26c0,2-.09,4.07,0,6.1a1.66,1.66,0,0,1-2.28,1.69c-0.41-.13-0.79-0.33-1.2-0.45a0.82,0.82,0,0,1-.6-1c0.07-2.09.21-4.18,0.13-6.26-0.07-1.9-.38-3.8-0.63-5.69a4.05,4.05,0,0,0-.48-1.27c-0.76-1.47-1.89-1.64-3-.39a13.14,13.14,0,0,0-3.17,11.15,21.32,21.32,0,0,1,.28,2.2,1.41,1.41,0,0,1-1.41,1.59,2.45,2.45,0,0,1-2.89-2.68c0-1.77,0-3.55,0-5.32,0-2,.13-4,0.13-6a22.41,22.41,0,0,0-.26-2.64,2.05,2.05,0,0,1,1.23-2.31,2.11,2.11,0,0,1,2.39.2C1497.26,366,1496.8,366.72,1496.94,367.39Z" transform="translate(-1398.04 -122.99)"/><path class="cls-2" d="M1619.14,371.67a6.81,6.81,0,0,0-.1-0.79c-0.38-1.66-1.62-2.46-3-2s-2.46,3.21-1.7,4.54a1.75,1.75,0,0,0,.65.66,3.21,3.21,0,0,0,3-.13A2.27,2.27,0,0,0,1619.14,371.67Zm-5.59,5.45c0.1,0.63.15,1.14,0.27,1.63,0.46,1.89,1.34,2.51,3.24,2.06a35.44,35.44,0,0,0,3.34-1.28,7.91,7.91,0,0,1,2.36-.56,1,1,0,0,1,1.07,1.44,4.36,4.36,0,0,1-1.26,1.95,8.84,8.84,0,0,1-5.43,1.81,11.89,11.89,0,0,1-3.87-.46c-2.39-.76-3.34-2.79-3.59-5.09a17.6,17.6,0,0,1,2.87-11.67c1.18-1.84,2.68-2.26,4.77-1.58a10.23,10.23,0,0,1,5.14,3.69,4.78,4.78,0,0,1-.73,6.43A7.18,7.18,0,0,1,1613.55,377.12Z" transform="translate(-1398.04 -122.99)"/><path class="cls-2" d="M1530.14,371.66a6,6,0,0,0-.11-0.85c-0.41-1.62-1.62-2.38-3-1.89s-2.47,3.18-1.73,4.52a1.76,1.76,0,0,0,.64.66,3.2,3.2,0,0,0,3-.11A2.27,2.27,0,0,0,1530.14,371.66Zm-5.7,5.42a28,28,0,0,0,.79,2.75,1.8,1.8,0,0,0,1.86,1.11,9.36,9.36,0,0,0,4.13-1.3,6,6,0,0,1,2.33-.69,1.14,1.14,0,0,1,1.21,1.75,4.3,4.3,0,0,1-1.5,1.88,10.65,10.65,0,0,1-8.56,1.3c-2.66-.71-3.76-2.79-4-5.3a17.61,17.61,0,0,1,2.85-11.59c1.2-1.89,2.7-2.3,4.84-1.59a10.26,10.26,0,0,1,5.08,3.64,4.76,4.76,0,0,1-.61,6.38,8.46,8.46,0,0,1-6.54,2.24A8.86,8.86,0,0,1,1524.44,377.08Z" transform="translate(-1398.04 -122.99)"/><path class="cls-2" d="M1599.41,384.55a6.83,6.83,0,0,1-7-7,19.87,19.87,0,0,1,2.79-10.11,6.43,6.43,0,0,1,.47-0.72c1.51-2.09,3.11-2.59,5.52-1.67a19.7,19.7,0,0,1,2.22,1.11c2.48,1.33,2.66,3.63,2.37,6a13,13,0,0,1-1,3.09,1.34,1.34,0,0,1-1.39.94,2.11,2.11,0,0,1-1.86-1,1.29,1.29,0,0,1,0-1,9.94,9.94,0,0,0,.24-5.08,1.23,1.23,0,0,0-2.09-.9,5.12,5.12,0,0,0-1.69,2,15.45,15.45,0,0,0-1.3,8.61c0.4,2.77,2.47,3.68,4.78,2.1a8.8,8.8,0,0,0,2.65-2.88,3,3,0,0,1,1.5-1.23c0.74-.24,1.87.88,1.89,1.83a2.93,2.93,0,0,1-.42,1.69C1605.23,382.82,1602.92,384.65,1599.41,384.55Z" transform="translate(-1398.04 -122.99)"/><path class="cls-2" d="M1609.5,172a2.86,2.86,0,0,1-2.38-.89,1.8,1.8,0,0,1-.62-2,1.55,1.55,0,0,0-.62-1.82,1.44,1.44,0,0,0-1.75-.07,13.27,13.27,0,0,0-6,6.59,29.21,29.21,0,0,0-1.3,3.94,1.3,1.3,0,0,1-1.28,1.15,4.79,4.79,0,0,1-4-1.7,1.75,1.75,0,0,1,.25-2.51,2.85,2.85,0,0,0,.71-1c1.28-3.35,2.54-6.72,3.8-10.08,0.1-.27.21-0.53,0.32-0.79,0.67-1.59,1.36-2,3-1.47a5.83,5.83,0,0,1,3.42,2.13,1,1,0,0,0,.72.26,7.49,7.49,0,0,1,7.62,6C1611.72,171,1611.41,172.2,1609.5,172Z" transform="translate(-1398.04 -122.99)"/><path class="cls-2" d="M1516.06,370.12c0.11,3,.22,6.14.35,9.24,0,0.88.21,1.76,0.25,2.64a1.82,1.82,0,0,1-1.41,1.8,1.56,1.56,0,0,1-2-.8,7,7,0,0,1-1-3.75c0-2.72,0-5.43,0-8.15,0-.63-0.08-1-0.85-1a6.63,6.63,0,0,1-2-.49,0.8,0.8,0,0,1-.36-1.33,2.61,2.61,0,0,1,2.47-1.42,0.94,0.94,0,0,0,1.16-1c0-1.58-.12-3.16-0.11-4.75a1.82,1.82,0,0,1,.47-1.19,1.94,1.94,0,0,1,2.21-.44c1.43,0.59,2,2.08,1.64,3.89-0.21.9-.38,1.82-0.57,2.77,0.69,0.16,1.22.25,1.72,0.42a3.73,3.73,0,0,1,1.14.56,1.2,1.2,0,0,1-.28,2.21C1518.09,369.61,1517.19,369.79,1516.06,370.12Z" transform="translate(-1398.04 -122.99)"/><path class="cls-2" d="M1485.25,373.09c0.15-2.27.33-4.58,0.45-6.89a0.83,0.83,0,0,1,1-.91,6.38,6.38,0,0,1,1.2.07c2.44,0.49,2.74,1,2.36,3.46a30.89,30.89,0,0,0-.48,5.1c0,3-.38,6,0.38,8.89a1.29,1.29,0,0,1-1.26,1.23,2.66,2.66,0,0,1-3.1-2.66C1485.55,378.63,1485.41,375.89,1485.25,373.09Z" transform="translate(-1398.04 -122.99)"/><path class="cls-2" d="M1499.34,146.67a10.41,10.41,0,0,1-.7,2.08,11.72,11.72,0,0,1-4.38,4.61,6.92,6.92,0,0,1-2.43.63,0.92,0.92,0,0,1-.76-0.49,1.13,1.13,0,0,1,.35-0.87c0.58-.59,1.3-1.05,1.83-1.68a6.17,6.17,0,0,0,1.1-1.9c0.45-1.29-.11-2.1-1.46-2.32-0.68-.11-1.36-0.21-2-0.37a1.58,1.58,0,0,1-1-2.63,6.19,6.19,0,0,1,7.56-1.68C1499.07,143,1499.24,144.58,1499.34,146.67Z" transform="translate(-1398.04 -122.99)"/><path class="cls-2" d="M1583,227.3c-1.11-.21-2.24-0.37-3.34-0.66a1.3,1.3,0,0,1-.84-0.83,1.25,1.25,0,0,1,.66-1,17.72,17.72,0,0,1,3.38-1.17,11.05,11.05,0,0,1,5.85.14,1.7,1.7,0,0,1,1.06.91,1.85,1.85,0,0,1-.93,1.17A15.21,15.21,0,0,1,1583,227.3Z" transform="translate(-1398.04 -122.99)"/><path class="cls-2" d="M1569.27,219.24c-2.48-.11-4.52-0.18-6.36-1.2a1.57,1.57,0,0,1-.82-1,1.47,1.47,0,0,1,.94-0.93,12.82,12.82,0,0,1,9.27.65,1.4,1.4,0,0,1,.75,1,1.38,1.38,0,0,1-.88.89C1571.09,218.92,1570,219.09,1569.27,219.24Z" transform="translate(-1398.04 -122.99)"/><path class="cls-2" d="M1484,241.67c0.24-1.23.51-2.79,0.85-4.35a3.36,3.36,0,0,1,.59-1.32,1.85,1.85,0,0,1,1.12-.84,1.56,1.56,0,0,1,.9,1.07,15.13,15.13,0,0,1,.38,3.21,11.68,11.68,0,0,1-1.16,5.48,5.43,5.43,0,0,1-1.29,1.22,5.72,5.72,0,0,1-1-1.48A21.16,21.16,0,0,1,1484,241.67Z" transform="translate(-1398.04 -122.99)"/><path class="cls-2" d="M1478.39,239.91c0.42-1.79.83-3.59,1.26-5.38a1.78,1.78,0,0,1,.45-0.82,1.81,1.81,0,0,1,1-.63,1.15,1.15,0,0,1,.78.77,19.51,19.51,0,0,1,.49,3.63,11.27,11.27,0,0,1-1.16,5.39,5.45,5.45,0,0,1-1.29,1.21,5.7,5.7,0,0,1-1-1.48,16.85,16.85,0,0,1-.35-2.62Z" transform="translate(-1398.04 -122.99)"/><path class="cls-2" d="M1600.49,216.43a14.54,14.54,0,0,1-2.62,7.34c-0.39.56-1,1.36-1.69,1a2.29,2.29,0,0,1-.64-1.78,13.58,13.58,0,0,1,2.56-7.52c0.4-.58.92-1.39,1.76-1.07s0.63,1.19.63,1.9C1600.49,216.32,1600.49,216.37,1600.49,216.43Z" transform="translate(-1398.04 -122.99)"/><path class="cls-2" d="M1497.18,232.11c-1.33-.22-2.62-0.43-3.91-0.67a3.3,3.3,0,0,1-1-.43c-0.89-.53-0.92-1.19,0-1.67a7.36,7.36,0,0,1,1.93-.68,13.85,13.85,0,0,1,7,.24c0.67,0.2,1.56.4,1.57,1.24s-0.88,1.09-1.55,1.25C1499.84,231.7,1498.51,231.88,1497.18,232.11Z" transform="translate(-1398.04 -122.99)"/><path class="cls-2" d="M1485.38,218.06c1.34,0.24,2.67.46,4,.73a2.91,2.91,0,0,1,1,.48c0.7,0.48.73,1.07,0,1.48a7.47,7.47,0,0,1-2.07.77,13.74,13.74,0,0,1-7-.24c-0.67-.2-1.56-0.41-1.56-1.25s0.88-1.09,1.55-1.25C1482.65,218.47,1484,218.29,1485.38,218.06Z" transform="translate(-1398.04 -122.99)"/><path class="cls-2" d="M1491,223.39c1.33,0.23,2.6.43,3.85,0.67a3.33,3.33,0,0,1,1,.43c0.89,0.53.92,1.19,0,1.67a7.36,7.36,0,0,1-1.93.68,13.85,13.85,0,0,1-7-.24c-0.67-.2-1.56-0.41-1.57-1.25s0.88-1.1,1.54-1.25C1488.31,223.79,1489.67,223.62,1491,223.39Z" transform="translate(-1398.04 -122.99)"/><path class="cls-2" d="M1481.84,212.39c1.32,0.22,2.61.43,3.9,0.67a3.25,3.25,0,0,1,.95.39c1,0.55,1,1.22,0,1.77a4.5,4.5,0,0,1-1,.42,14.1,14.1,0,0,1-7.71,0c-0.7-.2-1.63-0.4-1.65-1.26s0.92-1.12,1.62-1.28C1479.22,212.79,1480.53,212.62,1481.84,212.39Z" transform="translate(-1398.04 -122.99)"/><path class="cls-2" d="M1579.18,209.57a14.76,14.76,0,0,1-7.33-2.38c-0.58-.38-1.33-0.86-1.06-1.68s1.11-.72,1.78-0.71a14,14,0,0,1,7.67,2.38c0.57,0.37,1.35.84,1.07,1.67s-1.16.67-1.87,0.72h-0.26Z" transform="translate(-1398.04 -122.99)"/><path class="cls-2" d="M1574.19,220.28a13.43,13.43,0,0,1-2.75,6.55,11.58,11.58,0,0,1-1.91,1.94,1.31,1.31,0,0,1-1.16.21,1.21,1.21,0,0,1-.44-1.08,29.17,29.17,0,0,1,1.45-4.44,9.11,9.11,0,0,1,3-3.86,1.54,1.54,0,0,1,1.24-.26A1.84,1.84,0,0,1,1574.19,220.28Z" transform="translate(-1398.04 -122.99)"/><path class="cls-2" d="M1493.42,254.31a5.31,5.31,0,0,1-.26.86,13.93,13.93,0,0,1-5.54,6.14c-0.59.36-1.33,0.87-2,.27s-0.17-1.38.13-2a14.27,14.27,0,0,1,5.25-5.75,4.33,4.33,0,0,1,1.34-.55C1493,253.16,1493.44,253.53,1493.42,254.31Z" transform="translate(-1398.04 -122.99)"/><path class="cls-2" d="M1479.63,259.07c-0.8,0-1.15-.28-1.08-0.89a3.58,3.58,0,0,1,.3-1.15,13.91,13.91,0,0,1,5.53-6c0.57-.34,1.28-0.83,1.9-0.26s0.17,1.35-.13,2a14.17,14.17,0,0,1-5,5.64A9.7,9.7,0,0,1,1479.63,259.07Z" transform="translate(-1398.04 -122.99)"/><path class="cls-2" d="M1503.81,237.41c-1.23-.2-2.47-0.39-3.7-0.62a2.5,2.5,0,0,1-1-.41,1.62,1.62,0,0,1-.74-0.92,1.3,1.3,0,0,1,.77-0.89,10.27,10.27,0,0,1,3.05-.76,37.42,37.42,0,0,1,5.36.35c0.78,0.1,1.87.36,1.85,1.34s-1.1,1.15-1.89,1.33C1506.29,237.09,1505.06,237.22,1503.81,237.41Z" transform="translate(-1398.04 -122.99)"/><path class="cls-2" d="M1494.15,241.89c-0.23,1.48-.41,2.75-0.63,4a2.41,2.41,0,0,1-.38,1,10.45,10.45,0,0,1-1.16,1.12,4.08,4.08,0,0,1-1-1.18,13,13,0,0,1,.35-9,1.61,1.61,0,0,1,1.08-.89,1.44,1.44,0,0,1,.92.95C1493.69,239.31,1493.91,240.68,1494.15,241.89Z" transform="translate(-1398.04 -122.99)"/><path class="cls-2" d="M1594.68,243.48c-1.54-.3-2.87-0.49-4.14-0.85a3.94,3.94,0,0,1-1.2-1.06,5.15,5.15,0,0,1,1.26-1.13,12.89,12.89,0,0,1,6.49-.64,9,9,0,0,1,2.38.6,1.59,1.59,0,0,1,.94,1,1.53,1.53,0,0,1-1,1C1597.81,242.86,1596.17,243.16,1594.68,243.48Z" transform="translate(-1398.04 -122.99)"/><path class="cls-2" d="M1576.32,233.17a21.6,21.6,0,0,1-2.46-.45c-1-.31-1.15-1-0.33-1.62a9.44,9.44,0,0,1,2.4-1.29,14.18,14.18,0,0,1,5.9-.88,5.2,5.2,0,0,1,1.26.25c1.08,0.36,1.24,1.06.34,1.71a7.63,7.63,0,0,1-2.33,1.22C1579.45,232.57,1577.76,232.86,1576.32,233.17Z" transform="translate(-1398.04 -122.99)"/><path class="cls-2" d="M1468.57,223.42a14,14,0,0,1-1.92,6.89,5.37,5.37,0,0,1-1.4,1.1,4.74,4.74,0,0,1-.84-1.55,12.85,12.85,0,0,1,2-8.49,1.61,1.61,0,0,1,1.19-.74,2.44,2.44,0,0,1,.82,1.13,0.94,0.94,0,0,1,.09.42C1468.53,222.54,1468.55,222.91,1468.57,223.42Z" transform="translate(-1398.04 -122.99)"/><path class="cls-2" d="M1583.59,205.62a14.82,14.82,0,0,1-7.25-2.36c-0.58-.38-1.33-0.85-1.09-1.67s1.09-.73,1.76-0.73a14,14,0,0,1,7.6,2.32c0.6,0.39,1.43.86,1.16,1.71s-1.2.69-1.93,0.74h-0.26Z" transform="translate(-1398.04 -122.99)"/><path class="cls-2" d="M1601.12,229.84c1.49,0.32,2.88.57,4.24,1a1.42,1.42,0,0,1,.9,1,1.48,1.48,0,0,1-.88,1,13,13,0,0,1-9,.23,4,4,0,0,1-1.16-1.1,4,4,0,0,1,1.23-1.06C1598,230.42,1599.56,230.15,1601.12,229.84Z" transform="translate(-1398.04 -122.99)"/><path class="cls-2" d="M1586.91,221.11a21.85,21.85,0,0,1-2.56-.52,0.81,0.81,0,0,1-.28-1.55,9.64,9.64,0,0,1,2.4-1.28,13.81,13.81,0,0,1,6.15-.82,4.56,4.56,0,0,1,1.24.3c0.86,0.35,1,1,.27,1.55a8.18,8.18,0,0,1-2.48,1.3C1590.05,220.55,1588.39,220.81,1586.91,221.11Z" transform="translate(-1398.04 -122.99)"/><path class="cls-2" d="M1608.69,250.53c-1.55-.3-2.94-0.5-4.27-0.88a3.76,3.76,0,0,1-1.17-1.08,5.06,5.06,0,0,1,1.22-1.08,13,13,0,0,1,6.49-.66,9.64,9.64,0,0,1,2.46.62,1.51,1.51,0,0,1,.91,1,1.56,1.56,0,0,1-.95,1C1611.8,249.89,1610.19,250.2,1608.69,250.53Z" transform="translate(-1398.04 -122.99)"/><path class="cls-2" d="M1602.38,251.22a15,15,0,0,1,6.37,2.36,9.39,9.39,0,0,1,2.12,1.81c0.72,0.84.35,1.68-.73,1.56a18.52,18.52,0,0,1-4.54-1.07,21.39,21.39,0,0,1-3.45-2,1.59,1.59,0,0,1-.6-0.6,2.43,2.43,0,0,1-.44-1.42A2.64,2.64,0,0,1,1602.38,251.22Z" transform="translate(-1398.04 -122.99)"/><path class="cls-2" d="M1597.38,238.63c-1.33-.27-2.68-0.47-4-0.84a3.72,3.72,0,0,1-1.14-1,5,5,0,0,1,1.25-1.14A12.83,12.83,0,0,1,1600,235a10.36,10.36,0,0,1,2.54.66,1.39,1.39,0,0,1,.82.95,1.47,1.47,0,0,1-.83.95A14.94,14.94,0,0,1,1597.38,238.63Z" transform="translate(-1398.04 -122.99)"/><path class="cls-2" d="M1540.19,203.22a13.56,13.56,0,0,1-.46,1.54,14.94,14.94,0,0,1-3.94,5.54,3.29,3.29,0,0,1-1,.67,1.7,1.7,0,0,1-1.24.15,1.61,1.61,0,0,1-.34-1.29,7.76,7.76,0,0,1,.67-2,14.57,14.57,0,0,1,3.54-4.79,6.24,6.24,0,0,1,1.42-.95C1539.68,201.66,1540.18,202,1540.19,203.22Z" transform="translate(-1398.04 -122.99)"/><path class="cls-2" d="M1546.17,204.4a20.9,20.9,0,0,1-.46,2.42c-0.27.88-.92,1-1.54,0.31a8.34,8.34,0,0,1-1.87-4.53,25.29,25.29,0,0,1-.16-4.59,3.66,3.66,0,0,1,.82-1.38,4.93,4.93,0,0,1,1.34,1A15,15,0,0,1,1546.17,204.4Z" transform="translate(-1398.04 -122.99)"/><path class="cls-2" d="M1549,211.71a30.2,30.2,0,0,1,1.85-4.32,24.16,24.16,0,0,1,3.11-3.71,1.3,1.3,0,0,1,1.22-.24,1.38,1.38,0,0,1,.43,1.18,12.69,12.69,0,0,1-4.71,8.09,1.5,1.5,0,0,1-1.24.25A3,3,0,0,1,1549,211.71Z" transform="translate(-1398.04 -122.99)"/><path class="cls-2" d="M1554,250.35c-1.38-.29-2.77-0.53-4.13-0.9a1.34,1.34,0,0,1-.85-0.91,1.32,1.32,0,0,1,.77-1,14.87,14.87,0,0,1,3.7-.94,22.46,22.46,0,0,1,4.84.29,2.32,2.32,0,0,1,1.67,1.18c0.19,0.84-.8,1.16-1.5,1.33C1557,249.79,1555.54,250,1554,250.35Z" transform="translate(-1398.04 -122.99)"/><path class="cls-2" d="M1463,221c-0.2,1.47-.33,2.64-0.54,3.78a4.51,4.51,0,0,1-.57,1.51,1.46,1.46,0,0,1-.93.74,1.38,1.38,0,0,1-.9-0.77,10.69,10.69,0,0,1-.75-5.79,17.89,17.89,0,0,1,.83-3.56,1,1,0,0,1,2,0C1462.54,218.38,1462.79,219.83,1463,221Z" transform="translate(-1398.04 -122.99)"/><path class="cls-2" d="M1569.09,209.56a15.13,15.13,0,0,1,5.81,1.11c0.63,0.29,1.48.56,1.36,1.44s-1,.89-1.61,1a14,14,0,0,1-8-.84c-0.63-.25-1.47-0.58-1.36-1.45s1-.91,1.61-1C1567.74,209.66,1568.57,209.62,1569.09,209.56Z" transform="translate(-1398.04 -122.99)"/><path class="cls-2" d="M1573.65,198.66c-0.88,0-1.23-.4-1-1a11.73,11.73,0,0,1,1.21-2.62,13.5,13.5,0,0,1,4.55-4.34c0.62-.36,1.4-0.89,2-0.27s0.13,1.35-.18,2a14.23,14.23,0,0,1-5.44,5.79A5.68,5.68,0,0,1,1573.65,198.66Z" transform="translate(-1398.04 -122.99)"/><path class="cls-2" d="M1448.67,223.46a12.51,12.51,0,0,1,5.91,2.15,16.93,16.93,0,0,1,2.58,2.21,1.35,1.35,0,0,1,.29,1.21,1.44,1.44,0,0,1-1.15.48,11.94,11.94,0,0,1-6-2.26,12.52,12.52,0,0,1-2.24-2,1.5,1.5,0,0,1-.34-1.28A1.87,1.87,0,0,1,1448.67,223.46Z" transform="translate(-1398.04 -122.99)"/><path class="cls-2" d="M1496.23,271.9a14.69,14.69,0,0,1-1.72,6.67c-0.33.57-.73,1.44-1.48,1.14a2.25,2.25,0,0,1-.91-1.66,13.55,13.55,0,0,1,1.67-8c0.32-.57.74-1.36,1.44-1.07a2.81,2.81,0,0,1,.9,1.58A5,5,0,0,1,1496.23,271.9Z" transform="translate(-1398.04 -122.99)"/><path class="cls-2" d="M1509,183.14a2.28,2.28,0,0,1-.64,1.11,1.62,1.62,0,0,1-1.34-.44,13.22,13.22,0,0,1-3.94-8,2.62,2.62,0,0,1,.07-0.93,0.74,0.74,0,0,1,1.17-.55,1.79,1.79,0,0,1,.51.32A14.36,14.36,0,0,1,1509,183.14Z" transform="translate(-1398.04 -122.99)"/><path class="cls-2" d="M1517.5,177.14c0.75,0,1.07.35,0.89,1a4.15,4.15,0,0,1-.6,1.31,14.16,14.16,0,0,1-6,5c-0.64.28-1.43,0.69-2,.07s0-1.37.34-1.95a14.13,14.13,0,0,1,6.29-5.24,3.63,3.63,0,0,1,.66-0.18A2.73,2.73,0,0,1,1517.5,177.14Z" transform="translate(-1398.04 -122.99)"/><path class="cls-2" d="M1585.55,234.39a13.84,13.84,0,0,1,1.52-6.28c0.35-.67.74-1.58,1.63-1.41s0.85,1.13.91,1.86a14.11,14.11,0,0,1-1.58,7.71c-0.31.62-.74,1.42-1.55,1.26s-0.82-1.07-.91-1.77A11.31,11.31,0,0,1,1585.55,234.39Z" transform="translate(-1398.04 -122.99)"/><path class="cls-2" d="M1579.48,199.14c-0.41,0-.61,0-0.81-0.06-1-.16-1.32-0.8-0.66-1.54a9.41,9.41,0,0,1,2-1.69,13.83,13.83,0,0,1,5.93-2.11c0.73-.08,1.65-0.24,2,0.56s-0.43,1.34-1,1.79A14.44,14.44,0,0,1,1579.48,199.14Z" transform="translate(-1398.04 -122.99)"/><path class="cls-2" d="M1458.88,256.68c-0.86,0-1.19-.39-1-1.18a2.18,2.18,0,0,1,.32-0.7,13.14,13.14,0,0,1,7.26-5.13,1.74,1.74,0,0,1,1.45.29,1.59,1.59,0,0,1-.22,1.37,13.08,13.08,0,0,1-7.44,5.29A2.73,2.73,0,0,1,1458.88,256.68Z" transform="translate(-1398.04 -122.99)"/><path class="cls-2" d="M1584.89,237.12c-0.23,1.39-.41,2.84-0.74,4.25-0.16.69-.48,1.65-1.33,1.52a2.28,2.28,0,0,1-1.16-1.49,13.64,13.64,0,0,1,.07-7.95c0.2-.68.45-1.61,1.35-1.57s1,0.93,1.17,1.62C1584.5,234.67,1584.67,235.85,1584.89,237.12Z" transform="translate(-1398.04 -122.99)"/><path class="cls-2" d="M1551.2,218.59c0.58-1.4,1.08-2.88,1.79-4.26a9.53,9.53,0,0,1,3.15-3.78,1.5,1.5,0,0,1,1.23-.24,1.37,1.37,0,0,1,.43,1.18,12.68,12.68,0,0,1-4.7,8.09,1.51,1.51,0,0,1-1.24.25A3,3,0,0,1,1551.2,218.59Z" transform="translate(-1398.04 -122.99)"/><path class="cls-2" d="M1452.09,236.28a5,5,0,0,1-1.25-.17,1.86,1.86,0,0,1-1.08-.78,1.37,1.37,0,0,1,.61-1.09,15.18,15.18,0,0,1,2.87-1.5,11.49,11.49,0,0,1,5.87-.81,4.64,4.64,0,0,1,1.38.8,4.59,4.59,0,0,1-.92,1.33A14.43,14.43,0,0,1,1452.09,236.28Z" transform="translate(-1398.04 -122.99)"/><path class="cls-2" d="M1526.53,188.81a15.16,15.16,0,0,1-1.24,5.85c-0.28.61-.59,1.41-1.39,1.33s-0.93-.94-1-1.6a13.54,13.54,0,0,1,1.07-8.2,5,5,0,0,1,1.3-1.22,6.06,6.06,0,0,1,1,1.47A13.68,13.68,0,0,1,1526.53,188.81Z" transform="translate(-1398.04 -122.99)"/><path class="cls-2" d="M1603.74,261.45c-0.37-.14-1-0.35-1.63-0.64a14,14,0,0,1-5.46-4.56c-0.42-.58-1-1.33-0.44-2s1.34-.22,2,0a14.43,14.43,0,0,1,6.19,4.83,3.47,3.47,0,0,1,.58,1.32C1605.15,261.16,1604.81,261.5,1603.74,261.45Z" transform="translate(-1398.04 -122.99)"/><path class="cls-2" d="M1584.13,256.37a8,8,0,0,1,4,1.86,30.67,30.67,0,0,1,3.36,3.27c0.5,0.55,1,1.38.46,2.09s-1.34.23-2,0a14.34,14.34,0,0,1-6.13-4.79,4.22,4.22,0,0,1-.62-1.21A0.8,0.8,0,0,1,1584.13,256.37Z" transform="translate(-1398.04 -122.99)"/><path class="cls-2" d="M1473.89,237.34a15.76,15.76,0,0,1,1.76-6.41,1.57,1.57,0,0,1,.39-0.56,2.23,2.23,0,0,1,1.19-.6,1.46,1.46,0,0,1,.73,1,11.55,11.55,0,0,1-.5,6.07,15.74,15.74,0,0,1-1.4,3,1.37,1.37,0,0,1-1.08.63,1.44,1.44,0,0,1-.78-1A15.69,15.69,0,0,1,1473.89,237.34Z" transform="translate(-1398.04 -122.99)"/><path class="cls-2" d="M1528.13,236.73c-1.47,0-1.82-.62-1.23-1.57a9.82,9.82,0,0,1,3.61-3.09,10.22,10.22,0,0,1,4.63-1.65,1.55,1.55,0,0,1,1.18.44,1.29,1.29,0,0,1-.21,1.16A13.15,13.15,0,0,1,1528.13,236.73Z" transform="translate(-1398.04 -122.99)"/><path class="cls-2" d="M1570.16,234.36a15.9,15.9,0,0,1,7.69,3.2c0.54,0.42,1.27,1,1,1.76s-1.2.61-1.9,0.56a14.37,14.37,0,0,1-7.37-3,0.72,0.72,0,0,1-.25-0.24c-0.25-.54-0.47-1.09-0.71-1.63Z" transform="translate(-1398.04 -122.99)"/><path class="cls-2" d="M1573,241.39a6.21,6.21,0,0,1,.06-0.68c0.17-.9.75-1.16,1.48-0.61a8.91,8.91,0,0,1,2.78,4,25.91,25.91,0,0,1,1.12,3.85c0.16,0.73.26,1.7-.55,2.08s-1.3-.4-1.75-0.94A14.12,14.12,0,0,1,1573,241.39Z" transform="translate(-1398.04 -122.99)"/><path class="cls-2" d="M1572.74,251.07c-0.25,1.38-.43,2.65-0.75,3.88a1.37,1.37,0,0,1-.84.92,1.45,1.45,0,0,1-1.06-.79,14.68,14.68,0,0,1-1.05-3.67,26.42,26.42,0,0,1,.11-4.85c0.06-.7.3-1.63,1.17-1.7s1.15,0.79,1.33,1.46C1572.08,247.9,1572.39,249.52,1572.74,251.07Z" transform="translate(-1398.04 -122.99)"/><path class="cls-2" d="M1448.55,249.68a11.09,11.09,0,0,1-1.49-.25c-0.89-.26-1.14-1-0.41-1.5a14.11,14.11,0,0,1,3.33-1.85,11.57,11.57,0,0,1,5.63-.79c0.59,0.07,1.4.13,1.39,0.84a2.08,2.08,0,0,1-.94,1.38A14.6,14.6,0,0,1,1448.55,249.68Z" transform="translate(-1398.04 -122.99)"/><path class="cls-2" d="M1597.71,262.87a25.2,25.2,0,0,1-3.66-2,28.09,28.09,0,0,1-3.55-3.42c-0.48-.52-1-1.32-0.5-2s1.38-.25,2.06,0a14.47,14.47,0,0,1,6.18,4.85,3.34,3.34,0,0,1,.54,1.24c0.19,0.78-.15,1.12-1,1.07Z" transform="translate(-1398.04 -122.99)"/><path class="cls-2" d="M1577.91,257.69a28.41,28.41,0,0,1,3.78,2.06,25,25,0,0,1,3.43,3.31c0.49,0.54,1,1.38.45,2.09s-1.34.22-2,0a14.32,14.32,0,0,1-6.12-4.8,4.16,4.16,0,0,1-.62-1.21c-0.25-.8.11-1.21,0.94-1.16Z" transform="translate(-1398.04 -122.99)"/><path class="cls-2" d="M1502,272.52a14.4,14.4,0,0,1,1.8-6.83c0.32-.54.73-1.28,1.39-1a2,2,0,0,1,.89,1.48,13.31,13.31,0,0,1-1.7,8.25,4.87,4.87,0,0,1-1.4,1.09,9.69,9.69,0,0,1-.87-1.56A5.28,5.28,0,0,1,1502,272.52Z" transform="translate(-1398.04 -122.99)"/><path class="cls-2" d="M1496.84,274.76a14.4,14.4,0,0,1,1.81-6.86c0.32-.54.73-1.26,1.41-1a2,2,0,0,1,.85,1.42,13.2,13.2,0,0,1-1.75,8.4,4.43,4.43,0,0,1-1.36,1,8.46,8.46,0,0,1-.84-1.49A5.84,5.84,0,0,1,1496.84,274.76Z" transform="translate(-1398.04 -122.99)"/><path class="cls-2" d="M1487.13,279.06a13.73,13.73,0,0,1,1.18-5.66,7.42,7.42,0,0,1,.61-1.13c0.33-.51.72-1.16,1.37-0.9a1.8,1.8,0,0,1,.79,1.28,13,13,0,0,1-1.82,8.7,3.93,3.93,0,0,1-1.19.85c-0.29-.42-0.59-0.84-0.87-1.27a0.84,0.84,0,0,1-.08-0.42C1487.12,280,1487.13,279.55,1487.13,279.06Z" transform="translate(-1398.04 -122.99)"/><path class="cls-2" d="M1489.52,204.46c-0.24,1.29-.4,2.59-0.75,3.84a4.11,4.11,0,0,1-1.11,1.26,5,5,0,0,1-1.09-1.21,12.3,12.3,0,0,1-.74-6.06,13.94,13.94,0,0,1,.66-2.91,1.37,1.37,0,0,1,.9-0.86,1.59,1.59,0,0,1,1,.83A13.84,13.84,0,0,1,1489.52,204.46Z" transform="translate(-1398.04 -122.99)"/><path class="cls-2" d="M1563.33,199.48a2.35,2.35,0,0,1-.6,1.1,1.66,1.66,0,0,1-1.38-.36,18.09,18.09,0,0,1-2.72-3.48,22.1,22.1,0,0,1-1.56-4.49,3.13,3.13,0,0,1,.38-1.39,4.32,4.32,0,0,1,1.46.48,12.85,12.85,0,0,1,3.68,5.59C1562.89,197.72,1563.07,198.56,1563.33,199.48Z" transform="translate(-1398.04 -122.99)"/><path class="cls-2" d="M1561.26,204.8a2.36,2.36,0,0,1-.6,1.1,1.66,1.66,0,0,1-1.38-.36,18.93,18.93,0,0,1-2.77-3.56,21,21,0,0,1-1.52-4.42,3.16,3.16,0,0,1,.38-1.39,4.32,4.32,0,0,1,1.46.48,12.83,12.83,0,0,1,3.68,5.59C1560.83,203,1561,203.88,1561.26,204.8Z" transform="translate(-1398.04 -122.99)"/><path class="cls-2" d="M1511.19,203.74c-1.53,0-1.9-.61-1.3-1.56a9.77,9.77,0,0,1,3.6-3.1,10.11,10.11,0,0,1,4.72-1.66,1.41,1.41,0,0,1,1.1.42,1.32,1.32,0,0,1-.2,1.16A13.25,13.25,0,0,1,1511.19,203.74Z" transform="translate(-1398.04 -122.99)"/><path class="cls-2" d="M1484.12,210.73a14.51,14.51,0,0,1-7.33-2.39c-0.53-.36-1.23-0.79-1-1.54s1.07-.76,1.74-0.77a14,14,0,0,1,7.55,2.17c0.63,0.39,1.52.84,1.27,1.73s-1.25.69-2,.79h-0.25Z" transform="translate(-1398.04 -122.99)"/><path class="cls-2" d="M1533.44,222.63c-1.1,0-1.47-.61-0.88-1.55a9.76,9.76,0,0,1,3.6-3.1,10.12,10.12,0,0,1,4.71-1.66,1.4,1.4,0,0,1,1.1.42,1.46,1.46,0,0,1-.19,1.17C1540.6,220,1535.79,222.66,1533.44,222.63Z" transform="translate(-1398.04 -122.99)"/><path class="cls-2" d="M1539.31,223.19a2.48,2.48,0,0,1,1.12.57,1.55,1.55,0,0,1-.22,1.25,11,11,0,0,1-4.71,3.59,16.92,16.92,0,0,1-3.33,1,1.45,1.45,0,0,1-1.26-.4,1.5,1.5,0,0,1,.26-1.29,12,12,0,0,1,5.05-3.71C1537.19,223.8,1538.25,223.54,1539.31,223.19Z" transform="translate(-1398.04 -122.99)"/><path class="cls-2" d="M1457.36,241.44a6.64,6.64,0,0,1-1.4-.19,1.66,1.66,0,0,1-1-.73,1.36,1.36,0,0,1,.57-1.11,15.23,15.23,0,0,1,2.94-1.54,11.36,11.36,0,0,1,6-.76A1,1,0,0,1,1465,239a12.31,12.31,0,0,1-5.6,2.19C1458.71,241.34,1458.05,241.37,1457.36,241.44Z" transform="translate(-1398.04 -122.99)"/><path class="cls-2" d="M1532.4,237.45a2.54,2.54,0,0,1,1.15.56,1.53,1.53,0,0,1-.21,1.25,10.93,10.93,0,0,1-4.63,3.56,14.94,14.94,0,0,1-3.24,1,3.88,3.88,0,0,1-1.55-.39,4.67,4.67,0,0,1,.49-1.47,12.05,12.05,0,0,1,4.74-3.44C1530.19,238.1,1531.3,237.82,1532.4,237.45Z" transform="translate(-1398.04 -122.99)"/><path class="cls-2" d="M1523.86,214.6c-1.72-.92-3.48-1.79-5.15-2.8a6.27,6.27,0,0,1-1.68-1.68,1.58,1.58,0,0,1-.26-1.31,1.31,1.31,0,0,1,1.18-.38,21.58,21.58,0,0,1,4.17,1.45,24,24,0,0,1,3.44,2.51,2.73,2.73,0,0,1,.62.81c0.55,1,.2,1.55-0.91,1.53-0.48,0-1-.1-1.44-0.15Z" transform="translate(-1398.04 -122.99)"/><path class="cls-2" d="M1564.13,238.45a14.52,14.52,0,0,1,7.24,2.64c0.59,0.41,1.36,1,1.09,1.78s-1.18.68-1.87,0.64a14.42,14.42,0,0,1-7.42-2.65,1.4,1.4,0,0,1-.26-0.23c-0.42-.48-1.23-1-0.77-1.61,0.28-.4,1.14-0.41,1.74-0.59A0.81,0.81,0,0,1,1564.13,238.45Z" transform="translate(-1398.04 -122.99)"/><path class="cls-2" d="M1499.64,243.79c-0.23,1.43-.41,2.76-0.68,4.06a4.54,4.54,0,0,1-.71,1.54,0.78,0.78,0,0,1-1.44,0,4.4,4.4,0,0,1-.57-1.33,14.81,14.81,0,0,1,.15-7.29,2.32,2.32,0,0,1,.34-0.87,13.55,13.55,0,0,1,1.15-1.12,3.8,3.8,0,0,1,1,1.17C1499.22,241.21,1499.4,242.54,1499.64,243.79Z" transform="translate(-1398.04 -122.99)"/><path class="cls-2" d="M1495,204.21c-0.51,1.83-1,3.67-1.56,5.48a4.38,4.38,0,0,1-1,1.5,0.79,0.79,0,0,1-1.46-.26,5.08,5.08,0,0,1-.33-1.58,13.92,13.92,0,0,1,1.63-7.51c0.31-.56.66-1.3,1.43-1.15s0.84,1,.93,1.66,0.09,1.19.12,1.79Z" transform="translate(-1398.04 -122.99)"/><path class="cls-2" d="M1559.2,228.35a2.44,2.44,0,0,1-1-.62,1.25,1.25,0,0,1,.26-1.15,27.79,27.79,0,0,1,3.46-2.89,9.24,9.24,0,0,1,4.79-1.71,1.4,1.4,0,0,1,1.11.4,1.42,1.42,0,0,1-.21,1.23A13.84,13.84,0,0,1,1559.2,228.35Z" transform="translate(-1398.04 -122.99)"/><path class="cls-2" d="M1556.56,240.87a13.64,13.64,0,0,1,8.64,2.51,2.34,2.34,0,0,1,.76.68,2,2,0,0,1,.44,1.27,1.4,1.4,0,0,1-1.12.56,12.73,12.73,0,0,1-8.72-3.21c-0.8-.71-0.73-1.13,0-1.83Z" transform="translate(-1398.04 -122.99)"/><path class="cls-2" d="M1501.82,246.94c0.34-1.49.65-3.11,1.12-4.68a1.62,1.62,0,0,1,1.11-1,1.59,1.59,0,0,1,1,1,12.92,12.92,0,0,1-.27,9,1.71,1.71,0,0,1-1.12,1,1.54,1.54,0,0,1-1-1C1502.3,249.88,1502.11,248.5,1501.82,246.94Z" transform="translate(-1398.04 -122.99)"/><path class="cls-2" d="M1575.76,218.42a13.79,13.79,0,0,1,1.42-6.29c0.33-.65.69-1.53,1.56-1.38s0.88,1.1,1,1.83a14.16,14.16,0,0,1-1.4,7.66c-0.31.66-.7,1.51-1.56,1.37s-0.87-1.1-1-1.82A9.73,9.73,0,0,1,1575.76,218.42Z" transform="translate(-1398.04 -122.99)"/><path class="cls-2" d="M1566.83,186.13c-0.11,1.06-.64,1.45-1.54,1a8.7,8.7,0,0,1-3.43-3.63,25.94,25.94,0,0,1-1.77-4.23,1.5,1.5,0,0,1,.3-1.35,1.78,1.78,0,0,1,1.46.27,12.83,12.83,0,0,1,4.1,5.4C1566.32,184.39,1566.54,185.28,1566.83,186.13Z" transform="translate(-1398.04 -122.99)"/><path class="cls-2" d="M1451.58,254.77c-1.67,0-2.16-.69-1.4-1.54a15.42,15.42,0,0,1,3.52-3,20.24,20.24,0,0,1,4.43-1.71,3.24,3.24,0,0,1,1.46.38,4.52,4.52,0,0,1-.47,1.47,12,12,0,0,1-4.79,3.5C1453.3,254.27,1452.19,254.56,1451.58,254.77Z" transform="translate(-1398.04 -122.99)"/><path class="cls-2" d="M1496.7,199.41a12.29,12.29,0,0,1,5.81,2.32,15.56,15.56,0,0,1,2.47,2.22,1.56,1.56,0,0,1,.37,1.34,1.79,1.79,0,0,1-1.42.45,11.78,11.78,0,0,1-5.6-2.42,15.79,15.79,0,0,1-2.34-2.23,1.29,1.29,0,0,1-.23-1.16A2,2,0,0,1,1496.7,199.41Z" transform="translate(-1398.04 -122.99)"/><path class="cls-2" d="M1518.18,184.7a2.47,2.47,0,0,1,1.12.58,1.55,1.55,0,0,1-.22,1.25,11.05,11.05,0,0,1-4.71,3.59,16.86,16.86,0,0,1-3.33,1,1.44,1.44,0,0,1-1.26-.4,1.51,1.51,0,0,1,.26-1.3,12,12,0,0,1,5.05-3.71C1516.06,185.31,1517.12,185,1518.18,184.7Z" transform="translate(-1398.04 -122.99)"/><path class="cls-2" d="M1496.85,192.54a12.26,12.26,0,0,1,5.94,2.39,16.2,16.2,0,0,1,2.49,2.32,1.34,1.34,0,0,1,.23,1.22,1.4,1.4,0,0,1-1.18.43,12.88,12.88,0,0,1-8.09-4.56A1,1,0,0,1,1496.85,192.54Z" transform="translate(-1398.04 -122.99)"/><path class="cls-2" d="M1518.17,190.2a2.49,2.49,0,0,1,1.13.56,1.54,1.54,0,0,1-.21,1.25,10.88,10.88,0,0,1-4.63,3.56,17.63,17.63,0,0,1-3.41,1.07,1.45,1.45,0,0,1-1.27-.39A1.5,1.5,0,0,1,1510,195a11.92,11.92,0,0,1,5-3.71C1516,190.81,1517.1,190.55,1518.17,190.2Z" transform="translate(-1398.04 -122.99)"/><path class="cls-2" d="M1494.34,212.49c0.5-1.8,1-3.61,1.5-5.41a2.42,2.42,0,0,1,.57-1,9.28,9.28,0,0,1,1.32-.92,4,4,0,0,1,.81,1.31,13.06,13.06,0,0,1-1.75,8.72,1,1,0,0,1-2-.38,14.43,14.43,0,0,1-.23-2.21Z" transform="translate(-1398.04 -122.99)"/><path class="cls-2" d="M1498.5,218.2a14.84,14.84,0,0,1,1.66-6.16c0.32-.58.66-1.38,1.48-1.22s0.88,1,.94,1.74a13.38,13.38,0,0,1-1.66,8,2.07,2.07,0,0,1-1.37,1c-0.77,0-.82-0.9-0.92-1.53S1498.53,218.83,1498.5,218.2Z" transform="translate(-1398.04 -122.99)"/><path class="cls-2" d="M1520.13,204.43c3.55,0.07,6.31,1.79,8.7,4.22a2,2,0,0,1,.58,1.64c-0.26.72-1.11,0.53-1.75,0.39a13.72,13.72,0,0,1-7.32-4.19c-0.78-.84-0.78-1.34-0.18-2.08Z" transform="translate(-1398.04 -122.99)"/><path class="cls-2" d="M1511.47,249.66c-0.25,1.52-.42,2.79-0.68,4a4.63,4.63,0,0,1-.65,1.48c-0.5.79-1.17,0.8-1.57,0a8.86,8.86,0,0,1-.73-2.44,14.05,14.05,0,0,1,.33-5.94,4.17,4.17,0,0,1,.5-1.27,1.66,1.66,0,0,1,1-.79,1.31,1.31,0,0,1,.93.82C1511,247,1511.21,248.41,1511.47,249.66Z" transform="translate(-1398.04 -122.99)"/><path class="cls-2" d="M1533.95,214.73c1.88-2.92,4.72-4.4,8-5.2a2.11,2.11,0,0,1,1.78.34c0.49,0.62-.14,1.28-0.62,1.77a13.5,13.5,0,0,1-7.55,4.09c-1.06.18-1.42-.1-1.56-1v0Z" transform="translate(-1398.04 -122.99)"/><path class="cls-2" d="M1564.94,192.61c-0.09,1.15-.66,1.54-1.65,1a8.81,8.81,0,0,1-3.29-3.53,27.57,27.57,0,0,1-1.8-4.31,1.48,1.48,0,0,1,.33-1.33,1.85,1.85,0,0,1,1.46.31A12.89,12.89,0,0,1,1564,190C1564.42,190.87,1564.64,191.76,1564.94,192.61Z" transform="translate(-1398.04 -122.99)"/><path class="cls-2" d="M1524.89,199.24a12.33,12.33,0,0,1,5.88,2.37,16.51,16.51,0,0,1,2.5,2.31,1.34,1.34,0,0,1,.27,1.21,1.53,1.53,0,0,1-1.25.45,12.92,12.92,0,0,1-8-4.45,1.8,1.8,0,0,1-.35-1.39A1.77,1.77,0,0,1,1524.89,199.24Z" transform="translate(-1398.04 -122.99)"/><path class="cls-2" d="M1513.71,212.81a12.3,12.3,0,0,1,5.88,2.36,16.58,16.58,0,0,1,2.51,2.31,1.35,1.35,0,0,1,.28,1.21,1.52,1.52,0,0,1-1.25.46,12.9,12.9,0,0,1-8-4.51,1.62,1.62,0,0,1-.32-1.31A1.75,1.75,0,0,1,1513.71,212.81Z" transform="translate(-1398.04 -122.99)"/><path class="cls-2" d="M1498.2,181.89a12.06,12.06,0,0,1,5.88,2.33,17,17,0,0,1,2.57,2.36,1.32,1.32,0,0,1,.25,1.21,1.55,1.55,0,0,1-1.26.43,12.91,12.91,0,0,1-8-4.47,1.88,1.88,0,0,1-.34-1.39A1.67,1.67,0,0,1,1498.2,181.89Z" transform="translate(-1398.04 -122.99)"/><path class="cls-2" d="M1540.89,221.72a1.37,1.37,0,0,1,0-.51,2.13,2.13,0,0,1,.6-1,1.29,1.29,0,0,1,1.06.31,9.47,9.47,0,0,1,2.55,3.91,10.24,10.24,0,0,1,1.05,4.89,1.55,1.55,0,0,1-.59,1.11,1.2,1.2,0,0,1-1.1-.36,25.72,25.72,0,0,1-2.54-4,28.5,28.5,0,0,1-1.24-4.24Z" transform="translate(-1398.04 -122.99)"/><path class="cls-2" d="M1534.4,193.37a10.26,10.26,0,0,1,1.58.26c0.95,0.29,1.09.9,0.38,1.58a5.31,5.31,0,0,1-1.25.9,14.42,14.42,0,0,1-7.27,1.64c-0.71,0-1.6,0-1.83-.82s0.57-1.24,1.17-1.6A15.12,15.12,0,0,1,1534.4,193.37Z" transform="translate(-1398.04 -122.99)"/><path class="cls-2" d="M1544.14,238c0,0.17,0,.34,0,0.51-0.14,1.05-.74,1.33-1.59.68a8.47,8.47,0,0,1-2.67-4.11,26.44,26.44,0,0,1-1-4.57,1.45,1.45,0,0,1,.57-1.25,1.64,1.64,0,0,1,1.31.52,12.82,12.82,0,0,1,3.06,5.95c0.2,0.74.28,1.51,0.42,2.27h-0.08Z" transform="translate(-1398.04 -122.99)"/><path class="cls-2" d="M1490.78,263.71a12.6,12.6,0,0,1,.7-1.6,13.2,13.2,0,0,1,5.43-5.43,1.8,1.8,0,0,1,1.48,0,1.58,1.58,0,0,1,.09,1.38,12.71,12.71,0,0,1-6.2,6.8C1491.3,265.3,1490.72,264.93,1490.78,263.71Z" transform="translate(-1398.04 -122.99)"/><path class="cls-2" d="M1520.11,233.51c0,0.94-.45,1.29-1.31.89a6.33,6.33,0,0,1-1.62-1.09,13.36,13.36,0,0,1-4-6.17,5,5,0,0,1,.17-1.76,5,5,0,0,1,1.71.45,13.72,13.72,0,0,1,4.85,6.59,4.51,4.51,0,0,1,.17.66A3.68,3.68,0,0,1,1520.11,233.51Z" transform="translate(-1398.04 -122.99)"/><path class="cls-2" d="M1523.38,228.4c0,0.89-.52,1.32-1.26.85a11.69,11.69,0,0,1-3-2.5,36.1,36.1,0,0,1-2.64-4.46,1.73,1.73,0,0,1-.19-0.91,1.56,1.56,0,0,1,.3-1.06,1.33,1.33,0,0,1,1.17,0,12.8,12.8,0,0,1,5.57,7.71A1.76,1.76,0,0,1,1523.38,228.4Z" transform="translate(-1398.04 -122.99)"/><path class="cls-2" d="M1481.12,273.6a12.4,12.4,0,0,1-2.76,6,15.86,15.86,0,0,1-2.4,2.28,1.27,1.27,0,0,1-1.14.17,1.56,1.56,0,0,1-.37-1.29,26.42,26.42,0,0,1,1.69-4.18,9.13,9.13,0,0,1,3.35-3.7,1.51,1.51,0,0,1,1.18-.14A1.66,1.66,0,0,1,1481.12,273.6Z" transform="translate(-1398.04 -122.99)"/><path class="cls-2" d="M1473.08,258.12a0.72,0.72,0,0,1-.86-0.85,3.85,3.85,0,0,1,.3-1.24,14.37,14.37,0,0,1,5.25-6,2.12,2.12,0,0,1,.76-0.37,1.94,1.94,0,0,1,1.27,0,1.35,1.35,0,0,1,.19,1.22,12.79,12.79,0,0,1-6.3,7,2,2,0,0,1-.41.13A1.1,1.1,0,0,1,1473.08,258.12Z" transform="translate(-1398.04 -122.99)"/><path class="cls-2" d="M1465.53,257.89a9.66,9.66,0,0,1,.46-1.21,14.61,14.61,0,0,1,4.64-5.29,6.21,6.21,0,0,1,1.52-.78,0.84,0.84,0,0,1,1.23,1,4.08,4.08,0,0,1-.36,1.13,14.43,14.43,0,0,1-4.88,5.63,5.12,5.12,0,0,1-1.46.69C1465.88,259.33,1465.46,259,1465.53,257.89Z" transform="translate(-1398.04 -122.99)"/><path class="cls-2" d="M1486.46,275.18a14.43,14.43,0,0,1-2.31,6.95c-0.39.6-.87,1.44-1.71,1.13s-0.71-1.21-.68-2a14.14,14.14,0,0,1,2.28-7.43l0.1-.14c0.45-.5.82-1.29,1.62-1s0.64,1.12.7,1.79C1486.48,274.67,1486.46,274.81,1486.46,275.18Z" transform="translate(-1398.04 -122.99)"/><path class="cls-2" d="M1567.23,178.35c0.38-1.56.73-3.2,1.21-4.79a1.48,1.48,0,0,1,1-.92,1.63,1.63,0,0,1,1,1,12.57,12.57,0,0,1,.34,6.68,10.87,10.87,0,0,1-.81,2.51,1.39,1.39,0,0,1-1,.78,1.34,1.34,0,0,1-.91-0.85C1567.76,181.36,1567.53,179.93,1567.23,178.35Z" transform="translate(-1398.04 -122.99)"/><path class="cls-2" d="M1609.67,239.4c-0.55,1-1,2-1.66,3a13.55,13.55,0,0,1-4.05,3.88,5,5,0,0,1-1.4.61,0.75,0.75,0,0,1-1-1,7.94,7.94,0,0,1,1-2.35,15,15,0,0,1,4.62-4.62,4.15,4.15,0,0,1,1.43-.53C1609.24,238.23,1609.54,238.58,1609.67,239.4Z" transform="translate(-1398.04 -122.99)"/><path class="cls-2" d="M1599.23,228a10.8,10.8,0,0,1-1.49-.33c-0.82-.29-1-1-0.31-1.48a12.09,12.09,0,0,1,3.46-1.79,28,28,0,0,1,5.06-.71c0.71-.06,1.67,0,1.89.85s-0.65,1.23-1.28,1.61A15.44,15.44,0,0,1,1599.23,228Z" transform="translate(-1398.04 -122.99)"/><path class="cls-2" d="M1473.48,228.66a15.81,15.81,0,0,1-1.6,6.28c-0.32.62-.67,1.46-1.51,1.29s-0.9-1.1-1-1.82a14.55,14.55,0,0,1,1.21-7.27,4.37,4.37,0,0,1,.76-1.23,1.39,1.39,0,0,1,1-.5,1.24,1.24,0,0,1,.74.81A23,23,0,0,1,1473.48,228.66Z" transform="translate(-1398.04 -122.99)"/><path class="cls-2" d="M1585.17,215.77c-0.82,0-1.19-.3-1.06-1a4.85,4.85,0,0,1,.44-1.38,14.33,14.33,0,0,1,5.29-5.61c0.62-.37,1.4-0.92,2.05-0.33s0.17,1.4-.16,2a14.25,14.25,0,0,1-5.38,5.74A6.74,6.74,0,0,1,1585.17,215.77Z" transform="translate(-1398.04 -122.99)"/><path class="cls-2" d="M1523.83,214.57c2.68,2.58,3.53,5.85,3.47,9.42a1.56,1.56,0,0,1-.68,1.23,1.54,1.54,0,0,1-1.26-.59,13,13,0,0,1-2.66-8.91,1.08,1.08,0,0,1,1.16-1.12Z" transform="translate(-1398.04 -122.99)"/><path class="cls-2" d="M1552.09,199.43a14.06,14.06,0,0,1-2.42,7.3,2.3,2.3,0,0,1-1.59,1c-0.79-.08-0.77-1-0.76-1.7a13.65,13.65,0,0,1,2.62-8c0.35-.48.84-1.12,1.45-0.76a3.1,3.1,0,0,1,.69,1.53A1.85,1.85,0,0,1,1552.09,199.43Z" transform="translate(-1398.04 -122.99)"/><path class="cls-2" d="M1577,180.56c0.85,0,1.26.47,0.94,1.22a7.93,7.93,0,0,1-1.22,2,14.69,14.69,0,0,1-5.09,4,2.82,2.82,0,0,1-1,.32,1.8,1.8,0,0,1-1.24-.17,1.5,1.5,0,0,1,0-1.33,13.06,13.06,0,0,1,7.2-6A2.08,2.08,0,0,1,1577,180.56Z" transform="translate(-1398.04 -122.99)"/><path class="cls-2" d="M1569.33,195.3c-0.85,0-1.3-.51-0.9-1.24a14,14,0,0,1,2.15-3,11.09,11.09,0,0,1,5.12-3.3,1.54,1.54,0,0,1,1.25.21,1.27,1.27,0,0,1,0,1.17,12.67,12.67,0,0,1-7.28,6.12A3,3,0,0,1,1569.33,195.3Z" transform="translate(-1398.04 -122.99)"/><path class="cls-2" d="M1480.51,264.35a13.73,13.73,0,0,1,6.85,1.91l0.15,0.09c0.46,0.37,1.19.75,0.87,1.39a2,2,0,0,1-1.46.8,13.55,13.55,0,0,1-8.07-1.77c-0.6-.33-1.42-0.75-1.18-1.58s1.11-.77,1.82-0.82C1479.88,264.32,1480.29,264.35,1480.51,264.35Z" transform="translate(-1398.04 -122.99)"/><path class="cls-2" d="M1471.86,266.39a13.85,13.85,0,0,1,6.76,2,0.88,0.88,0,0,1,.28.2,2.59,2.59,0,0,1,.71,1.21,1.78,1.78,0,0,1-1.24.82,13.06,13.06,0,0,1-7.25-1.2,7.72,7.72,0,0,1-1.86-1.18c-0.7-.6-0.55-1.19.31-1.55a1.63,1.63,0,0,1,.49-0.14C1470.67,266.44,1471.27,266.42,1471.86,266.39Z" transform="translate(-1398.04 -122.99)"/><path class="cls-2" d="M1488.47,363.23a2.9,2.9,0,0,1-3-2.66,2.13,2.13,0,0,1,2.42-2.16,2.8,2.8,0,0,1,2.91,2.65A2.11,2.11,0,0,1,1488.47,363.23Z" transform="translate(-1398.04 -122.99)"/><path class="cls-2" d="M1589.34,246.51c-0.48,1.63-1,3.25-1.45,4.88a0.77,0.77,0,0,1-.21.37c-0.36.29-.74,0.55-1.12,0.82a3.89,3.89,0,0,1-.58-1.31,10.08,10.08,0,0,1,1.35-5.75,5.21,5.21,0,0,1,1.09-1c0.22,0.43.47,0.86,0.66,1.3a1.64,1.64,0,0,1,0,.59Z" transform="translate(-1398.04 -122.99)"/><path class="cls-2" d="M1593.8,245.48c-0.48,1.63-1,3.26-1.44,4.88a0.72,0.72,0,0,1-.21.37c-0.39.28-.8,0.54-1.2,0.8a4.09,4.09,0,0,1-.51-1.29,10.18,10.18,0,0,1,1.36-5.75,5.28,5.28,0,0,1,1.09-1c0.22,0.43.47,0.86,0.66,1.3a1.65,1.65,0,0,1,0,.6Z" transform="translate(-1398.04 -122.99)"/><path class="cls-2" d="M1465.19,240.86c0-.58.23-0.86,0.75-0.69a5.22,5.22,0,0,1,1.32.58,12.15,12.15,0,0,1,3.51,3.69,1.49,1.49,0,0,1,.28.62,9.41,9.41,0,0,1-.06,1.2,3,3,0,0,1-1.13-.14,10.78,10.78,0,0,1-4.5-4.67A3.24,3.24,0,0,1,1465.19,240.86Z" transform="translate(-1398.04 -122.99)"/><path class="cls-2" d="M1598.95,244.53a5.18,5.18,0,0,1-.22.79,13.39,13.39,0,0,1-2.95,4.26,1.25,1.25,0,0,1-.48.35c-0.46.14-.95,0.22-1.42,0.33a4.43,4.43,0,0,1,0-1.45,10.39,10.39,0,0,1,3.46-4.79,2.84,2.84,0,0,1,.57-0.37C1598.65,243.35,1599,243.57,1598.95,244.53Z" transform="translate(-1398.04 -122.99)"/></svg>